<svg xmlns="http://www.w3.org/2000/svg" xmlns:xlink="http://www.w3.org/1999/xlink" width="500" zoomAndPan="magnify" viewBox="0 0 375 374.999991" height="500" preserveAspectRatio="xMidYMid meet" version="1.0"><defs><g/><clipPath id="5eb004dff6"><path d="M 82.617188 74.925781 L 292.835938 74.925781 L 292.835938 285.144531 L 82.617188 285.144531 Z M 82.617188 74.925781 " clip-rule="nonzero"/></clipPath><clipPath id="2426380f3b"><path d="M 187.726562 74.925781 C 129.675781 74.925781 82.617188 121.984375 82.617188 180.035156 C 82.617188 238.085938 129.675781 285.144531 187.726562 285.144531 C 245.777344 285.144531 292.835938 238.085938 292.835938 180.035156 C 292.835938 121.984375 245.777344 74.925781 187.726562 74.925781 Z M 187.726562 74.925781 " clip-rule="nonzero"/></clipPath><clipPath id="8b79bde57d"><path d="M 141.894531 108.136719 L 233.5625 108.136719 L 233.5625 252 L 141.894531 252 Z M 141.894531 108.136719 " clip-rule="nonzero"/></clipPath><clipPath id="3d43032b64"><path d="M 150.144531 108.136719 L 225.3125 108.136719 C 227.5 108.136719 229.597656 109.007812 231.144531 110.554688 C 232.691406 112.101562 233.5625 114.199219 233.5625 116.386719 L 233.5625 243.679688 C 233.5625 245.871094 232.691406 247.96875 231.144531 249.515625 C 229.597656 251.0625 227.5 251.929688 225.3125 251.929688 L 150.144531 251.929688 C 147.953125 251.929688 145.855469 251.0625 144.308594 249.515625 C 142.761719 247.96875 141.894531 245.871094 141.894531 243.679688 L 141.894531 116.386719 C 141.894531 114.199219 142.761719 112.101562 144.308594 110.554688 C 145.855469 109.007812 147.953125 108.136719 150.144531 108.136719 Z M 150.144531 108.136719 " clip-rule="nonzero"/></clipPath><clipPath id="00b5b642a7"><path d="M 141.894531 108.136719 L 233.394531 108.136719 L 233.394531 252 L 141.894531 252 Z M 141.894531 108.136719 " clip-rule="nonzero"/></clipPath><clipPath id="d5db277c83"><path d="M 150.140625 108.136719 L 225.308594 108.136719 C 227.496094 108.136719 229.59375 109.007812 231.140625 110.554688 C 232.6875 112.101562 233.558594 114.199219 233.558594 116.386719 L 233.558594 243.675781 C 233.558594 245.863281 232.6875 247.960938 231.140625 249.507812 C 229.59375 251.054688 227.496094 251.925781 225.308594 251.925781 L 150.140625 251.925781 C 147.953125 251.925781 145.855469 251.054688 144.308594 249.507812 C 142.761719 247.960938 141.894531 245.863281 141.894531 243.675781 L 141.894531 116.386719 C 141.894531 114.199219 142.761719 112.101562 144.308594 110.554688 C 145.855469 109.007812 147.953125 108.136719 150.140625 108.136719 Z M 150.140625 108.136719 " clip-rule="nonzero"/></clipPath><clipPath id="7f91c3e435"><path d="M 150.976562 147.351562 L 201.226562 147.351562 L 201.226562 155.601562 L 150.976562 155.601562 Z M 150.976562 147.351562 " clip-rule="nonzero"/></clipPath><clipPath id="30b7cb83f6"><path d="M 154.726562 147.351562 L 197.453125 147.351562 C 198.445312 147.351562 199.402344 147.746094 200.105469 148.449219 C 200.808594 149.152344 201.203125 150.105469 201.203125 151.101562 L 201.203125 152.085938 C 201.203125 153.082031 200.808594 154.035156 200.105469 154.738281 C 199.402344 155.441406 198.445312 155.835938 197.453125 155.835938 L 154.726562 155.835938 C 153.730469 155.835938 152.777344 155.441406 152.074219 154.738281 C 151.371094 154.035156 150.976562 153.082031 150.976562 152.085938 L 150.976562 151.101562 C 150.976562 150.105469 151.371094 149.152344 152.074219 148.449219 C 152.777344 147.746094 153.730469 147.351562 154.726562 147.351562 Z M 154.726562 147.351562 " clip-rule="nonzero"/></clipPath><clipPath id="c6029aad53"><path d="M 150.976562 166.554688 L 224.476562 166.554688 L 224.476562 174.804688 L 150.976562 174.804688 Z M 150.976562 166.554688 " clip-rule="nonzero"/></clipPath><clipPath id="19eb8fb859"><path d="M 154.726562 166.554688 L 220.726562 166.554688 C 221.71875 166.554688 222.671875 166.949219 223.375 167.652344 C 224.078125 168.355469 224.472656 169.308594 224.472656 170.304688 L 224.472656 171.289062 C 224.472656 172.285156 224.078125 173.238281 223.375 173.941406 C 222.671875 174.644531 221.71875 175.039062 220.726562 175.039062 L 154.726562 175.039062 C 153.730469 175.039062 152.777344 174.644531 152.074219 173.941406 C 151.371094 173.238281 150.976562 172.285156 150.976562 171.289062 L 150.976562 170.304688 C 150.976562 169.308594 151.371094 168.355469 152.074219 167.652344 C 152.777344 166.949219 153.730469 166.554688 154.726562 166.554688 Z M 154.726562 166.554688 " clip-rule="nonzero"/></clipPath><clipPath id="fbbb1d57d7"><path d="M 150.976562 185.824219 L 224.476562 185.824219 L 224.476562 194.074219 L 150.976562 194.074219 Z M 150.976562 185.824219 " clip-rule="nonzero"/></clipPath><clipPath id="4f02b273d6"><path d="M 154.726562 185.824219 L 220.726562 185.824219 C 221.71875 185.824219 222.671875 186.21875 223.375 186.921875 C 224.078125 187.625 224.472656 188.578125 224.472656 189.574219 L 224.472656 190.558594 C 224.472656 191.554688 224.078125 192.507812 223.375 193.210938 C 222.671875 193.914062 221.71875 194.308594 220.726562 194.308594 L 154.726562 194.308594 C 153.730469 194.308594 152.777344 193.914062 152.074219 193.210938 C 151.371094 192.507812 150.976562 191.554688 150.976562 190.558594 L 150.976562 189.574219 C 150.976562 188.578125 151.371094 187.625 152.074219 186.921875 C 152.777344 186.21875 153.730469 185.824219 154.726562 185.824219 Z M 154.726562 185.824219 " clip-rule="nonzero"/></clipPath><clipPath id="d17be67627"><path d="M 150.976562 205.09375 L 184.726562 205.09375 L 184.726562 213.34375 L 150.976562 213.34375 Z M 150.976562 205.09375 " clip-rule="nonzero"/></clipPath><clipPath id="f611932d55"><path d="M 154.722656 205.09375 L 181.058594 205.09375 C 182.050781 205.09375 183.007812 205.488281 183.710938 206.191406 C 184.414062 206.894531 184.808594 207.847656 184.808594 208.84375 L 184.808594 209.828125 C 184.808594 210.824219 184.414062 211.777344 183.710938 212.480469 C 183.007812 213.183594 182.050781 213.578125 181.058594 213.578125 L 154.722656 213.578125 C 153.730469 213.578125 152.777344 213.183594 152.074219 212.480469 C 151.371094 211.777344 150.976562 210.824219 150.976562 209.828125 L 150.976562 208.84375 C 150.976562 207.847656 151.371094 206.894531 152.074219 206.191406 C 152.777344 205.488281 153.730469 205.09375 154.722656 205.09375 Z M 154.722656 205.09375 " clip-rule="nonzero"/></clipPath><clipPath id="360fc609f0"><path d="M 150.976562 224.363281 L 224.476562 224.363281 L 224.476562 232.613281 L 150.976562 232.613281 Z M 150.976562 224.363281 " clip-rule="nonzero"/></clipPath><clipPath id="43f11eb4f2"><path d="M 154.726562 224.363281 L 220.726562 224.363281 C 221.71875 224.363281 222.671875 224.757812 223.375 225.460938 C 224.078125 226.164062 224.472656 227.117188 224.472656 228.113281 L 224.472656 229.097656 C 224.472656 230.09375 224.078125 231.046875 223.375 231.75 C 222.671875 232.453125 221.71875 232.847656 220.726562 232.847656 L 154.726562 232.847656 C 153.730469 232.847656 152.777344 232.453125 152.074219 231.75 C 151.371094 231.046875 150.976562 230.09375 150.976562 229.097656 L 150.976562 228.113281 C 150.976562 227.117188 151.371094 226.164062 152.074219 225.460938 C 152.777344 224.757812 153.730469 224.363281 154.726562 224.363281 Z M 154.726562 224.363281 " clip-rule="nonzero"/></clipPath><clipPath id="bd2dcb2b16"><path d="M 191.742188 205.09375 L 224.59375 205.09375 L 224.59375 213.34375 L 191.742188 213.34375 Z M 191.742188 205.09375 " clip-rule="nonzero"/></clipPath><clipPath id="bf45d4e9f9"><path d="M 195.488281 205.09375 L 220.722656 205.09375 C 221.714844 205.09375 222.671875 205.488281 223.375 206.191406 C 224.078125 206.894531 224.472656 207.847656 224.472656 208.84375 L 224.472656 209.828125 C 224.472656 210.824219 224.078125 211.777344 223.375 212.480469 C 222.671875 213.183594 221.714844 213.578125 220.722656 213.578125 L 195.488281 213.578125 C 194.496094 213.578125 193.542969 213.183594 192.839844 212.480469 C 192.136719 211.777344 191.742188 210.824219 191.742188 209.828125 L 191.742188 208.84375 C 191.742188 207.847656 192.136719 206.894531 192.839844 206.191406 C 193.542969 205.488281 194.496094 205.09375 195.488281 205.09375 Z M 195.488281 205.09375 " clip-rule="nonzero"/></clipPath><clipPath id="3b07240ac7"><path d="M 208.109375 147.289062 L 224.609375 147.289062 L 224.609375 155.535156 L 208.109375 155.535156 Z M 208.109375 147.289062 " clip-rule="nonzero"/></clipPath><clipPath id="2889644bfc"><path d="M 211.859375 147.289062 L 220.722656 147.289062 C 221.714844 147.289062 222.667969 147.683594 223.371094 148.386719 C 224.074219 149.085938 224.46875 150.042969 224.46875 151.035156 L 224.46875 152.019531 C 224.46875 153.011719 224.074219 153.96875 223.371094 154.667969 C 222.667969 155.371094 221.714844 155.765625 220.722656 155.765625 L 211.859375 155.765625 C 210.863281 155.765625 209.910156 155.371094 209.207031 154.667969 C 208.503906 153.96875 208.109375 153.011719 208.109375 152.019531 L 208.109375 151.035156 C 208.109375 150.042969 208.503906 149.085938 209.207031 148.386719 C 209.910156 147.683594 210.863281 147.289062 211.859375 147.289062 Z M 211.859375 147.289062 " clip-rule="nonzero"/></clipPath><clipPath id="7212f0098f"><path d="M 11.085938 11.203125 L 63.914062 11.203125 L 63.914062 64.234375 L 11.085938 64.234375 Z M 11.085938 11.203125 " clip-rule="nonzero"/></clipPath><clipPath id="285e85c25b"><path d="M 37.5 11.203125 C 22.914062 11.203125 11.085938 23.03125 11.085938 37.621094 C 11.085938 52.210938 22.914062 64.035156 37.5 64.035156 C 52.085938 64.035156 63.914062 52.210938 63.914062 37.621094 C 63.914062 23.03125 52.085938 11.203125 37.5 11.203125 Z M 37.5 11.203125 " clip-rule="nonzero"/></clipPath></defs><rect x="-37.5" width="450" fill="#ffffff" y="-37.499999" height="449.999989" fill-opacity="1"/><rect x="-37.5" width="450" fill="#ffffff" y="-37.499999" height="449.999989" fill-opacity="1"/><g clip-path="url(#5eb004dff6)"><g clip-path="url(#2426380f3b)"><path fill="#f0eee6" d="M 82.617188 74.925781 L 292.835938 74.925781 L 292.835938 285.144531 L 82.617188 285.144531 Z M 82.617188 74.925781 " fill-opacity="1" fill-rule="nonzero"/></g></g><g clip-path="url(#8b79bde57d)"><g clip-path="url(#3d43032b64)"><path fill="#f0eee6" d="M 141.894531 108.136719 L 233.5625 108.136719 L 233.5625 252.085938 L 141.894531 252.085938 Z M 141.894531 108.136719 " fill-opacity="1" fill-rule="nonzero"/></g></g><g clip-path="url(#00b5b642a7)"><g clip-path="url(#d5db277c83)"><path stroke-linecap="butt" transform="matrix(0.75, 0, 0, 0.75, 141.892949, 108.138588)" fill="none" stroke-linejoin="miter" d="M 10.996902 -0.00249247 L 111.220867 -0.00249247 C 114.137534 -0.00249247 116.934409 1.158966 118.996909 3.221466 C 121.05941 5.283966 122.220868 8.080841 122.220868 10.997508 L 122.220868 180.716269 C 122.220868 183.632936 121.05941 186.429811 118.996909 188.492312 C 116.934409 190.554812 114.137534 191.71627 111.220867 191.71627 L 10.996902 191.71627 C 8.080235 191.71627 5.28336 190.554812 3.22086 188.492312 C 1.15836 186.429811 0.00210996 183.632936 0.00210996 180.716269 L 0.00210996 10.997508 C 0.00210996 8.080841 1.15836 5.283966 3.22086 3.221466 C 5.28336 1.158966 8.080235 -0.00249247 10.996902 -0.00249247 Z M 10.996902 -0.00249247 " stroke="#11663a" stroke-width="10" stroke-opacity="1" stroke-miterlimit="4"/></g></g><g clip-path="url(#7f91c3e435)"><g clip-path="url(#30b7cb83f6)"><path stroke-linecap="butt" transform="matrix(0.75, 0, 0, 0.75, 150.975448, 147.351744)" fill="none" stroke-linejoin="miter" d="M 5.001486 -0.000241899 L 61.97024 -0.000241899 C 63.293157 -0.000241899 64.569198 0.5258 65.506698 1.4633 C 66.444198 2.4008 66.97024 3.671633 66.97024 4.999758 L 66.97024 6.312259 C 66.97024 7.640384 66.444198 8.911217 65.506698 9.848717 C 64.569198 10.786217 63.293157 11.312259 61.97024 11.312259 L 5.001486 11.312259 C 3.673361 11.312259 2.402528 10.786217 1.465028 9.848717 C 0.527527 8.911217 0.00148575 7.640384 0.00148575 6.312259 L 0.00148575 4.999758 C 0.00148575 3.671633 0.527527 2.4008 1.465028 1.4633 C 2.402528 0.5258 3.673361 -0.000241899 5.001486 -0.000241899 Z M 5.001486 -0.000241899 " stroke="#11663a" stroke-width="8" stroke-opacity="1" stroke-miterlimit="4"/></g></g><g clip-path="url(#c6029aad53)"><g clip-path="url(#19eb8fb859)"><path stroke-linecap="butt" transform="matrix(0.75, 0, 0, 0.75, 150.976562, 166.554745)" fill="none" stroke-linejoin="miter" d="M 5.000001 -0.0000767505 L 93.000007 -0.0000767505 C 94.322924 -0.0000767505 95.593757 0.525965 96.531257 1.463465 C 97.468757 2.400965 97.994799 3.671798 97.994799 4.999924 L 97.994799 6.312424 C 97.994799 7.640549 97.468757 8.911382 96.531257 9.848882 C 95.593757 10.786382 94.322924 11.312424 93.000007 11.312424 L 5.000001 11.312424 C 3.671876 11.312424 2.401043 10.786382 1.463543 9.848882 C 0.526043 8.911382 0.00000095217 7.640549 0.00000095217 6.312424 L 0.00000095217 4.999924 C 0.00000095217 3.671798 0.526043 2.400965 1.463543 1.463465 C 2.401043 0.525965 3.671876 -0.0000767505 5.000001 -0.0000767505 Z M 5.000001 -0.0000767505 " stroke="#11663a" stroke-width="8" stroke-opacity="1" stroke-miterlimit="4"/></g></g><g clip-path="url(#fbbb1d57d7)"><g clip-path="url(#4f02b273d6)"><path stroke-linecap="butt" transform="matrix(0.75, 0, 0, 0.75, 150.976562, 185.824339)" fill="none" stroke-linejoin="miter" d="M 5.000001 -0.00016033 L 93.000007 -0.00016033 C 94.322924 -0.00016033 95.593757 0.525881 96.531257 1.463381 C 97.468757 2.400881 97.994799 3.671715 97.994799 4.99984 L 97.994799 6.31234 C 97.994799 7.640465 97.468757 8.911299 96.531257 9.848799 C 95.593757 10.786299 94.322924 11.31234 93.000007 11.31234 L 5.000001 11.31234 C 3.671876 11.31234 2.401043 10.786299 1.463543 9.848799 C 0.526043 8.911299 0.00000095217 7.640465 0.00000095217 6.31234 L 0.00000095217 4.99984 C 0.00000095217 3.671715 0.526043 2.400881 1.463543 1.463381 C 2.401043 0.525881 3.671876 -0.00016033 5.000001 -0.00016033 Z M 5.000001 -0.00016033 " stroke="#11663a" stroke-width="8" stroke-opacity="1" stroke-miterlimit="4"/></g></g><g clip-path="url(#d17be67627)"><g clip-path="url(#f611932d55)"><path stroke-linecap="butt" transform="matrix(0.75, 0, 0, 0.75, 150.975448, 205.094562)" fill="none" stroke-linejoin="miter" d="M 4.996278 -0.00108231 L 40.110863 -0.00108231 C 41.43378 -0.00108231 42.709822 0.524959 43.647322 1.462459 C 44.584822 2.39996 45.110864 3.670793 45.110864 4.998918 L 45.110864 6.311418 C 45.110864 7.639543 44.584822 8.910377 43.647322 9.847877 C 42.709822 10.785377 41.43378 11.311418 40.110863 11.311418 L 4.996278 11.311418 C 3.673361 11.311418 2.402528 10.785377 1.465028 9.847877 C 0.527527 8.910377 0.00148575 7.639543 0.00148575 6.311418 L 0.00148575 4.998918 C 0.00148575 3.670793 0.527527 2.39996 1.465028 1.462459 C 2.402528 0.524959 3.673361 -0.00108231 4.996278 -0.00108231 Z M 4.996278 -0.00108231 " stroke="#11663a" stroke-width="8" stroke-opacity="1" stroke-miterlimit="4"/></g></g><g clip-path="url(#360fc609f0)"><g clip-path="url(#43f11eb4f2)"><path stroke-linecap="butt" transform="matrix(0.75, 0, 0, 0.75, 150.976562, 224.36351)" fill="none" stroke-linejoin="miter" d="M 5.000001 -0.000305089 L 93.000007 -0.000305089 C 94.322924 -0.000305089 95.593757 0.525737 96.531257 1.463237 C 97.468757 2.400737 97.994799 3.67157 97.994799 4.999695 L 97.994799 6.312195 C 97.994799 7.64032 97.468757 8.911154 96.531257 9.848654 C 95.593757 10.786154 94.322924 11.312196 93.000007 11.312196 L 5.000001 11.312196 C 3.671876 11.312196 2.401043 10.786154 1.463543 9.848654 C 0.526043 8.911154 0.00000095217 7.64032 0.00000095217 6.312195 L 0.00000095217 4.999695 C 0.00000095217 3.67157 0.526043 2.400737 1.463543 1.463237 C 2.401043 0.525737 3.671876 -0.000305089 5.000001 -0.000305089 Z M 5.000001 -0.000305089 " stroke="#11663a" stroke-width="8" stroke-opacity="1" stroke-miterlimit="4"/></g></g><g fill="#11663a" fill-opacity="1"><g transform="translate(160.642221, 135.272709)"><g><path d="M 3.890625 0.15625 C 3.203125 0.15625 2.535156 0.0625 1.890625 -0.125 C 1.253906 -0.3125 0.738281 -0.554688 0.34375 -0.859375 L 1.03125 -2.375 C 1.40625 -2.101562 1.847656 -1.882812 2.359375 -1.71875 C 2.878906 -1.550781 3.394531 -1.46875 3.90625 -1.46875 C 4.476562 -1.46875 4.898438 -1.550781 5.171875 -1.71875 C 5.453125 -1.894531 5.59375 -2.125 5.59375 -2.40625 C 5.59375 -2.613281 5.507812 -2.785156 5.34375 -2.921875 C 5.1875 -3.054688 4.976562 -3.164062 4.71875 -3.25 C 4.46875 -3.332031 4.128906 -3.425781 3.703125 -3.53125 C 3.035156 -3.6875 2.488281 -3.84375 2.0625 -4 C 1.644531 -4.15625 1.28125 -4.40625 0.96875 -4.75 C 0.664062 -5.101562 0.515625 -5.570312 0.515625 -6.15625 C 0.515625 -6.65625 0.648438 -7.109375 0.921875 -7.515625 C 1.203125 -7.929688 1.617188 -8.257812 2.171875 -8.5 C 2.722656 -8.738281 3.398438 -8.859375 4.203125 -8.859375 C 4.753906 -8.859375 5.296875 -8.789062 5.828125 -8.65625 C 6.359375 -8.53125 6.820312 -8.34375 7.21875 -8.09375 L 6.59375 -6.5625 C 5.789062 -7.019531 4.988281 -7.25 4.1875 -7.25 C 3.625 -7.25 3.207031 -7.15625 2.9375 -6.96875 C 2.664062 -6.789062 2.53125 -6.550781 2.53125 -6.25 C 2.53125 -5.945312 2.6875 -5.722656 3 -5.578125 C 3.3125 -5.441406 3.785156 -5.300781 4.421875 -5.15625 C 5.085938 -5 5.628906 -4.84375 6.046875 -4.6875 C 6.472656 -4.53125 6.835938 -4.28125 7.140625 -3.9375 C 7.441406 -3.59375 7.59375 -3.128906 7.59375 -2.546875 C 7.59375 -2.054688 7.453125 -1.601562 7.171875 -1.1875 C 6.898438 -0.78125 6.484375 -0.453125 5.921875 -0.203125 C 5.367188 0.0351562 4.691406 0.15625 3.890625 0.15625 Z M 3.890625 0.15625 "/></g></g></g><g fill="#11663a" fill-opacity="1"><g transform="translate(168.59069, 135.272709)"><g><path d="M 1.03125 -8.71875 L 3.046875 -8.71875 L 3.046875 0 L 1.03125 0 Z M 1.03125 -8.71875 "/></g></g></g><g fill="#11663a" fill-opacity="1"><g transform="translate(172.677049, 135.272709)"><g><path d="M 6.921875 -4.5 L 8.765625 -4.5 L 8.765625 -0.953125 C 8.296875 -0.597656 7.75 -0.320312 7.125 -0.125 C 6.5 0.0625 5.875 0.15625 5.25 0.15625 C 4.34375 0.15625 3.523438 -0.0351562 2.796875 -0.421875 C 2.078125 -0.816406 1.507812 -1.351562 1.09375 -2.03125 C 0.6875 -2.71875 0.484375 -3.492188 0.484375 -4.359375 C 0.484375 -5.222656 0.6875 -5.992188 1.09375 -6.671875 C 1.507812 -7.359375 2.082031 -7.894531 2.8125 -8.28125 C 3.539062 -8.664062 4.363281 -8.859375 5.28125 -8.859375 C 6.039062 -8.859375 6.734375 -8.726562 7.359375 -8.46875 C 7.984375 -8.21875 8.503906 -7.847656 8.921875 -7.359375 L 7.640625 -6.171875 C 7.015625 -6.816406 6.257812 -7.140625 5.375 -7.140625 C 4.820312 -7.140625 4.328125 -7.023438 3.890625 -6.796875 C 3.460938 -6.566406 3.128906 -6.238281 2.890625 -5.8125 C 2.648438 -5.394531 2.53125 -4.910156 2.53125 -4.359375 C 2.53125 -3.816406 2.648438 -3.332031 2.890625 -2.90625 C 3.128906 -2.488281 3.460938 -2.160156 3.890625 -1.921875 C 4.316406 -1.679688 4.804688 -1.5625 5.359375 -1.5625 C 5.929688 -1.5625 6.453125 -1.6875 6.921875 -1.9375 Z M 6.921875 -4.5 "/></g></g></g><g fill="#11663a" fill-opacity="1"><g transform="translate(182.282486, 135.272709)"><g><path d="M 9.03125 -8.71875 L 9.03125 0 L 7.375 0 L 3.03125 -5.296875 L 3.03125 0 L 1.03125 0 L 1.03125 -8.71875 L 2.703125 -8.71875 L 7.03125 -3.421875 L 7.03125 -8.71875 Z M 9.03125 -8.71875 "/></g></g></g><g fill="#11663a" fill-opacity="1"><g transform="translate(192.34888, 135.272709)"><g/></g></g><g fill="#11663a" fill-opacity="1"><g transform="translate(195.874608, 135.272709)"><g><path d="M 4.90625 0.15625 C 3.65625 0.15625 2.679688 -0.1875 1.984375 -0.875 C 1.296875 -1.570312 0.953125 -2.554688 0.953125 -3.828125 L 0.953125 -8.71875 L 2.96875 -8.71875 L 2.96875 -3.90625 C 2.96875 -2.34375 3.617188 -1.5625 4.921875 -1.5625 C 5.546875 -1.5625 6.023438 -1.75 6.359375 -2.125 C 6.691406 -2.507812 6.859375 -3.101562 6.859375 -3.90625 L 6.859375 -8.71875 L 8.859375 -8.71875 L 8.859375 -3.828125 C 8.859375 -2.554688 8.507812 -1.570312 7.8125 -0.875 C 7.125 -0.1875 6.15625 0.15625 4.90625 0.15625 Z M 4.90625 0.15625 "/></g></g></g><g fill="#11663a" fill-opacity="1"><g transform="translate(205.691838, 135.272709)"><g><path d="M 4.8125 -8.71875 C 5.582031 -8.71875 6.25 -8.585938 6.8125 -8.328125 C 7.382812 -8.066406 7.820312 -7.703125 8.125 -7.234375 C 8.4375 -6.765625 8.59375 -6.203125 8.59375 -5.546875 C 8.59375 -4.910156 8.4375 -4.351562 8.125 -3.875 C 7.820312 -3.394531 7.382812 -3.03125 6.8125 -2.78125 C 6.25 -2.53125 5.582031 -2.40625 4.8125 -2.40625 L 3.046875 -2.40625 L 3.046875 0 L 1.03125 0 L 1.03125 -8.71875 Z M 4.6875 -4.046875 C 5.300781 -4.046875 5.765625 -4.175781 6.078125 -4.4375 C 6.390625 -4.695312 6.546875 -5.066406 6.546875 -5.546875 C 6.546875 -6.035156 6.390625 -6.410156 6.078125 -6.671875 C 5.765625 -6.941406 5.300781 -7.078125 4.6875 -7.078125 L 3.046875 -7.078125 L 3.046875 -4.046875 Z M 4.6875 -4.046875 "/></g></g></g><g clip-path="url(#bd2dcb2b16)"><g clip-path="url(#bf45d4e9f9)"><path stroke-linecap="butt" transform="matrix(0.75, 0, 0, 0.75, 191.741037, 205.094576)" fill="none" stroke-linejoin="miter" d="M 4.996326 -0.00110151 L 38.642159 -0.00110151 C 39.965076 -0.00110151 41.241118 0.52494 42.178618 1.46244 C 43.116118 2.39994 43.642159 3.670773 43.642159 4.998898 L 43.642159 6.311399 C 43.642159 7.639524 43.116118 8.910357 42.178618 9.847857 C 41.241118 10.785357 39.965076 11.311399 38.642159 11.311399 L 4.996326 11.311399 C 3.673409 11.311399 2.402576 10.785357 1.465076 9.847857 C 0.527576 8.910357 0.00153439 7.639524 0.00153439 6.311399 L 0.00153439 4.998898 C 0.00153439 3.670773 0.527576 2.39994 1.465076 1.46244 C 2.402576 0.52494 3.673409 -0.00110151 4.996326 -0.00110151 Z M 4.996326 -0.00110151 " stroke="#11663a" stroke-width="8" stroke-opacity="1" stroke-miterlimit="4"/></g></g><g clip-path="url(#3b07240ac7)"><g clip-path="url(#2889644bfc)"><path stroke-linecap="butt" transform="matrix(0.75, 0, 0, 0.75, 208.110048, 147.287304)" fill="none" stroke-linejoin="miter" d="M 4.999102 0.00234476 L 16.816812 0.00234476 C 18.139728 0.00234476 19.410562 0.528386 20.348062 1.465887 C 21.285562 2.398178 21.811604 3.67422 21.811604 4.997137 L 21.811604 6.309637 C 21.811604 7.632554 21.285562 8.908595 20.348062 9.840887 C 19.410562 10.778387 18.139728 11.304429 16.816812 11.304429 L 4.999102 11.304429 C 3.670977 11.304429 2.400144 10.778387 1.462644 9.840887 C 0.525144 8.908595 -0.000897912 7.632554 -0.000897912 6.309637 L -0.000897912 4.997137 C -0.000897912 3.67422 0.525144 2.398178 1.462644 1.465887 C 2.400144 0.528386 3.670977 0.00234476 4.999102 0.00234476 Z M 4.999102 0.00234476 " stroke="#11663a" stroke-width="8" stroke-opacity="1" stroke-miterlimit="4"/></g></g><g fill="#11663a" fill-opacity="1"><g transform="translate(87.925188, 113.958362)"><g><path d="M -6.625 -19.625 L 2.6875 -12.921875 C 4.125 -11.890625 4.9375 -10.6875 5.125 -9.3125 C 5.320312 -7.9375 4.925781 -6.5625 3.9375 -5.1875 C 2.90625 -3.75 1.664062 -2.882812 0.21875 -2.59375 C -1.226562 -2.3125 -2.707031 -2.710938 -4.21875 -3.796875 L -1.828125 -7.109375 C -1.253906 -6.691406 -0.738281 -6.492188 -0.28125 -6.515625 C 0.175781 -6.546875 0.566406 -6.785156 0.890625 -7.234375 C 1.179688 -7.628906 1.273438 -8.03125 1.171875 -8.4375 C 1.066406 -8.84375 0.769531 -9.222656 0.28125 -9.578125 L -9.03125 -16.28125 Z M -6.625 -19.625 "/></g></g></g><g fill="#11663a" fill-opacity="1"><g transform="translate(95.312511, 103.320755)"><g><path d="M 6.59375 -6.765625 C 5.507812 -5.609375 4.25 -4.804688 2.8125 -4.359375 C 1.375 -3.910156 -0.0859375 -3.851562 -1.578125 -4.1875 C -3.078125 -4.519531 -4.425781 -5.25 -5.625 -6.375 C -6.820312 -7.507812 -7.632812 -8.804688 -8.0625 -10.265625 C -8.488281 -11.734375 -8.519531 -13.195312 -8.15625 -14.65625 C -7.789062 -16.125 -7.066406 -17.4375 -5.984375 -18.59375 C -4.890625 -19.738281 -3.617188 -20.539062 -2.171875 -21 C -0.734375 -21.457031 0.722656 -21.515625 2.203125 -21.171875 C 3.679688 -20.835938 5.019531 -20.101562 6.21875 -18.96875 C 7.414062 -17.84375 8.226562 -16.546875 8.65625 -15.078125 C 9.09375 -13.617188 9.128906 -12.15625 8.765625 -10.6875 C 8.410156 -9.21875 7.6875 -7.910156 6.59375 -6.765625 Z M 3.859375 -9.34375 C 4.785156 -10.320312 5.195312 -11.410156 5.09375 -12.609375 C 5 -13.816406 4.414062 -14.921875 3.34375 -15.921875 C 2.257812 -16.941406 1.117188 -17.460938 -0.078125 -17.484375 C -1.285156 -17.503906 -2.351562 -17.023438 -3.28125 -16.046875 C -4.207031 -15.054688 -4.625 -13.960938 -4.53125 -12.765625 C -4.4375 -11.578125 -3.84375 -10.460938 -2.75 -9.421875 C -1.664062 -8.398438 -0.523438 -7.882812 0.671875 -7.875 C 1.867188 -7.863281 2.929688 -8.351562 3.859375 -9.34375 Z M 3.859375 -9.34375 "/></g></g></g><g fill="#11663a" fill-opacity="1"><g transform="translate(107.906949, 90.318507)"><g><path d="M -6.78125 -16.40625 L 4.234375 -3.65625 L 1.125 -0.96875 L -9.890625 -13.71875 Z M -6.78125 -16.40625 "/></g></g></g><g fill="#11663a" fill-opacity="1"><g transform="translate(112.522558, 85.918788)"><g><path d="M 13.546875 -9.515625 L 10.1875 -7.15625 L -1.390625 -11.71875 L 4.578125 -3.21875 L 1.21875 -0.859375 L -8.46875 -14.640625 L -5.109375 -17 L 6.5 -12.390625 L 0.5 -20.9375 L 3.859375 -23.296875 Z M 13.546875 -9.515625 "/></g></g></g><g fill="#11663a" fill-opacity="1"><g transform="translate(126.883931, 76.15226)"><g/></g></g><g fill="#11663a" fill-opacity="1"><g transform="translate(130.721144, 73.726461)"><g><path d="M 5.0625 -21.0625 L 6.46875 -18.09375 L 2.421875 -16.171875 L 8.25 -3.921875 L 4.5625 -2.171875 L -1.265625 -14.421875 L -5.3125 -12.5 L -6.71875 -15.46875 Z M 5.0625 -21.0625 "/></g></g></g><g fill="#11663a" fill-opacity="1"><g transform="translate(142.649855, 67.877678)"><g><path d="M 10.03125 -21.015625 L 15.28125 -5.015625 L 11.375 -3.734375 L 9.21875 -10.328125 L 3.15625 -8.34375 L 5.3125 -1.75 L 1.40625 -0.46875 L -3.84375 -16.46875 L 0.0625 -17.75 L 2.109375 -11.484375 L 8.171875 -13.46875 L 6.125 -19.734375 Z M 10.03125 -21.015625 "/></g></g></g><g fill="#11663a" fill-opacity="1"><g transform="translate(158.507226, 62.760856)"><g><path d="M 2.84375 -14.390625 L 3.515625 -11.0625 L 8.90625 -12.125 L 9.515625 -9 L 4.125 -7.9375 L 4.84375 -4.3125 L 10.953125 -5.515625 L 11.59375 -2.296875 L 1.453125 -0.28125 L -1.8125 -16.796875 L 8.328125 -18.8125 L 8.953125 -15.59375 Z M 2.84375 -14.390625 "/></g></g></g><g fill="#11663a" fill-opacity="1"><g transform="translate(170.747668, 60.463115)"><g/></g></g><g fill="#11663a" fill-opacity="1"><g transform="translate(174.985909, 59.433702)"><g><path d="M 20.296875 -17.15625 L 20.5625 -0.3125 L 16.46875 -0.25 L 16.3125 -10.359375 L 12.703125 -0.203125 L 9.390625 -0.140625 L 5.4375 -10.21875 L 5.59375 -0.09375 L 1.484375 -0.015625 L 1.21875 -16.859375 L 6.078125 -16.9375 L 10.984375 -5.359375 L 15.484375 -17.09375 Z M 20.296875 -17.15625 "/></g></g></g><g fill="#11663a" fill-opacity="1"><g transform="translate(195.85751, 59.146731)"><g><path d="M 9.3125 1.5625 C 7.75 1.332031 6.367188 0.753906 5.171875 -0.171875 C 3.984375 -1.109375 3.097656 -2.285156 2.515625 -3.703125 C 1.941406 -5.117188 1.78125 -6.640625 2.03125 -8.265625 C 2.269531 -9.890625 2.867188 -11.296875 3.828125 -12.484375 C 4.796875 -13.671875 5.984375 -14.53125 7.390625 -15.0625 C 8.804688 -15.59375 10.296875 -15.742188 11.859375 -15.515625 C 13.429688 -15.285156 14.816406 -14.707031 16.015625 -13.78125 C 17.210938 -12.851562 18.085938 -11.679688 18.640625 -10.265625 C 19.203125 -8.859375 19.363281 -7.34375 19.125 -5.71875 C 18.875 -4.09375 18.269531 -2.6875 17.3125 -1.5 C 16.363281 -0.3125 15.1875 0.550781 13.78125 1.09375 C 12.375 1.632812 10.882812 1.789062 9.3125 1.5625 Z M 9.875 -2.15625 C 11.207031 -1.957031 12.335938 -2.238281 13.265625 -3 C 14.191406 -3.769531 14.765625 -4.878906 14.984375 -6.328125 C 15.203125 -7.804688 14.976562 -9.046875 14.3125 -10.046875 C 13.644531 -11.046875 12.644531 -11.644531 11.3125 -11.84375 C 9.976562 -12.039062 8.84375 -11.765625 7.90625 -11.015625 C 6.976562 -10.265625 6.40625 -9.140625 6.1875 -7.640625 C 5.96875 -6.171875 6.191406 -4.9375 6.859375 -3.9375 C 7.535156 -2.945312 8.539062 -2.351562 9.875 -2.15625 Z M 9.875 -2.15625 "/></g></g></g><g fill="#11663a" fill-opacity="1"><g transform="translate(213.497622, 61.740974)"><g><path d="M 21.421875 -11.140625 L 10.84375 3.265625 L 5.921875 1.78125 L 5.0625 -16.0625 L 9.25 -14.796875 L 9.578125 -1.421875 L 17.265625 -12.390625 Z M 21.421875 -11.140625 "/></g></g></g><g fill="#11663a" fill-opacity="1"><g transform="translate(229.404765, 66.622046)"><g><path d="M 10.578125 -10.171875 L 9.21875 -7.046875 L 14.25 -4.828125 L 12.96875 -1.921875 L 7.9375 -4.140625 L 6.4375 -0.75 L 12.125 1.75 L 10.8125 4.75 L 1.359375 0.59375 L 8.140625 -14.828125 L 17.59375 -10.671875 L 16.265625 -7.671875 Z M 10.578125 -10.171875 "/></g></g></g><g fill="#11663a" fill-opacity="1"><g transform="translate(240.556379, 71.100879)"><g><path d="M 26.34375 -3.515625 L 17.484375 10.8125 L 14.015625 8.65625 L 19.328125 0.0625 L 10.8125 6.671875 L 7.984375 4.9375 L 10.09375 -5.671875 L 4.765625 2.9375 L 1.265625 0.78125 L 10.125 -13.546875 L 14.25 -11 L 12.140625 1.40625 L 22.25 -6.046875 Z M 26.34375 -3.515625 "/></g></g></g><g fill="#11663a" fill-opacity="1"><g transform="translate(258.302713, 82.362225)"><g><path d="M 12.96875 -6.859375 L 10.78125 -4.234375 L 15.015625 -0.71875 L 13 1.71875 L 8.765625 -1.796875 L 6.390625 1.046875 L 11.1875 5.015625 L 9.09375 7.546875 L 1.140625 0.953125 L 11.90625 -12 L 19.859375 -5.40625 L 17.765625 -2.890625 Z M 12.96875 -6.859375 "/></g></g></g><g fill="#11663a" fill-opacity="1"><g transform="translate(267.751511, 89.932102)"><g><path d="M 11.34375 12.078125 L 8.53125 9.078125 L 11.40625 -3.03125 L 3.828125 4.078125 L 1.015625 1.078125 L 13.296875 -10.453125 L 16.109375 -7.453125 L 13.203125 4.6875 L 20.8125 -2.453125 L 23.625 0.546875 Z M 11.34375 12.078125 "/></g></g></g><g fill="#11663a" fill-opacity="1"><g transform="translate(279.423368, 102.457842)"><g><path d="M 21.625 1.171875 L 18.96875 3.09375 L 16.359375 -0.53125 L 5.359375 7.40625 L 2.953125 4.09375 L 13.953125 -3.84375 L 11.34375 -7.46875 L 14 -9.390625 Z M 21.625 1.171875 "/></g></g></g><g fill="#11663a" fill-opacity="1"><g transform="translate(124.148434, 318.816658)"><g><path d="M 9.25 -7.921875 C 8.957031 -8.472656 8.554688 -8.890625 8.046875 -9.171875 C 7.535156 -9.453125 6.941406 -9.59375 6.265625 -9.59375 C 5.535156 -9.59375 4.878906 -9.425781 4.296875 -9.09375 C 3.722656 -8.769531 3.273438 -8.300781 2.953125 -7.6875 C 2.628906 -7.082031 2.46875 -6.378906 2.46875 -5.578125 C 2.46875 -4.785156 2.628906 -4.082031 2.953125 -3.46875 C 3.273438 -2.851562 3.722656 -2.378906 4.296875 -2.046875 C 4.878906 -1.710938 5.535156 -1.546875 6.265625 -1.546875 C 7.265625 -1.546875 8.070312 -1.820312 8.6875 -2.375 C 9.300781 -2.9375 9.679688 -3.691406 9.828125 -4.640625 L 5.640625 -4.640625 L 5.640625 -6.09375 L 11.78125 -6.09375 L 11.78125 -4.671875 C 11.65625 -3.804688 11.34375 -3.007812 10.84375 -2.28125 C 10.351562 -1.5625 9.710938 -0.984375 8.921875 -0.546875 C 8.128906 -0.117188 7.242188 0.09375 6.265625 0.09375 C 5.222656 0.09375 4.269531 -0.144531 3.40625 -0.625 C 2.539062 -1.113281 1.851562 -1.789062 1.34375 -2.65625 C 0.84375 -3.519531 0.59375 -4.492188 0.59375 -5.578125 C 0.59375 -6.671875 0.84375 -7.648438 1.34375 -8.515625 C 1.851562 -9.378906 2.539062 -10.050781 3.40625 -10.53125 C 4.28125 -11.019531 5.234375 -11.265625 6.265625 -11.265625 C 7.453125 -11.265625 8.503906 -10.972656 9.421875 -10.390625 C 10.347656 -9.804688 11.019531 -8.984375 11.4375 -7.921875 Z M 9.25 -7.921875 "/></g></g></g><g fill="#11663a" fill-opacity="1"><g transform="translate(136.513465, 318.816658)"><g><path d="M 3.03125 -9.640625 L 3.03125 -6.390625 L 6.859375 -6.390625 L 6.859375 -4.890625 L 3.03125 -4.890625 L 3.03125 -1.484375 L 7.34375 -1.484375 L 7.34375 0 L 1.203125 0 L 1.203125 -11.140625 L 7.34375 -11.140625 L 7.34375 -9.640625 Z M 3.03125 -9.640625 "/></g></g></g><g fill="#11663a" fill-opacity="1"><g transform="translate(144.895449, 318.816658)"><g><path d="M 8.390625 -11.125 L 8.390625 -9.625 L 5.421875 -9.625 L 5.421875 0 L 3.59375 0 L 3.59375 -9.625 L 0.625 -9.625 L 0.625 -11.125 Z M 8.390625 -11.125 "/></g></g></g><g fill="#11663a" fill-opacity="1"><g transform="translate(153.917284, 318.816658)"><g/></g></g><g fill="#11663a" fill-opacity="1"><g transform="translate(158.076284, 318.816658)"><g><path d="M 4.859375 0.109375 C 4.117188 0.109375 3.445312 -0.0195312 2.84375 -0.28125 C 2.25 -0.539062 1.78125 -0.910156 1.4375 -1.390625 C 1.09375 -1.867188 0.921875 -2.429688 0.921875 -3.078125 L 2.875 -3.078125 C 2.914062 -2.597656 3.101562 -2.203125 3.4375 -1.890625 C 3.78125 -1.578125 4.253906 -1.421875 4.859375 -1.421875 C 5.492188 -1.421875 5.984375 -1.570312 6.328125 -1.875 C 6.679688 -2.1875 6.859375 -2.582031 6.859375 -3.0625 C 6.859375 -3.425781 6.75 -3.722656 6.53125 -3.953125 C 6.3125 -4.191406 6.039062 -4.375 5.71875 -4.5 C 5.394531 -4.632812 4.945312 -4.773438 4.375 -4.921875 C 3.644531 -5.117188 3.050781 -5.316406 2.59375 -5.515625 C 2.144531 -5.710938 1.757812 -6.019531 1.4375 -6.4375 C 1.113281 -6.851562 0.953125 -7.40625 0.953125 -8.09375 C 0.953125 -8.738281 1.113281 -9.300781 1.4375 -9.78125 C 1.757812 -10.257812 2.207031 -10.625 2.78125 -10.875 C 3.351562 -11.132812 4.019531 -11.265625 4.78125 -11.265625 C 5.863281 -11.265625 6.75 -10.992188 7.4375 -10.453125 C 8.125 -9.910156 8.503906 -9.171875 8.578125 -8.234375 L 6.5625 -8.234375 C 6.53125 -8.640625 6.335938 -8.988281 5.984375 -9.28125 C 5.628906 -9.570312 5.164062 -9.71875 4.59375 -9.71875 C 4.070312 -9.71875 3.644531 -9.582031 3.3125 -9.3125 C 2.976562 -9.039062 2.8125 -8.65625 2.8125 -8.15625 C 2.8125 -7.8125 2.914062 -7.53125 3.125 -7.3125 C 3.332031 -7.09375 3.597656 -6.921875 3.921875 -6.796875 C 4.242188 -6.671875 4.679688 -6.535156 5.234375 -6.390625 C 5.972656 -6.179688 6.570312 -5.972656 7.03125 -5.765625 C 7.5 -5.566406 7.894531 -5.253906 8.21875 -4.828125 C 8.539062 -4.410156 8.703125 -3.851562 8.703125 -3.15625 C 8.703125 -2.582031 8.550781 -2.046875 8.25 -1.546875 C 7.945312 -1.046875 7.503906 -0.644531 6.921875 -0.34375 C 6.335938 -0.0390625 5.648438 0.109375 4.859375 0.109375 Z M 4.859375 0.109375 "/></g></g></g><g fill="#11663a" fill-opacity="1"><g transform="translate(167.737958, 318.816658)"><g><path d="M 8.390625 -11.125 L 8.390625 -9.625 L 5.421875 -9.625 L 5.421875 0 L 3.59375 0 L 3.59375 -9.625 L 0.625 -9.625 L 0.625 -11.125 Z M 8.390625 -11.125 "/></g></g></g><g fill="#11663a" fill-opacity="1"><g transform="translate(176.759793, 318.816658)"><g><path d="M 7.90625 -2.265625 L 3.25 -2.265625 L 2.453125 0 L 0.546875 0 L 4.53125 -11.140625 L 6.640625 -11.140625 L 10.625 0 L 8.703125 0 Z M 7.390625 -3.765625 L 5.578125 -8.921875 L 3.765625 -3.765625 Z M 7.390625 -3.765625 "/></g></g></g><g fill="#11663a" fill-opacity="1"><g transform="translate(187.909119, 318.816658)"><g><path d="M 6.96875 0 L 4.421875 -4.453125 L 3.03125 -4.453125 L 3.03125 0 L 1.203125 0 L 1.203125 -11.125 L 5.046875 -11.125 C 5.890625 -11.125 6.609375 -10.972656 7.203125 -10.671875 C 7.796875 -10.367188 8.238281 -9.96875 8.53125 -9.46875 C 8.820312 -8.96875 8.96875 -8.410156 8.96875 -7.796875 C 8.96875 -7.066406 8.757812 -6.40625 8.34375 -5.8125 C 7.925781 -5.21875 7.28125 -4.816406 6.40625 -4.609375 L 9.15625 0 Z M 3.03125 -5.90625 L 5.046875 -5.90625 C 5.722656 -5.90625 6.234375 -6.070312 6.578125 -6.40625 C 6.929688 -6.75 7.109375 -7.210938 7.109375 -7.796875 C 7.109375 -8.367188 6.9375 -8.816406 6.59375 -9.140625 C 6.25 -9.460938 5.734375 -9.625 5.046875 -9.625 L 3.03125 -9.625 Z M 3.03125 -5.90625 "/></g></g></g><g fill="#11663a" fill-opacity="1"><g transform="translate(198.018691, 318.816658)"><g><path d="M 8.390625 -11.125 L 8.390625 -9.625 L 5.421875 -9.625 L 5.421875 0 L 3.59375 0 L 3.59375 -9.625 L 0.625 -9.625 L 0.625 -11.125 Z M 8.390625 -11.125 "/></g></g></g><g fill="#11663a" fill-opacity="1"><g transform="translate(207.040526, 318.816658)"><g><path d="M 3.03125 -9.640625 L 3.03125 -6.390625 L 6.859375 -6.390625 L 6.859375 -4.890625 L 3.03125 -4.890625 L 3.03125 -1.484375 L 7.34375 -1.484375 L 7.34375 0 L 1.203125 0 L 1.203125 -11.140625 L 7.34375 -11.140625 L 7.34375 -9.640625 Z M 3.03125 -9.640625 "/></g></g></g><g fill="#11663a" fill-opacity="1"><g transform="translate(215.42251, 318.816658)"><g><path d="M 4.828125 -11.125 C 6.015625 -11.125 7.050781 -10.894531 7.9375 -10.4375 C 8.832031 -9.988281 9.519531 -9.335938 10 -8.484375 C 10.488281 -7.640625 10.734375 -6.648438 10.734375 -5.515625 C 10.734375 -4.390625 10.488281 -3.410156 10 -2.578125 C 9.519531 -1.742188 8.832031 -1.101562 7.9375 -0.65625 C 7.050781 -0.21875 6.015625 0 4.828125 0 L 1.203125 0 L 1.203125 -11.125 Z M 4.828125 -1.484375 C 6.128906 -1.484375 7.125 -1.832031 7.8125 -2.53125 C 8.507812 -3.238281 8.859375 -4.234375 8.859375 -5.515625 C 8.859375 -6.804688 8.507812 -7.8125 7.8125 -8.53125 C 7.125 -9.257812 6.128906 -9.625 4.828125 -9.625 L 3.03125 -9.625 L 3.03125 -1.484375 Z M 4.828125 -1.484375 "/></g></g></g><g fill="#11663a" fill-opacity="1"><g transform="translate(226.763787, 318.816658)"><g/></g></g><g fill="#11663a" fill-opacity="1"><g transform="translate(230.922788, 318.816658)"><g><path d="M 3.03125 -11.125 L 3.03125 0 L 1.203125 0 L 1.203125 -11.125 Z M 3.03125 -11.125 "/></g></g></g><g fill="#11663a" fill-opacity="1"><g transform="translate(235.145772, 318.816658)"><g><path d="M 10.34375 0 L 8.515625 0 L 3.03125 -8.296875 L 3.03125 0 L 1.203125 0 L 1.203125 -11.140625 L 3.03125 -11.140625 L 8.515625 -2.84375 L 8.515625 -11.140625 L 10.34375 -11.140625 Z M 10.34375 0 "/></g></g></g><g fill="#11663a" fill-opacity="1"><g transform="translate(246.679676, 318.816658)"><g/></g></g><g fill="#11663a" fill-opacity="1"><g transform="translate(107.636716, 340.566657)"><g><path d="M 3.03125 -1.46875 L 6.78125 -1.46875 L 6.78125 0 L 1.203125 0 L 1.203125 -11.125 L 3.03125 -11.125 Z M 3.03125 -1.46875 "/></g></g></g><g fill="#11663a" fill-opacity="1"><g transform="translate(114.739011, 340.566657)"><g><path d="M 3.03125 -9.640625 L 3.03125 -6.390625 L 6.859375 -6.390625 L 6.859375 -4.890625 L 3.03125 -4.890625 L 3.03125 -1.484375 L 7.34375 -1.484375 L 7.34375 0 L 1.203125 0 L 1.203125 -11.140625 L 7.34375 -11.140625 L 7.34375 -9.640625 Z M 3.03125 -9.640625 "/></g></g></g><g fill="#11663a" fill-opacity="1"><g transform="translate(123.120995, 340.566657)"><g><path d="M 4.859375 0.109375 C 4.117188 0.109375 3.445312 -0.0195312 2.84375 -0.28125 C 2.25 -0.539062 1.78125 -0.910156 1.4375 -1.390625 C 1.09375 -1.867188 0.921875 -2.429688 0.921875 -3.078125 L 2.875 -3.078125 C 2.914062 -2.597656 3.101562 -2.203125 3.4375 -1.890625 C 3.78125 -1.578125 4.253906 -1.421875 4.859375 -1.421875 C 5.492188 -1.421875 5.984375 -1.570312 6.328125 -1.875 C 6.679688 -2.1875 6.859375 -2.582031 6.859375 -3.0625 C 6.859375 -3.425781 6.75 -3.722656 6.53125 -3.953125 C 6.3125 -4.191406 6.039062 -4.375 5.71875 -4.5 C 5.394531 -4.632812 4.945312 -4.773438 4.375 -4.921875 C 3.644531 -5.117188 3.050781 -5.316406 2.59375 -5.515625 C 2.144531 -5.710938 1.757812 -6.019531 1.4375 -6.4375 C 1.113281 -6.851562 0.953125 -7.40625 0.953125 -8.09375 C 0.953125 -8.738281 1.113281 -9.300781 1.4375 -9.78125 C 1.757812 -10.257812 2.207031 -10.625 2.78125 -10.875 C 3.351562 -11.132812 4.019531 -11.265625 4.78125 -11.265625 C 5.863281 -11.265625 6.75 -10.992188 7.4375 -10.453125 C 8.125 -9.910156 8.503906 -9.171875 8.578125 -8.234375 L 6.5625 -8.234375 C 6.53125 -8.640625 6.335938 -8.988281 5.984375 -9.28125 C 5.628906 -9.570312 5.164062 -9.71875 4.59375 -9.71875 C 4.070312 -9.71875 3.644531 -9.582031 3.3125 -9.3125 C 2.976562 -9.039062 2.8125 -8.65625 2.8125 -8.15625 C 2.8125 -7.8125 2.914062 -7.53125 3.125 -7.3125 C 3.332031 -7.09375 3.597656 -6.921875 3.921875 -6.796875 C 4.242188 -6.671875 4.679688 -6.535156 5.234375 -6.390625 C 5.972656 -6.179688 6.570312 -5.972656 7.03125 -5.765625 C 7.5 -5.566406 7.894531 -5.253906 8.21875 -4.828125 C 8.539062 -4.410156 8.703125 -3.851562 8.703125 -3.15625 C 8.703125 -2.582031 8.550781 -2.046875 8.25 -1.546875 C 7.945312 -1.046875 7.503906 -0.644531 6.921875 -0.34375 C 6.335938 -0.0390625 5.648438 0.109375 4.859375 0.109375 Z M 4.859375 0.109375 "/></g></g></g><g fill="#11663a" fill-opacity="1"><g transform="translate(132.782669, 340.566657)"><g><path d="M 4.859375 0.109375 C 4.117188 0.109375 3.445312 -0.0195312 2.84375 -0.28125 C 2.25 -0.539062 1.78125 -0.910156 1.4375 -1.390625 C 1.09375 -1.867188 0.921875 -2.429688 0.921875 -3.078125 L 2.875 -3.078125 C 2.914062 -2.597656 3.101562 -2.203125 3.4375 -1.890625 C 3.78125 -1.578125 4.253906 -1.421875 4.859375 -1.421875 C 5.492188 -1.421875 5.984375 -1.570312 6.328125 -1.875 C 6.679688 -2.1875 6.859375 -2.582031 6.859375 -3.0625 C 6.859375 -3.425781 6.75 -3.722656 6.53125 -3.953125 C 6.3125 -4.191406 6.039062 -4.375 5.71875 -4.5 C 5.394531 -4.632812 4.945312 -4.773438 4.375 -4.921875 C 3.644531 -5.117188 3.050781 -5.316406 2.59375 -5.515625 C 2.144531 -5.710938 1.757812 -6.019531 1.4375 -6.4375 C 1.113281 -6.851562 0.953125 -7.40625 0.953125 -8.09375 C 0.953125 -8.738281 1.113281 -9.300781 1.4375 -9.78125 C 1.757812 -10.257812 2.207031 -10.625 2.78125 -10.875 C 3.351562 -11.132812 4.019531 -11.265625 4.78125 -11.265625 C 5.863281 -11.265625 6.75 -10.992188 7.4375 -10.453125 C 8.125 -9.910156 8.503906 -9.171875 8.578125 -8.234375 L 6.5625 -8.234375 C 6.53125 -8.640625 6.335938 -8.988281 5.984375 -9.28125 C 5.628906 -9.570312 5.164062 -9.71875 4.59375 -9.71875 C 4.070312 -9.71875 3.644531 -9.582031 3.3125 -9.3125 C 2.976562 -9.039062 2.8125 -8.65625 2.8125 -8.15625 C 2.8125 -7.8125 2.914062 -7.53125 3.125 -7.3125 C 3.332031 -7.09375 3.597656 -6.921875 3.921875 -6.796875 C 4.242188 -6.671875 4.679688 -6.535156 5.234375 -6.390625 C 5.972656 -6.179688 6.570312 -5.972656 7.03125 -5.765625 C 7.5 -5.566406 7.894531 -5.253906 8.21875 -4.828125 C 8.539062 -4.410156 8.703125 -3.851562 8.703125 -3.15625 C 8.703125 -2.582031 8.550781 -2.046875 8.25 -1.546875 C 7.945312 -1.046875 7.503906 -0.644531 6.921875 -0.34375 C 6.335938 -0.0390625 5.648438 0.109375 4.859375 0.109375 Z M 4.859375 0.109375 "/></g></g></g><g fill="#11663a" fill-opacity="1"><g transform="translate(142.444343, 340.566657)"><g/></g></g><g fill="#11663a" fill-opacity="1"><g transform="translate(146.603343, 340.566657)"><g><path d="M 8.390625 -11.125 L 8.390625 -9.625 L 5.421875 -9.625 L 5.421875 0 L 3.59375 0 L 3.59375 -9.625 L 0.625 -9.625 L 0.625 -11.125 Z M 8.390625 -11.125 "/></g></g></g><g fill="#11663a" fill-opacity="1"><g transform="translate(155.625178, 340.566657)"><g><path d="M 10.078125 -11.125 L 10.078125 0 L 8.25 0 L 8.25 -4.859375 L 3.03125 -4.859375 L 3.03125 0 L 1.203125 0 L 1.203125 -11.125 L 3.03125 -11.125 L 3.03125 -6.359375 L 8.25 -6.359375 L 8.25 -11.125 Z M 10.078125 -11.125 "/></g></g></g><g fill="#11663a" fill-opacity="1"><g transform="translate(166.902471, 340.566657)"><g><path d="M 7.90625 -2.265625 L 3.25 -2.265625 L 2.453125 0 L 0.546875 0 L 4.53125 -11.140625 L 6.640625 -11.140625 L 10.625 0 L 8.703125 0 Z M 7.390625 -3.765625 L 5.578125 -8.921875 L 3.765625 -3.765625 Z M 7.390625 -3.765625 "/></g></g></g><g fill="#11663a" fill-opacity="1"><g transform="translate(178.051796, 340.566657)"><g><path d="M 10.34375 0 L 8.515625 0 L 3.03125 -8.296875 L 3.03125 0 L 1.203125 0 L 1.203125 -11.140625 L 3.03125 -11.140625 L 8.515625 -2.84375 L 8.515625 -11.140625 L 10.34375 -11.140625 Z M 10.34375 0 "/></g></g></g><g fill="#11663a" fill-opacity="1"><g transform="translate(189.585026, 340.566657)"><g/></g></g><g fill="#11663a" fill-opacity="1"><g transform="translate(193.744026, 340.566657)"><g><path d="M 7.90625 -2.265625 L 3.25 -2.265625 L 2.453125 0 L 0.546875 0 L 4.53125 -11.140625 L 6.640625 -11.140625 L 10.625 0 L 8.703125 0 Z M 7.390625 -3.765625 L 5.578125 -8.921875 L 3.765625 -3.765625 Z M 7.390625 -3.765625 "/></g></g></g><g fill="#11663a" fill-opacity="1"><g transform="translate(204.893351, 340.566657)"><g/></g></g><g fill="#11663a" fill-opacity="1"><g transform="translate(209.052351, 340.566657)"><g><path d="M 12.90625 -11.125 L 12.90625 0 L 11.09375 0 L 11.09375 -7.609375 L 7.703125 0 L 6.4375 0 L 3.03125 -7.609375 L 3.03125 0 L 1.203125 0 L 1.203125 -11.125 L 3.171875 -11.125 L 7.078125 -2.40625 L 10.953125 -11.125 Z M 12.90625 -11.125 "/></g></g></g><g fill="#11663a" fill-opacity="1"><g transform="translate(223.160959, 340.566657)"><g><path d="M 3.03125 -11.125 L 3.03125 0 L 1.203125 0 L 1.203125 -11.125 Z M 3.03125 -11.125 "/></g></g></g><g fill="#11663a" fill-opacity="1"><g transform="translate(227.383943, 340.566657)"><g><path d="M 10.34375 0 L 8.515625 0 L 3.03125 -8.296875 L 3.03125 0 L 1.203125 0 L 1.203125 -11.140625 L 3.03125 -11.140625 L 8.515625 -2.84375 L 8.515625 -11.140625 L 10.34375 -11.140625 Z M 10.34375 0 "/></g></g></g><g fill="#11663a" fill-opacity="1"><g transform="translate(238.917172, 340.566657)"><g><path d="M 3.015625 -11.125 L 3.015625 -4.03125 C 3.015625 -3.1875 3.234375 -2.550781 3.671875 -2.125 C 4.117188 -1.695312 4.734375 -1.484375 5.515625 -1.484375 C 6.316406 -1.484375 6.9375 -1.695312 7.375 -2.125 C 7.820312 -2.550781 8.046875 -3.1875 8.046875 -4.03125 L 8.046875 -11.125 L 9.875 -11.125 L 9.875 -4.0625 C 9.875 -3.15625 9.675781 -2.382812 9.28125 -1.75 C 8.882812 -1.125 8.351562 -0.65625 7.6875 -0.34375 C 7.03125 -0.0390625 6.300781 0.109375 5.5 0.109375 C 4.695312 0.109375 3.96875 -0.0390625 3.3125 -0.34375 C 2.664062 -0.65625 2.148438 -1.125 1.765625 -1.75 C 1.378906 -2.382812 1.1875 -3.15625 1.1875 -4.0625 L 1.1875 -11.125 Z M 3.015625 -11.125 "/></g></g></g><g fill="#11663a" fill-opacity="1"><g transform="translate(249.954517, 340.566657)"><g><path d="M 8.390625 -11.125 L 8.390625 -9.625 L 5.421875 -9.625 L 5.421875 0 L 3.59375 0 L 3.59375 -9.625 L 0.625 -9.625 L 0.625 -11.125 Z M 8.390625 -11.125 "/></g></g></g><g fill="#11663a" fill-opacity="1"><g transform="translate(258.976352, 340.566657)"><g><path d="M 3.03125 -9.640625 L 3.03125 -6.390625 L 6.859375 -6.390625 L 6.859375 -4.890625 L 3.03125 -4.890625 L 3.03125 -1.484375 L 7.34375 -1.484375 L 7.34375 0 L 1.203125 0 L 1.203125 -11.140625 L 7.34375 -11.140625 L 7.34375 -9.640625 Z M 3.03125 -9.640625 "/></g></g></g><g clip-path="url(#7212f0098f)"><g clip-path="url(#285e85c25b)"><path fill="#a4c4a2" d="M 11.085938 11.203125 L 63.914062 11.203125 L 63.914062 64.027344 L 11.085938 64.027344 Z M 11.085938 11.203125 " fill-opacity="1" fill-rule="nonzero"/></g></g><g fill="#ffffff" fill-opacity="1"><g transform="translate(33.914789, 44.202133)"><g><path d="M 0.515625 -10.84375 L 0.515625 -13.875 L 5.78125 -13.875 L 5.78125 0 L 2.390625 0 L 2.390625 -10.84375 Z M 0.515625 -10.84375 "/></g></g></g></svg>