<svg xmlns="http://www.w3.org/2000/svg" xmlns:xlink="http://www.w3.org/1999/xlink" width="500" zoomAndPan="magnify" viewBox="0 0 375 374.999991" height="500" preserveAspectRatio="xMidYMid meet" version="1.0"><defs><g/><clipPath id="a62699547d"><path d="M 82.203125 74.925781 L 292.382812 74.925781 L 292.382812 285.105469 L 82.203125 285.105469 Z M 82.203125 74.925781 " clip-rule="nonzero"/></clipPath><clipPath id="b75deef00a"><path d="M 187.292969 74.925781 C 129.253906 74.925781 82.203125 121.976562 82.203125 180.015625 C 82.203125 238.054688 129.253906 285.105469 187.292969 285.105469 C 245.332031 285.105469 292.382812 238.054688 292.382812 180.015625 C 292.382812 121.976562 245.332031 74.925781 187.292969 74.925781 Z M 187.292969 74.925781 " clip-rule="nonzero"/></clipPath><clipPath id="9f8b4427bd"><path d="M 129.605469 222 L 215 222 L 215 241 L 129.605469 241 Z M 129.605469 222 " clip-rule="nonzero"/></clipPath><clipPath id="bf20a15eb8"><path d="M 132 118.417969 L 180 118.417969 L 180 166 L 132 166 Z M 132 118.417969 " clip-rule="nonzero"/></clipPath><clipPath id="309b338291"><path d="M 150 118.417969 L 242 118.417969 L 242 241 L 150 241 Z M 150 118.417969 " clip-rule="nonzero"/></clipPath><clipPath id="92df00a5dc"><path d="M 185.714844 122.582031 L 236.554688 122.582031 L 236.554688 161.304688 L 185.714844 161.304688 Z M 185.714844 122.582031 " clip-rule="nonzero"/></clipPath><clipPath id="5f7746e56d"><path d="M 195 127.800781 L 231.824219 127.800781 L 231.824219 153.402344 L 195 153.402344 Z M 195 127.800781 " clip-rule="nonzero"/></clipPath><clipPath id="944a6b57f8"><path d="M 11.085938 11.203125 L 63.914062 11.203125 L 63.914062 64.234375 L 11.085938 64.234375 Z M 11.085938 11.203125 " clip-rule="nonzero"/></clipPath><clipPath id="0fb4ed1c20"><path d="M 37.5 11.203125 C 22.914062 11.203125 11.085938 23.03125 11.085938 37.621094 C 11.085938 52.210938 22.914062 64.035156 37.5 64.035156 C 52.085938 64.035156 63.914062 52.210938 63.914062 37.621094 C 63.914062 23.03125 52.085938 11.203125 37.5 11.203125 Z M 37.5 11.203125 " clip-rule="nonzero"/></clipPath></defs><rect x="-37.5" width="450" fill="#ffffff" y="-37.499999" height="449.999989" fill-opacity="1"/><rect x="-37.5" width="450" fill="#ffffff" y="-37.499999" height="449.999989" fill-opacity="1"/><g clip-path="url(#a62699547d)"><g clip-path="url(#b75deef00a)"><path fill="#f0eee6" d="M 82.203125 74.925781 L 292.382812 74.925781 L 292.382812 285.105469 L 82.203125 285.105469 Z M 82.203125 74.925781 " fill-opacity="1" fill-rule="nonzero"/></g></g><g clip-path="url(#9f8b4427bd)"><path fill="#11663a" d="M 207.875 226.617188 C 207.875 224.816406 207.875 223.902344 207.875 222.707031 L 129.660156 222.707031 C 129.660156 232.769531 137.847656 240.957031 147.910156 240.957031 L 214.148438 240.957031 C 210.292969 237.382812 207.875 232.277344 207.875 226.617188 Z M 207.875 226.617188 " fill-opacity="1" fill-rule="nonzero"/></g><g clip-path="url(#bf20a15eb8)"><path fill="#11663a" d="M 155.730469 165.347656 C 168.671875 165.347656 179.195312 154.820312 179.195312 141.882812 C 179.195312 128.945312 168.671875 118.417969 155.730469 118.417969 C 142.792969 118.417969 132.265625 128.945312 132.265625 141.882812 C 132.265625 154.820312 142.792969 165.347656 155.730469 165.347656 Z M 155.730469 144.488281 C 151.417969 144.488281 147.910156 140.980469 147.910156 136.667969 C 147.910156 133.269531 150.089844 130.371094 153.125 129.292969 L 153.125 126.238281 C 153.125 124.800781 154.292969 123.632812 155.730469 123.632812 C 157.171875 123.632812 158.339844 124.800781 158.339844 126.238281 L 158.339844 128.847656 L 160.945312 128.847656 C 162.386719 128.847656 163.554688 130.011719 163.554688 131.453125 C 163.554688 132.894531 162.386719 134.058594 160.945312 134.058594 L 155.730469 134.058594 C 154.292969 134.058594 153.125 135.230469 153.125 136.667969 C 153.125 138.105469 154.292969 139.273438 155.730469 139.273438 C 160.042969 139.273438 163.554688 142.785156 163.554688 147.097656 C 163.554688 150.496094 161.375 153.394531 158.339844 154.46875 L 158.339844 157.523438 C 158.339844 158.964844 157.171875 160.132812 155.730469 160.132812 C 154.292969 160.132812 153.125 158.964844 153.125 157.523438 L 153.125 154.917969 L 150.519531 154.917969 C 149.078125 154.917969 147.910156 153.75 147.910156 152.3125 C 147.910156 150.871094 149.078125 149.703125 150.519531 149.703125 L 155.730469 149.703125 C 157.167969 149.703125 158.339844 148.535156 158.339844 147.097656 C 158.339844 145.660156 157.167969 144.488281 155.730469 144.488281 Z M 155.730469 144.488281 " fill-opacity="1" fill-rule="nonzero"/></g><path fill="#11663a" d="M 197.445312 131.453125 L 228.734375 131.453125 L 228.734375 139.273438 L 197.445312 139.273438 Z M 197.445312 131.453125 " fill-opacity="1" fill-rule="nonzero"/><g clip-path="url(#309b338291)"><path fill="#11663a" d="M 172.203125 118.417969 C 179.582031 123.613281 184.410156 132.191406 184.410156 141.882812 C 184.410156 159.746094 168.167969 173.339844 150.515625 170.085938 L 150.515625 217.492188 L 210.484375 217.492188 C 211.921875 217.492188 213.089844 218.65625 213.089844 220.097656 L 213.089844 226.351562 C 213.089844 233.980469 218.890625 240.265625 226.210938 240.898438 C 234.652344 241.613281 241.769531 234.847656 241.769531 226.617188 L 241.769531 118.417969 Z M 231.339844 209.667969 L 160.945312 209.667969 C 159.507812 209.667969 158.339844 208.503906 158.339844 207.0625 C 158.339844 205.621094 159.507812 204.453125 160.945312 204.453125 L 231.339844 204.453125 C 232.78125 204.453125 233.949219 205.621094 233.949219 207.0625 C 233.949219 208.503906 232.78125 209.667969 231.339844 209.667969 Z M 231.339844 196.632812 L 160.945312 196.632812 C 159.507812 196.632812 158.339844 195.464844 158.339844 194.027344 C 158.339844 192.585938 159.507812 191.417969 160.945312 191.417969 L 231.339844 191.417969 C 232.78125 191.417969 233.949219 192.585938 233.949219 194.027344 C 233.949219 195.464844 232.78125 196.632812 231.339844 196.632812 Z M 231.339844 183.597656 L 160.945312 183.597656 C 159.507812 183.597656 158.339844 182.429688 158.339844 180.992188 C 158.339844 179.550781 159.507812 178.382812 160.945312 178.382812 L 231.339844 178.382812 C 232.78125 178.382812 233.949219 179.550781 233.949219 180.992188 C 233.949219 182.429688 232.78125 183.597656 231.339844 183.597656 Z M 231.339844 170.5625 L 184.410156 170.5625 C 182.972656 170.5625 181.804688 169.394531 181.804688 167.953125 C 181.804688 166.515625 182.972656 165.347656 184.410156 165.347656 L 231.339844 165.347656 C 232.78125 165.347656 233.949219 166.515625 233.949219 167.953125 C 233.949219 169.394531 232.78125 170.5625 231.339844 170.5625 Z M 231.339844 157.523438 L 194.839844 157.523438 C 193.398438 157.523438 192.234375 156.359375 192.234375 154.917969 C 192.234375 153.476562 193.398438 152.3125 194.839844 152.3125 L 231.339844 152.3125 C 232.78125 152.3125 233.949219 153.476562 233.949219 154.917969 C 233.949219 156.359375 232.78125 157.523438 231.339844 157.523438 Z M 233.949219 141.882812 C 233.949219 143.320312 232.78125 144.488281 231.339844 144.488281 L 194.839844 144.488281 C 193.398438 144.488281 192.234375 143.320312 192.234375 141.882812 L 192.234375 128.847656 C 192.234375 127.40625 193.398438 126.238281 194.839844 126.238281 L 231.339844 126.238281 C 232.78125 126.238281 233.949219 127.40625 233.949219 128.847656 Z M 233.949219 141.882812 " fill-opacity="1" fill-rule="nonzero"/></g><g clip-path="url(#92df00a5dc)"><path fill="#11663a" d="M 185.714844 122.582031 L 236.539062 122.582031 L 236.539062 161.304688 L 185.714844 161.304688 Z M 185.714844 122.582031 " fill-opacity="1" fill-rule="nonzero"/></g><g clip-path="url(#5f7746e56d)"><path fill="#f0eee6" d="M 224.855469 138.832031 C 222.535156 134.910156 218.191406 132.339844 213.074219 132.339844 C 203.625 132.339844 196.886719 142.292969 201.101562 151.144531 L 197.058594 153.253906 C 190.730469 136.558594 204.195312 127.800781 213.652344 127.800781 C 219.492188 127.800781 226.429688 131.53125 229.5 138.082031 Z M 226.503906 143.449219 C 226.867188 145.785156 226.625 148.339844 225.636719 150.976562 L 229.597656 153.253906 C 231.230469 148.871094 231.4375 144.953125 230.691406 141.582031 Z M 231.25 139.203125 C 231.375 139.183594 231.460938 139.234375 231.5 139.351562 C 231.542969 139.472656 231.507812 139.5625 231.398438 139.625 C 227.65625 141.769531 215.132812 148.886719 213.808594 148.925781 C 213.332031 148.933594 212.875 148.855469 212.429688 148.683594 C 211.984375 148.511719 211.589844 148.265625 211.246094 147.9375 C 210.898438 147.609375 210.628906 147.226562 210.433594 146.792969 C 210.242188 146.355469 210.136719 145.902344 210.121094 145.425781 C 210.109375 144.949219 210.1875 144.488281 210.355469 144.042969 C 210.523438 143.597656 210.773438 143.203125 211.097656 142.855469 C 211.425781 142.507812 211.804688 142.238281 212.238281 142.039062 C 212.671875 141.84375 213.128906 141.738281 213.605469 141.722656 C 214.402344 141.699219 227.234375 139.800781 231.257812 139.203125 Z M 231.25 139.203125 " fill-opacity="1" fill-rule="nonzero"/></g><g clip-path="url(#944a6b57f8)"><g clip-path="url(#0fb4ed1c20)"><path fill="#a4c4a2" d="M 11.085938 11.203125 L 63.914062 11.203125 L 63.914062 64.027344 L 11.085938 64.027344 Z M 11.085938 11.203125 " fill-opacity="1" fill-rule="nonzero"/></g></g><g fill="#ffffff" fill-opacity="1"><g transform="translate(31.735102, 44.202126)"><g><path d="M 0.96875 -9.953125 C 1.019531 -11.304688 1.460938 -12.347656 2.296875 -13.078125 C 3.128906 -13.816406 4.265625 -14.1875 5.703125 -14.1875 C 6.648438 -14.1875 7.460938 -14.019531 8.140625 -13.6875 C 8.816406 -13.363281 9.328125 -12.914062 9.671875 -12.34375 C 10.023438 -11.78125 10.203125 -11.144531 10.203125 -10.4375 C 10.203125 -9.59375 9.992188 -8.90625 9.578125 -8.375 C 9.160156 -7.851562 8.671875 -7.5 8.109375 -7.3125 L 8.109375 -7.234375 C 8.835938 -6.992188 9.410156 -6.59375 9.828125 -6.03125 C 10.242188 -5.476562 10.453125 -4.765625 10.453125 -3.890625 C 10.453125 -3.109375 10.269531 -2.414062 9.90625 -1.8125 C 9.539062 -1.207031 9.015625 -0.734375 8.328125 -0.390625 C 7.640625 -0.0546875 6.820312 0.109375 5.875 0.109375 C 4.351562 0.109375 3.140625 -0.257812 2.234375 -1 C 1.328125 -1.75 0.847656 -2.878906 0.796875 -4.390625 L 3.953125 -4.390625 C 3.960938 -3.828125 4.117188 -3.382812 4.421875 -3.0625 C 4.734375 -2.738281 5.175781 -2.578125 5.75 -2.578125 C 6.25 -2.578125 6.632812 -2.71875 6.90625 -3 C 7.175781 -3.289062 7.3125 -3.671875 7.3125 -4.140625 C 7.3125 -4.742188 7.117188 -5.179688 6.734375 -5.453125 C 6.347656 -5.734375 5.734375 -5.875 4.890625 -5.875 L 4.28125 -5.875 L 4.28125 -8.515625 L 4.890625 -8.515625 C 5.535156 -8.515625 6.054688 -8.625 6.453125 -8.84375 C 6.847656 -9.0625 7.046875 -9.457031 7.046875 -10.03125 C 7.046875 -10.488281 6.914062 -10.84375 6.65625 -11.09375 C 6.40625 -11.34375 6.0625 -11.46875 5.625 -11.46875 C 5.144531 -11.46875 4.785156 -11.320312 4.546875 -11.03125 C 4.316406 -10.75 4.179688 -10.390625 4.140625 -9.953125 Z M 0.96875 -9.953125 "/></g></g></g><g fill="#11663a" fill-opacity="1"><g transform="translate(56.63672, 318.816658)"><g><path d="M 6.96875 0 L 4.421875 -4.453125 L 3.03125 -4.453125 L 3.03125 0 L 1.203125 0 L 1.203125 -11.125 L 5.046875 -11.125 C 5.890625 -11.125 6.609375 -10.972656 7.203125 -10.671875 C 7.796875 -10.367188 8.238281 -9.96875 8.53125 -9.46875 C 8.820312 -8.96875 8.96875 -8.410156 8.96875 -7.796875 C 8.96875 -7.066406 8.757812 -6.40625 8.34375 -5.8125 C 7.925781 -5.21875 7.28125 -4.816406 6.40625 -4.609375 L 9.15625 0 Z M 3.03125 -5.90625 L 5.046875 -5.90625 C 5.722656 -5.90625 6.234375 -6.070312 6.578125 -6.40625 C 6.929688 -6.75 7.109375 -7.210938 7.109375 -7.796875 C 7.109375 -8.367188 6.9375 -8.816406 6.59375 -9.140625 C 6.25 -9.460938 5.734375 -9.625 5.046875 -9.625 L 3.03125 -9.625 Z M 3.03125 -5.90625 "/></g></g></g><g fill="#11663a" fill-opacity="1"><g transform="translate(66.746292, 318.816658)"><g><path d="M 3.03125 -9.640625 L 3.03125 -6.390625 L 6.859375 -6.390625 L 6.859375 -4.890625 L 3.03125 -4.890625 L 3.03125 -1.484375 L 7.34375 -1.484375 L 7.34375 0 L 1.203125 0 L 1.203125 -11.140625 L 7.34375 -11.140625 L 7.34375 -9.640625 Z M 3.03125 -9.640625 "/></g></g></g><g fill="#11663a" fill-opacity="1"><g transform="translate(75.128276, 318.816658)"><g><path d="M 10.78125 -11.125 L 6.609375 0 L 4.5 0 L 0.296875 -11.125 L 2.25 -11.125 L 5.546875 -1.875 L 8.859375 -11.125 Z M 10.78125 -11.125 "/></g></g></g><g fill="#11663a" fill-opacity="1"><g transform="translate(86.229606, 318.816658)"><g><path d="M 3.03125 -11.125 L 3.03125 0 L 1.203125 0 L 1.203125 -11.125 Z M 3.03125 -11.125 "/></g></g></g><g fill="#11663a" fill-opacity="1"><g transform="translate(90.45259, 318.816658)"><g><path d="M 3.03125 -9.640625 L 3.03125 -6.390625 L 6.859375 -6.390625 L 6.859375 -4.890625 L 3.03125 -4.890625 L 3.03125 -1.484375 L 7.34375 -1.484375 L 7.34375 0 L 1.203125 0 L 1.203125 -11.140625 L 7.34375 -11.140625 L 7.34375 -9.640625 Z M 3.03125 -9.640625 "/></g></g></g><g fill="#11663a" fill-opacity="1"><g transform="translate(98.834574, 318.816658)"><g><path d="M 15.6875 -11.125 L 12.390625 0 L 10.3125 0 L 7.984375 -8.421875 L 5.5 0 L 3.453125 0.015625 L 0.296875 -11.125 L 2.234375 -11.125 L 4.546875 -2.0625 L 7.046875 -11.125 L 9.09375 -11.125 L 11.40625 -2.109375 L 13.734375 -11.125 Z M 15.6875 -11.125 "/></g></g></g><g fill="#11663a" fill-opacity="1"><g transform="translate(114.814736, 318.816658)"><g/></g></g><g fill="#11663a" fill-opacity="1"><g transform="translate(118.973737, 318.816658)"><g><path d="M 8.390625 -11.125 L 8.390625 -9.625 L 5.421875 -9.625 L 5.421875 0 L 3.59375 0 L 3.59375 -9.625 L 0.625 -9.625 L 0.625 -11.125 Z M 8.390625 -11.125 "/></g></g></g><g fill="#11663a" fill-opacity="1"><g transform="translate(127.995571, 318.816658)"><g><path d="M 10.078125 -11.125 L 10.078125 0 L 8.25 0 L 8.25 -4.859375 L 3.03125 -4.859375 L 3.03125 0 L 1.203125 0 L 1.203125 -11.125 L 3.03125 -11.125 L 3.03125 -6.359375 L 8.25 -6.359375 L 8.25 -11.125 Z M 10.078125 -11.125 "/></g></g></g><g fill="#11663a" fill-opacity="1"><g transform="translate(139.272865, 318.816658)"><g><path d="M 3.03125 -9.640625 L 3.03125 -6.390625 L 6.859375 -6.390625 L 6.859375 -4.890625 L 3.03125 -4.890625 L 3.03125 -1.484375 L 7.34375 -1.484375 L 7.34375 0 L 1.203125 0 L 1.203125 -11.140625 L 7.34375 -11.140625 L 7.34375 -9.640625 Z M 3.03125 -9.640625 "/></g></g></g><g fill="#11663a" fill-opacity="1"><g transform="translate(147.654849, 318.816658)"><g/></g></g><g fill="#11663a" fill-opacity="1"><g transform="translate(151.813849, 318.816658)"><g><path d="M 10.34375 0 L 8.515625 0 L 3.03125 -8.296875 L 3.03125 0 L 1.203125 0 L 1.203125 -11.140625 L 3.03125 -11.140625 L 8.515625 -2.84375 L 8.515625 -11.140625 L 10.34375 -11.140625 Z M 10.34375 0 "/></g></g></g><g fill="#11663a" fill-opacity="1"><g transform="translate(163.347078, 318.816658)"><g><path d="M 3.015625 -11.125 L 3.015625 -4.03125 C 3.015625 -3.1875 3.234375 -2.550781 3.671875 -2.125 C 4.117188 -1.695312 4.734375 -1.484375 5.515625 -1.484375 C 6.316406 -1.484375 6.9375 -1.695312 7.375 -2.125 C 7.820312 -2.550781 8.046875 -3.1875 8.046875 -4.03125 L 8.046875 -11.125 L 9.875 -11.125 L 9.875 -4.0625 C 9.875 -3.15625 9.675781 -2.382812 9.28125 -1.75 C 8.882812 -1.125 8.351562 -0.65625 7.6875 -0.34375 C 7.03125 -0.0390625 6.300781 0.109375 5.5 0.109375 C 4.695312 0.109375 3.96875 -0.0390625 3.3125 -0.34375 C 2.664062 -0.65625 2.148438 -1.125 1.765625 -1.75 C 1.378906 -2.382812 1.1875 -3.15625 1.1875 -4.0625 L 1.1875 -11.125 Z M 3.015625 -11.125 "/></g></g></g><g fill="#11663a" fill-opacity="1"><g transform="translate(174.384423, 318.816658)"><g><path d="M 8.390625 -11.125 L 8.390625 -9.625 L 5.421875 -9.625 L 5.421875 0 L 3.59375 0 L 3.59375 -9.625 L 0.625 -9.625 L 0.625 -11.125 Z M 8.390625 -11.125 "/></g></g></g><g fill="#11663a" fill-opacity="1"><g transform="translate(183.406258, 318.816658)"><g><path d="M 6.96875 0 L 4.421875 -4.453125 L 3.03125 -4.453125 L 3.03125 0 L 1.203125 0 L 1.203125 -11.125 L 5.046875 -11.125 C 5.890625 -11.125 6.609375 -10.972656 7.203125 -10.671875 C 7.796875 -10.367188 8.238281 -9.96875 8.53125 -9.46875 C 8.820312 -8.96875 8.96875 -8.410156 8.96875 -7.796875 C 8.96875 -7.066406 8.757812 -6.40625 8.34375 -5.8125 C 7.925781 -5.21875 7.28125 -4.816406 6.40625 -4.609375 L 9.15625 0 Z M 3.03125 -5.90625 L 5.046875 -5.90625 C 5.722656 -5.90625 6.234375 -6.070312 6.578125 -6.40625 C 6.929688 -6.75 7.109375 -7.210938 7.109375 -7.796875 C 7.109375 -8.367188 6.9375 -8.816406 6.59375 -9.140625 C 6.25 -9.460938 5.734375 -9.625 5.046875 -9.625 L 3.03125 -9.625 Z M 3.03125 -5.90625 "/></g></g></g><g fill="#11663a" fill-opacity="1"><g transform="translate(193.515831, 318.816658)"><g><path d="M 3.03125 -11.125 L 3.03125 0 L 1.203125 0 L 1.203125 -11.125 Z M 3.03125 -11.125 "/></g></g></g><g fill="#11663a" fill-opacity="1"><g transform="translate(197.738815, 318.816658)"><g><path d="M 8.390625 -11.125 L 8.390625 -9.625 L 5.421875 -9.625 L 5.421875 0 L 3.59375 0 L 3.59375 -9.625 L 0.625 -9.625 L 0.625 -11.125 Z M 8.390625 -11.125 "/></g></g></g><g fill="#11663a" fill-opacity="1"><g transform="translate(206.76065, 318.816658)"><g><path d="M 3.03125 -11.125 L 3.03125 0 L 1.203125 0 L 1.203125 -11.125 Z M 3.03125 -11.125 "/></g></g></g><g fill="#11663a" fill-opacity="1"><g transform="translate(210.983634, 318.816658)"><g><path d="M 6.265625 0.109375 C 5.234375 0.109375 4.28125 -0.128906 3.40625 -0.609375 C 2.539062 -1.097656 1.851562 -1.773438 1.34375 -2.640625 C 0.84375 -3.515625 0.59375 -4.492188 0.59375 -5.578125 C 0.59375 -6.671875 0.84375 -7.648438 1.34375 -8.515625 C 1.851562 -9.378906 2.539062 -10.050781 3.40625 -10.53125 C 4.28125 -11.019531 5.234375 -11.265625 6.265625 -11.265625 C 7.316406 -11.265625 8.273438 -11.019531 9.140625 -10.53125 C 10.015625 -10.050781 10.703125 -9.378906 11.203125 -8.515625 C 11.703125 -7.648438 11.953125 -6.671875 11.953125 -5.578125 C 11.953125 -4.492188 11.703125 -3.515625 11.203125 -2.640625 C 10.703125 -1.773438 10.015625 -1.097656 9.140625 -0.609375 C 8.273438 -0.128906 7.316406 0.109375 6.265625 0.109375 Z M 6.265625 -1.46875 C 7.003906 -1.46875 7.660156 -1.632812 8.234375 -1.96875 C 8.816406 -2.3125 9.269531 -2.796875 9.59375 -3.421875 C 9.914062 -4.046875 10.078125 -4.765625 10.078125 -5.578125 C 10.078125 -6.398438 9.914062 -7.117188 9.59375 -7.734375 C 9.269531 -8.359375 8.816406 -8.832031 8.234375 -9.15625 C 7.660156 -9.488281 7.003906 -9.65625 6.265625 -9.65625 C 5.535156 -9.65625 4.878906 -9.488281 4.296875 -9.15625 C 3.722656 -8.832031 3.273438 -8.359375 2.953125 -7.734375 C 2.628906 -7.117188 2.46875 -6.398438 2.46875 -5.578125 C 2.46875 -4.765625 2.628906 -4.046875 2.953125 -3.421875 C 3.273438 -2.796875 3.722656 -2.3125 4.296875 -1.96875 C 4.878906 -1.632812 5.535156 -1.46875 6.265625 -1.46875 Z M 6.265625 -1.46875 "/></g></g></g><g fill="#11663a" fill-opacity="1"><g transform="translate(223.524618, 318.816658)"><g><path d="M 10.34375 0 L 8.515625 0 L 3.03125 -8.296875 L 3.03125 0 L 1.203125 0 L 1.203125 -11.140625 L 3.03125 -11.140625 L 8.515625 -2.84375 L 8.515625 -11.140625 L 10.34375 -11.140625 Z M 10.34375 0 "/></g></g></g><g fill="#11663a" fill-opacity="1"><g transform="translate(235.057847, 318.816658)"><g><path d="M 7.90625 -2.265625 L 3.25 -2.265625 L 2.453125 0 L 0.546875 0 L 4.53125 -11.140625 L 6.640625 -11.140625 L 10.625 0 L 8.703125 0 Z M 7.390625 -3.765625 L 5.578125 -8.921875 L 3.765625 -3.765625 Z M 7.390625 -3.765625 "/></g></g></g><g fill="#11663a" fill-opacity="1"><g transform="translate(246.207173, 318.816658)"><g><path d="M 3.03125 -1.46875 L 6.78125 -1.46875 L 6.78125 0 L 1.203125 0 L 1.203125 -11.125 L 3.03125 -11.125 Z M 3.03125 -1.46875 "/></g></g></g><g fill="#11663a" fill-opacity="1"><g transform="translate(253.309467, 318.816658)"><g/></g></g><g fill="#11663a" fill-opacity="1"><g transform="translate(257.468479, 318.816658)"><g><path d="M 4.828125 -11.125 C 6.015625 -11.125 7.050781 -10.894531 7.9375 -10.4375 C 8.832031 -9.988281 9.519531 -9.335938 10 -8.484375 C 10.488281 -7.640625 10.734375 -6.648438 10.734375 -5.515625 C 10.734375 -4.390625 10.488281 -3.410156 10 -2.578125 C 9.519531 -1.742188 8.832031 -1.101562 7.9375 -0.65625 C 7.050781 -0.21875 6.015625 0 4.828125 0 L 1.203125 0 L 1.203125 -11.125 Z M 4.828125 -1.484375 C 6.128906 -1.484375 7.125 -1.832031 7.8125 -2.53125 C 8.507812 -3.238281 8.859375 -4.234375 8.859375 -5.515625 C 8.859375 -6.804688 8.507812 -7.8125 7.8125 -8.53125 C 7.125 -9.257812 6.128906 -9.625 4.828125 -9.625 L 3.03125 -9.625 L 3.03125 -1.484375 Z M 4.828125 -1.484375 "/></g></g></g><g fill="#11663a" fill-opacity="1"><g transform="translate(268.809756, 318.816658)"><g><path d="M 3.03125 -9.640625 L 3.03125 -6.390625 L 6.859375 -6.390625 L 6.859375 -4.890625 L 3.03125 -4.890625 L 3.03125 -1.484375 L 7.34375 -1.484375 L 7.34375 0 L 1.203125 0 L 1.203125 -11.140625 L 7.34375 -11.140625 L 7.34375 -9.640625 Z M 3.03125 -9.640625 "/></g></g></g><g fill="#11663a" fill-opacity="1"><g transform="translate(277.191729, 318.816658)"><g><path d="M 8.390625 -11.125 L 8.390625 -9.625 L 5.421875 -9.625 L 5.421875 0 L 3.59375 0 L 3.59375 -9.625 L 0.625 -9.625 L 0.625 -11.125 Z M 8.390625 -11.125 "/></g></g></g><g fill="#11663a" fill-opacity="1"><g transform="translate(286.213564, 318.816658)"><g><path d="M 7.90625 -2.265625 L 3.25 -2.265625 L 2.453125 0 L 0.546875 0 L 4.53125 -11.140625 L 6.640625 -11.140625 L 10.625 0 L 8.703125 0 Z M 7.390625 -3.765625 L 5.578125 -8.921875 L 3.765625 -3.765625 Z M 7.390625 -3.765625 "/></g></g></g><g fill="#11663a" fill-opacity="1"><g transform="translate(297.362901, 318.816658)"><g><path d="M 3.03125 -11.125 L 3.03125 0 L 1.203125 0 L 1.203125 -11.125 Z M 3.03125 -11.125 "/></g></g></g><g fill="#11663a" fill-opacity="1"><g transform="translate(301.585885, 318.816658)"><g><path d="M 3.03125 -1.46875 L 6.78125 -1.46875 L 6.78125 0 L 1.203125 0 L 1.203125 -11.125 L 3.03125 -11.125 Z M 3.03125 -1.46875 "/></g></g></g><g fill="#11663a" fill-opacity="1"><g transform="translate(308.688179, 318.816658)"><g><path d="M 4.859375 0.109375 C 4.117188 0.109375 3.445312 -0.0195312 2.84375 -0.28125 C 2.25 -0.539062 1.78125 -0.910156 1.4375 -1.390625 C 1.09375 -1.867188 0.921875 -2.429688 0.921875 -3.078125 L 2.875 -3.078125 C 2.914062 -2.597656 3.101562 -2.203125 3.4375 -1.890625 C 3.78125 -1.578125 4.253906 -1.421875 4.859375 -1.421875 C 5.492188 -1.421875 5.984375 -1.570312 6.328125 -1.875 C 6.679688 -2.1875 6.859375 -2.582031 6.859375 -3.0625 C 6.859375 -3.425781 6.75 -3.722656 6.53125 -3.953125 C 6.3125 -4.191406 6.039062 -4.375 5.71875 -4.5 C 5.394531 -4.632812 4.945312 -4.773438 4.375 -4.921875 C 3.644531 -5.117188 3.050781 -5.316406 2.59375 -5.515625 C 2.144531 -5.710938 1.757812 -6.019531 1.4375 -6.4375 C 1.113281 -6.851562 0.953125 -7.40625 0.953125 -8.09375 C 0.953125 -8.738281 1.113281 -9.300781 1.4375 -9.78125 C 1.757812 -10.257812 2.207031 -10.625 2.78125 -10.875 C 3.351562 -11.132812 4.019531 -11.265625 4.78125 -11.265625 C 5.863281 -11.265625 6.75 -10.992188 7.4375 -10.453125 C 8.125 -9.910156 8.503906 -9.171875 8.578125 -8.234375 L 6.5625 -8.234375 C 6.53125 -8.640625 6.335938 -8.988281 5.984375 -9.28125 C 5.628906 -9.570312 5.164062 -9.71875 4.59375 -9.71875 C 4.070312 -9.71875 3.644531 -9.582031 3.3125 -9.3125 C 2.976562 -9.039062 2.8125 -8.65625 2.8125 -8.15625 C 2.8125 -7.8125 2.914062 -7.53125 3.125 -7.3125 C 3.332031 -7.09375 3.597656 -6.921875 3.921875 -6.796875 C 4.242188 -6.671875 4.679688 -6.535156 5.234375 -6.390625 C 5.972656 -6.179688 6.570312 -5.972656 7.03125 -5.765625 C 7.5 -5.566406 7.894531 -5.253906 8.21875 -4.828125 C 8.539062 -4.410156 8.703125 -3.851562 8.703125 -3.15625 C 8.703125 -2.582031 8.550781 -2.046875 8.25 -1.546875 C 7.945312 -1.046875 7.503906 -0.644531 6.921875 -0.34375 C 6.335938 -0.0390625 5.648438 0.109375 4.859375 0.109375 Z M 4.859375 0.109375 "/></g></g></g><g fill="#11663a" fill-opacity="1"><g transform="translate(57.667969, 340.566657)"><g><path d="M 7.90625 -2.265625 L 3.25 -2.265625 L 2.453125 0 L 0.546875 0 L 4.53125 -11.140625 L 6.640625 -11.140625 L 10.625 0 L 8.703125 0 Z M 7.390625 -3.765625 L 5.578125 -8.921875 L 3.765625 -3.765625 Z M 7.390625 -3.765625 "/></g></g></g><g fill="#11663a" fill-opacity="1"><g transform="translate(68.817295, 340.566657)"><g><path d="M 10.34375 0 L 8.515625 0 L 3.03125 -8.296875 L 3.03125 0 L 1.203125 0 L 1.203125 -11.140625 L 3.03125 -11.140625 L 8.515625 -2.84375 L 8.515625 -11.140625 L 10.34375 -11.140625 Z M 10.34375 0 "/></g></g></g><g fill="#11663a" fill-opacity="1"><g transform="translate(80.350524, 340.566657)"><g><path d="M 4.828125 -11.125 C 6.015625 -11.125 7.050781 -10.894531 7.9375 -10.4375 C 8.832031 -9.988281 9.519531 -9.335938 10 -8.484375 C 10.488281 -7.640625 10.734375 -6.648438 10.734375 -5.515625 C 10.734375 -4.390625 10.488281 -3.410156 10 -2.578125 C 9.519531 -1.742188 8.832031 -1.101562 7.9375 -0.65625 C 7.050781 -0.21875 6.015625 0 4.828125 0 L 1.203125 0 L 1.203125 -11.125 Z M 4.828125 -1.484375 C 6.128906 -1.484375 7.125 -1.832031 7.8125 -2.53125 C 8.507812 -3.238281 8.859375 -4.234375 8.859375 -5.515625 C 8.859375 -6.804688 8.507812 -7.8125 7.8125 -8.53125 C 7.125 -9.257812 6.128906 -9.625 4.828125 -9.625 L 3.03125 -9.625 L 3.03125 -1.484375 Z M 4.828125 -1.484375 "/></g></g></g><g fill="#11663a" fill-opacity="1"><g transform="translate(91.691801, 340.566657)"><g/></g></g><g fill="#11663a" fill-opacity="1"><g transform="translate(95.850802, 340.566657)"><g><path d="M 8.96875 -7.8125 C 8.96875 -7.238281 8.832031 -6.703125 8.5625 -6.203125 C 8.300781 -5.703125 7.878906 -5.296875 7.296875 -4.984375 C 6.710938 -4.671875 5.960938 -4.515625 5.046875 -4.515625 L 3.03125 -4.515625 L 3.03125 0 L 1.203125 0 L 1.203125 -11.125 L 5.046875 -11.125 C 5.890625 -11.125 6.609375 -10.972656 7.203125 -10.671875 C 7.796875 -10.378906 8.238281 -9.984375 8.53125 -9.484375 C 8.820312 -8.984375 8.96875 -8.425781 8.96875 -7.8125 Z M 5.046875 -6 C 5.734375 -6 6.25 -6.15625 6.59375 -6.46875 C 6.9375 -6.78125 7.109375 -7.226562 7.109375 -7.8125 C 7.109375 -9.019531 6.421875 -9.625 5.046875 -9.625 L 3.03125 -9.625 L 3.03125 -6 Z M 5.046875 -6 "/></g></g></g><g fill="#11663a" fill-opacity="1"><g transform="translate(105.36852, 340.566657)"><g><path d="M 6.96875 0 L 4.421875 -4.453125 L 3.03125 -4.453125 L 3.03125 0 L 1.203125 0 L 1.203125 -11.125 L 5.046875 -11.125 C 5.890625 -11.125 6.609375 -10.972656 7.203125 -10.671875 C 7.796875 -10.367188 8.238281 -9.96875 8.53125 -9.46875 C 8.820312 -8.96875 8.96875 -8.410156 8.96875 -7.796875 C 8.96875 -7.066406 8.757812 -6.40625 8.34375 -5.8125 C 7.925781 -5.21875 7.28125 -4.816406 6.40625 -4.609375 L 9.15625 0 Z M 3.03125 -5.90625 L 5.046875 -5.90625 C 5.722656 -5.90625 6.234375 -6.070312 6.578125 -6.40625 C 6.929688 -6.75 7.109375 -7.210938 7.109375 -7.796875 C 7.109375 -8.367188 6.9375 -8.816406 6.59375 -9.140625 C 6.25 -9.460938 5.734375 -9.625 5.046875 -9.625 L 3.03125 -9.625 Z M 3.03125 -5.90625 "/></g></g></g><g fill="#11663a" fill-opacity="1"><g transform="translate(115.478093, 340.566657)"><g><path d="M 6.265625 0.109375 C 5.234375 0.109375 4.28125 -0.128906 3.40625 -0.609375 C 2.539062 -1.097656 1.851562 -1.773438 1.34375 -2.640625 C 0.84375 -3.515625 0.59375 -4.492188 0.59375 -5.578125 C 0.59375 -6.671875 0.84375 -7.648438 1.34375 -8.515625 C 1.851562 -9.378906 2.539062 -10.050781 3.40625 -10.53125 C 4.28125 -11.019531 5.234375 -11.265625 6.265625 -11.265625 C 7.316406 -11.265625 8.273438 -11.019531 9.140625 -10.53125 C 10.015625 -10.050781 10.703125 -9.378906 11.203125 -8.515625 C 11.703125 -7.648438 11.953125 -6.671875 11.953125 -5.578125 C 11.953125 -4.492188 11.703125 -3.515625 11.203125 -2.640625 C 10.703125 -1.773438 10.015625 -1.097656 9.140625 -0.609375 C 8.273438 -0.128906 7.316406 0.109375 6.265625 0.109375 Z M 6.265625 -1.46875 C 7.003906 -1.46875 7.660156 -1.632812 8.234375 -1.96875 C 8.816406 -2.3125 9.269531 -2.796875 9.59375 -3.421875 C 9.914062 -4.046875 10.078125 -4.765625 10.078125 -5.578125 C 10.078125 -6.398438 9.914062 -7.117188 9.59375 -7.734375 C 9.269531 -8.359375 8.816406 -8.832031 8.234375 -9.15625 C 7.660156 -9.488281 7.003906 -9.65625 6.265625 -9.65625 C 5.535156 -9.65625 4.878906 -9.488281 4.296875 -9.15625 C 3.722656 -8.832031 3.273438 -8.359375 2.953125 -7.734375 C 2.628906 -7.117188 2.46875 -6.398438 2.46875 -5.578125 C 2.46875 -4.765625 2.628906 -4.046875 2.953125 -3.421875 C 3.273438 -2.796875 3.722656 -2.3125 4.296875 -1.96875 C 4.878906 -1.632812 5.535156 -1.46875 6.265625 -1.46875 Z M 6.265625 -1.46875 "/></g></g></g><g fill="#11663a" fill-opacity="1"><g transform="translate(128.019077, 340.566657)"><g><path d="M 0.59375 -5.578125 C 0.59375 -6.671875 0.84375 -7.648438 1.34375 -8.515625 C 1.851562 -9.378906 2.539062 -10.050781 3.40625 -10.53125 C 4.28125 -11.019531 5.234375 -11.265625 6.265625 -11.265625 C 7.453125 -11.265625 8.503906 -10.972656 9.421875 -10.390625 C 10.347656 -9.804688 11.019531 -8.984375 11.4375 -7.921875 L 9.25 -7.921875 C 8.957031 -8.503906 8.554688 -8.9375 8.046875 -9.21875 C 7.535156 -9.507812 6.941406 -9.65625 6.265625 -9.65625 C 5.535156 -9.65625 4.878906 -9.488281 4.296875 -9.15625 C 3.722656 -8.832031 3.273438 -8.359375 2.953125 -7.734375 C 2.628906 -7.117188 2.46875 -6.398438 2.46875 -5.578125 C 2.46875 -4.765625 2.628906 -4.046875 2.953125 -3.421875 C 3.273438 -2.804688 3.722656 -2.328125 4.296875 -1.984375 C 4.878906 -1.648438 5.535156 -1.484375 6.265625 -1.484375 C 6.941406 -1.484375 7.535156 -1.628906 8.046875 -1.921875 C 8.554688 -2.210938 8.957031 -2.648438 9.25 -3.234375 L 11.4375 -3.234375 C 11.019531 -2.160156 10.347656 -1.335938 9.421875 -0.765625 C 8.503906 -0.191406 7.453125 0.09375 6.265625 0.09375 C 5.222656 0.09375 4.269531 -0.144531 3.40625 -0.625 C 2.539062 -1.113281 1.851562 -1.789062 1.34375 -2.65625 C 0.84375 -3.519531 0.59375 -4.492188 0.59375 -5.578125 Z M 0.59375 -5.578125 "/></g></g></g><g fill="#11663a" fill-opacity="1"><g transform="translate(140.384109, 340.566657)"><g><path d="M 3.03125 -9.640625 L 3.03125 -6.390625 L 6.859375 -6.390625 L 6.859375 -4.890625 L 3.03125 -4.890625 L 3.03125 -1.484375 L 7.34375 -1.484375 L 7.34375 0 L 1.203125 0 L 1.203125 -11.140625 L 7.34375 -11.140625 L 7.34375 -9.640625 Z M 3.03125 -9.640625 "/></g></g></g><g fill="#11663a" fill-opacity="1"><g transform="translate(148.766093, 340.566657)"><g><path d="M 3.03125 -9.640625 L 3.03125 -6.390625 L 6.859375 -6.390625 L 6.859375 -4.890625 L 3.03125 -4.890625 L 3.03125 -1.484375 L 7.34375 -1.484375 L 7.34375 0 L 1.203125 0 L 1.203125 -11.140625 L 7.34375 -11.140625 L 7.34375 -9.640625 Z M 3.03125 -9.640625 "/></g></g></g><g fill="#11663a" fill-opacity="1"><g transform="translate(157.148077, 340.566657)"><g><path d="M 4.828125 -11.125 C 6.015625 -11.125 7.050781 -10.894531 7.9375 -10.4375 C 8.832031 -9.988281 9.519531 -9.335938 10 -8.484375 C 10.488281 -7.640625 10.734375 -6.648438 10.734375 -5.515625 C 10.734375 -4.390625 10.488281 -3.410156 10 -2.578125 C 9.519531 -1.742188 8.832031 -1.101562 7.9375 -0.65625 C 7.050781 -0.21875 6.015625 0 4.828125 0 L 1.203125 0 L 1.203125 -11.125 Z M 4.828125 -1.484375 C 6.128906 -1.484375 7.125 -1.832031 7.8125 -2.53125 C 8.507812 -3.238281 8.859375 -4.234375 8.859375 -5.515625 C 8.859375 -6.804688 8.507812 -7.8125 7.8125 -8.53125 C 7.125 -9.257812 6.128906 -9.625 4.828125 -9.625 L 3.03125 -9.625 L 3.03125 -1.484375 Z M 4.828125 -1.484375 "/></g></g></g><g fill="#11663a" fill-opacity="1"><g transform="translate(168.489354, 340.566657)"><g/></g></g><g fill="#11663a" fill-opacity="1"><g transform="translate(172.648354, 340.566657)"><g><path d="M 15.6875 -11.125 L 12.390625 0 L 10.3125 0 L 7.984375 -8.421875 L 5.5 0 L 3.453125 0.015625 L 0.296875 -11.125 L 2.234375 -11.125 L 4.546875 -2.0625 L 7.046875 -11.125 L 9.09375 -11.125 L 11.40625 -2.109375 L 13.734375 -11.125 Z M 15.6875 -11.125 "/></g></g></g><g fill="#11663a" fill-opacity="1"><g transform="translate(188.628517, 340.566657)"><g><path d="M 3.03125 -11.125 L 3.03125 0 L 1.203125 0 L 1.203125 -11.125 Z M 3.03125 -11.125 "/></g></g></g><g fill="#11663a" fill-opacity="1"><g transform="translate(192.851501, 340.566657)"><g><path d="M 8.390625 -11.125 L 8.390625 -9.625 L 5.421875 -9.625 L 5.421875 0 L 3.59375 0 L 3.59375 -9.625 L 0.625 -9.625 L 0.625 -11.125 Z M 8.390625 -11.125 "/></g></g></g><g fill="#11663a" fill-opacity="1"><g transform="translate(201.873336, 340.566657)"><g><path d="M 10.078125 -11.125 L 10.078125 0 L 8.25 0 L 8.25 -4.859375 L 3.03125 -4.859375 L 3.03125 0 L 1.203125 0 L 1.203125 -11.125 L 3.03125 -11.125 L 3.03125 -6.359375 L 8.25 -6.359375 L 8.25 -11.125 Z M 10.078125 -11.125 "/></g></g></g><g fill="#11663a" fill-opacity="1"><g transform="translate(213.150629, 340.566657)"><g/></g></g><g fill="#11663a" fill-opacity="1"><g transform="translate(217.30963, 340.566657)"><g><path d="M 9.4375 -11.125 L 5.765625 -4.03125 L 5.765625 0 L 3.9375 0 L 3.9375 -4.03125 L 0.234375 -11.125 L 2.265625 -11.125 L 4.84375 -5.65625 L 7.421875 -11.125 Z M 9.4375 -11.125 "/></g></g></g><g fill="#11663a" fill-opacity="1"><g transform="translate(226.987302, 340.566657)"><g><path d="M 6.265625 0.109375 C 5.234375 0.109375 4.28125 -0.128906 3.40625 -0.609375 C 2.539062 -1.097656 1.851562 -1.773438 1.34375 -2.640625 C 0.84375 -3.515625 0.59375 -4.492188 0.59375 -5.578125 C 0.59375 -6.671875 0.84375 -7.648438 1.34375 -8.515625 C 1.851562 -9.378906 2.539062 -10.050781 3.40625 -10.53125 C 4.28125 -11.019531 5.234375 -11.265625 6.265625 -11.265625 C 7.316406 -11.265625 8.273438 -11.019531 9.140625 -10.53125 C 10.015625 -10.050781 10.703125 -9.378906 11.203125 -8.515625 C 11.703125 -7.648438 11.953125 -6.671875 11.953125 -5.578125 C 11.953125 -4.492188 11.703125 -3.515625 11.203125 -2.640625 C 10.703125 -1.773438 10.015625 -1.097656 9.140625 -0.609375 C 8.273438 -0.128906 7.316406 0.109375 6.265625 0.109375 Z M 6.265625 -1.46875 C 7.003906 -1.46875 7.660156 -1.632812 8.234375 -1.96875 C 8.816406 -2.3125 9.269531 -2.796875 9.59375 -3.421875 C 9.914062 -4.046875 10.078125 -4.765625 10.078125 -5.578125 C 10.078125 -6.398438 9.914062 -7.117188 9.59375 -7.734375 C 9.269531 -8.359375 8.816406 -8.832031 8.234375 -9.15625 C 7.660156 -9.488281 7.003906 -9.65625 6.265625 -9.65625 C 5.535156 -9.65625 4.878906 -9.488281 4.296875 -9.15625 C 3.722656 -8.832031 3.273438 -8.359375 2.953125 -7.734375 C 2.628906 -7.117188 2.46875 -6.398438 2.46875 -5.578125 C 2.46875 -4.765625 2.628906 -4.046875 2.953125 -3.421875 C 3.273438 -2.796875 3.722656 -2.3125 4.296875 -1.96875 C 4.878906 -1.632812 5.535156 -1.46875 6.265625 -1.46875 Z M 6.265625 -1.46875 "/></g></g></g><g fill="#11663a" fill-opacity="1"><g transform="translate(239.528287, 340.566657)"><g><path d="M 3.015625 -11.125 L 3.015625 -4.03125 C 3.015625 -3.1875 3.234375 -2.550781 3.671875 -2.125 C 4.117188 -1.695312 4.734375 -1.484375 5.515625 -1.484375 C 6.316406 -1.484375 6.9375 -1.695312 7.375 -2.125 C 7.820312 -2.550781 8.046875 -3.1875 8.046875 -4.03125 L 8.046875 -11.125 L 9.875 -11.125 L 9.875 -4.0625 C 9.875 -3.15625 9.675781 -2.382812 9.28125 -1.75 C 8.882812 -1.125 8.351562 -0.65625 7.6875 -0.34375 C 7.03125 -0.0390625 6.300781 0.109375 5.5 0.109375 C 4.695312 0.109375 3.96875 -0.0390625 3.3125 -0.34375 C 2.664062 -0.65625 2.148438 -1.125 1.765625 -1.75 C 1.378906 -2.382812 1.1875 -3.15625 1.1875 -4.0625 L 1.1875 -11.125 Z M 3.015625 -11.125 "/></g></g></g><g fill="#11663a" fill-opacity="1"><g transform="translate(250.565632, 340.566657)"><g><path d="M 6.96875 0 L 4.421875 -4.453125 L 3.03125 -4.453125 L 3.03125 0 L 1.203125 0 L 1.203125 -11.125 L 5.046875 -11.125 C 5.890625 -11.125 6.609375 -10.972656 7.203125 -10.671875 C 7.796875 -10.367188 8.238281 -9.96875 8.53125 -9.46875 C 8.820312 -8.96875 8.96875 -8.410156 8.96875 -7.796875 C 8.96875 -7.066406 8.757812 -6.40625 8.34375 -5.8125 C 7.925781 -5.21875 7.28125 -4.816406 6.40625 -4.609375 L 9.15625 0 Z M 3.03125 -5.90625 L 5.046875 -5.90625 C 5.722656 -5.90625 6.234375 -6.070312 6.578125 -6.40625 C 6.929688 -6.75 7.109375 -7.210938 7.109375 -7.796875 C 7.109375 -8.367188 6.9375 -8.816406 6.59375 -9.140625 C 6.25 -9.460938 5.734375 -9.625 5.046875 -9.625 L 3.03125 -9.625 Z M 3.03125 -5.90625 "/></g></g></g><g fill="#11663a" fill-opacity="1"><g transform="translate(260.675205, 340.566657)"><g/></g></g><g fill="#11663a" fill-opacity="1"><g transform="translate(264.834216, 340.566657)"><g><path d="M 6.265625 0.109375 C 5.234375 0.109375 4.28125 -0.128906 3.40625 -0.609375 C 2.539062 -1.097656 1.851562 -1.773438 1.34375 -2.640625 C 0.84375 -3.515625 0.59375 -4.492188 0.59375 -5.578125 C 0.59375 -6.671875 0.84375 -7.648438 1.34375 -8.515625 C 1.851562 -9.378906 2.539062 -10.050781 3.40625 -10.53125 C 4.28125 -11.019531 5.234375 -11.265625 6.265625 -11.265625 C 7.316406 -11.265625 8.273438 -11.019531 9.140625 -10.53125 C 10.015625 -10.050781 10.703125 -9.378906 11.203125 -8.515625 C 11.703125 -7.648438 11.953125 -6.671875 11.953125 -5.578125 C 11.953125 -4.492188 11.703125 -3.515625 11.203125 -2.640625 C 10.703125 -1.773438 10.015625 -1.097656 9.140625 -0.609375 C 8.273438 -0.128906 7.316406 0.109375 6.265625 0.109375 Z M 6.265625 -1.46875 C 7.003906 -1.46875 7.660156 -1.632812 8.234375 -1.96875 C 8.816406 -2.3125 9.269531 -2.796875 9.59375 -3.421875 C 9.914062 -4.046875 10.078125 -4.765625 10.078125 -5.578125 C 10.078125 -6.398438 9.914062 -7.117188 9.59375 -7.734375 C 9.269531 -8.359375 8.816406 -8.832031 8.234375 -9.15625 C 7.660156 -9.488281 7.003906 -9.65625 6.265625 -9.65625 C 5.535156 -9.65625 4.878906 -9.488281 4.296875 -9.15625 C 3.722656 -8.832031 3.273438 -8.359375 2.953125 -7.734375 C 2.628906 -7.117188 2.46875 -6.398438 2.46875 -5.578125 C 2.46875 -4.765625 2.628906 -4.046875 2.953125 -3.421875 C 3.273438 -2.796875 3.722656 -2.3125 4.296875 -1.96875 C 4.878906 -1.632812 5.535156 -1.46875 6.265625 -1.46875 Z M 6.265625 -1.46875 "/></g></g></g><g fill="#11663a" fill-opacity="1"><g transform="translate(277.3752, 340.566657)"><g><path d="M 6.96875 0 L 4.421875 -4.453125 L 3.03125 -4.453125 L 3.03125 0 L 1.203125 0 L 1.203125 -11.125 L 5.046875 -11.125 C 5.890625 -11.125 6.609375 -10.972656 7.203125 -10.671875 C 7.796875 -10.367188 8.238281 -9.96875 8.53125 -9.46875 C 8.820312 -8.96875 8.96875 -8.410156 8.96875 -7.796875 C 8.96875 -7.066406 8.757812 -6.40625 8.34375 -5.8125 C 7.925781 -5.21875 7.28125 -4.816406 6.40625 -4.609375 L 9.15625 0 Z M 3.03125 -5.90625 L 5.046875 -5.90625 C 5.722656 -5.90625 6.234375 -6.070312 6.578125 -6.40625 C 6.929688 -6.75 7.109375 -7.210938 7.109375 -7.796875 C 7.109375 -8.367188 6.9375 -8.816406 6.59375 -9.140625 C 6.25 -9.460938 5.734375 -9.625 5.046875 -9.625 L 3.03125 -9.625 Z M 3.03125 -5.90625 "/></g></g></g><g fill="#11663a" fill-opacity="1"><g transform="translate(287.484773, 340.566657)"><g><path d="M 4.828125 -11.125 C 6.015625 -11.125 7.050781 -10.894531 7.9375 -10.4375 C 8.832031 -9.988281 9.519531 -9.335938 10 -8.484375 C 10.488281 -7.640625 10.734375 -6.648438 10.734375 -5.515625 C 10.734375 -4.390625 10.488281 -3.410156 10 -2.578125 C 9.519531 -1.742188 8.832031 -1.101562 7.9375 -0.65625 C 7.050781 -0.21875 6.015625 0 4.828125 0 L 1.203125 0 L 1.203125 -11.125 Z M 4.828125 -1.484375 C 6.128906 -1.484375 7.125 -1.832031 7.8125 -2.53125 C 8.507812 -3.238281 8.859375 -4.234375 8.859375 -5.515625 C 8.859375 -6.804688 8.507812 -7.8125 7.8125 -8.53125 C 7.125 -9.257812 6.128906 -9.625 4.828125 -9.625 L 3.03125 -9.625 L 3.03125 -1.484375 Z M 4.828125 -1.484375 "/></g></g></g><g fill="#11663a" fill-opacity="1"><g transform="translate(298.82605, 340.566657)"><g><path d="M 3.03125 -9.640625 L 3.03125 -6.390625 L 6.859375 -6.390625 L 6.859375 -4.890625 L 3.03125 -4.890625 L 3.03125 -1.484375 L 7.34375 -1.484375 L 7.34375 0 L 1.203125 0 L 1.203125 -11.140625 L 7.34375 -11.140625 L 7.34375 -9.640625 Z M 3.03125 -9.640625 "/></g></g></g><g fill="#11663a" fill-opacity="1"><g transform="translate(307.208023, 340.566657)"><g><path d="M 6.96875 0 L 4.421875 -4.453125 L 3.03125 -4.453125 L 3.03125 0 L 1.203125 0 L 1.203125 -11.125 L 5.046875 -11.125 C 5.890625 -11.125 6.609375 -10.972656 7.203125 -10.671875 C 7.796875 -10.367188 8.238281 -9.96875 8.53125 -9.46875 C 8.820312 -8.96875 8.96875 -8.410156 8.96875 -7.796875 C 8.96875 -7.066406 8.757812 -6.40625 8.34375 -5.8125 C 7.925781 -5.21875 7.28125 -4.816406 6.40625 -4.609375 L 9.15625 0 Z M 3.03125 -5.90625 L 5.046875 -5.90625 C 5.722656 -5.90625 6.234375 -6.070312 6.578125 -6.40625 C 6.929688 -6.75 7.109375 -7.210938 7.109375 -7.796875 C 7.109375 -8.367188 6.9375 -8.816406 6.59375 -9.140625 C 6.25 -9.460938 5.734375 -9.625 5.046875 -9.625 L 3.03125 -9.625 Z M 3.03125 -5.90625 "/></g></g></g><g fill="#11663a" fill-opacity="1"><g transform="translate(112.56408, 85.819817)"><g><path d="M 6.25 -4.28125 C 5.25 -3.5625 4.234375 -3.082031 3.203125 -2.84375 C 2.179688 -2.601562 1.203125 -2.628906 0.265625 -2.921875 C -0.660156 -3.222656 -1.457031 -3.8125 -2.125 -4.6875 L 1.40625 -7.234375 C 1.820312 -6.753906 2.273438 -6.488281 2.765625 -6.4375 C 3.265625 -6.394531 3.753906 -6.546875 4.234375 -6.890625 C 4.722656 -7.242188 5.03125 -7.632812 5.15625 -8.0625 C 5.28125 -8.5 5.195312 -8.921875 4.90625 -9.328125 C 4.664062 -9.671875 4.347656 -9.867188 3.953125 -9.921875 C 3.566406 -9.972656 3.160156 -9.953125 2.734375 -9.859375 C 2.304688 -9.773438 1.71875 -9.597656 0.96875 -9.328125 C -0.113281 -8.960938 -1.03125 -8.710938 -1.78125 -8.578125 C -2.53125 -8.453125 -3.296875 -8.515625 -4.078125 -8.765625 C -4.867188 -9.015625 -5.578125 -9.566406 -6.203125 -10.421875 C -7.109375 -11.691406 -7.359375 -13.019531 -6.953125 -14.40625 C -6.554688 -15.789062 -5.617188 -17.015625 -4.140625 -18.078125 C -2.628906 -19.160156 -1.15625 -19.671875 0.28125 -19.609375 C 1.726562 -19.554688 2.945312 -18.910156 3.9375 -17.671875 L 0.34375 -15.078125 C -0.0078125 -15.503906 -0.425781 -15.734375 -0.90625 -15.765625 C -1.394531 -15.804688 -1.867188 -15.660156 -2.328125 -15.328125 C -2.734375 -15.035156 -2.984375 -14.691406 -3.078125 -14.296875 C -3.171875 -13.910156 -3.070312 -13.515625 -2.78125 -13.109375 C -2.457031 -12.671875 -2 -12.472656 -1.40625 -12.515625 C -0.820312 -12.566406 0.0078125 -12.769531 1.09375 -13.125 C 2.207031 -13.46875 3.132812 -13.695312 3.875 -13.8125 C 4.613281 -13.9375 5.375 -13.882812 6.15625 -13.65625 C 6.9375 -13.4375 7.617188 -12.921875 8.203125 -12.109375 C 8.765625 -11.328125 9.078125 -10.472656 9.140625 -9.546875 C 9.203125 -8.617188 8.992188 -7.695312 8.515625 -6.78125 C 8.035156 -5.863281 7.28125 -5.03125 6.25 -4.28125 Z M 6.25 -4.28125 "/></g></g></g><g fill="#11663a" fill-opacity="1"><g transform="translate(123.896064, 77.666049)"><g><path d="M -1.78125 -14.5625 L -0.109375 -11.59375 L 4.671875 -14.296875 L 6.21875 -11.53125 L 1.4375 -8.828125 L 3.265625 -5.609375 L 8.6875 -8.65625 L 10.296875 -5.796875 L 1.296875 -0.734375 L -6.96875 -15.40625 L 2.03125 -20.46875 L 3.640625 -17.609375 Z M -1.78125 -14.5625 "/></g></g></g><g fill="#11663a" fill-opacity="1"><g transform="translate(134.35294, 71.545381)"><g><path d="M 9.9375 -7.3125 L 4.140625 -4.921875 L 4.328125 -1.78125 L 0.359375 -0.15625 L -0.421875 -18.046875 L 3.96875 -19.859375 L 16.015625 -6.609375 L 12 -4.953125 Z M 7.75 -9.828125 L 3.46875 -14.734375 L 3.90625 -8.25 Z M 7.75 -9.828125 "/></g></g></g><g fill="#11663a" fill-opacity="1"><g transform="translate(149.972885, 65.245024)"><g><path d="M 4.53125 -4.5625 L 9.703125 -6.03125 L 10.5625 -2.984375 L 1.421875 -0.40625 L -3.15625 -16.609375 L 0.8125 -17.71875 Z M 4.53125 -4.5625 "/></g></g></g><g fill="#11663a" fill-opacity="1"><g transform="translate(160.548318, 62.353624)"><g/></g></g><g fill="#11663a" fill-opacity="1"><g transform="translate(164.943967, 61.219737)"><g><path d="M 11.265625 -18.5 L 11.6875 -15.234375 L 7.265625 -14.640625 L 9.0625 -1.203125 L 5 -0.671875 L 3.203125 -14.109375 L -1.21875 -13.515625 L -1.640625 -16.78125 Z M 11.265625 -18.5 "/></g></g></g><g fill="#11663a" fill-opacity="1"><g transform="translate(178.090706, 59.304107)"><g><path d="M 15.984375 -16.9375 L 16.078125 -0.09375 L 11.96875 -0.078125 L 11.921875 -7.015625 L 5.546875 -6.96875 L 5.59375 -0.03125 L 1.484375 -0.015625 L 1.390625 -16.859375 L 5.5 -16.875 L 5.53125 -10.28125 L 11.90625 -10.328125 L 11.875 -16.921875 Z M 15.984375 -16.9375 "/></g></g></g><g fill="#11663a" fill-opacity="1"><g transform="translate(194.752929, 59.290378)"><g><path d="M 7.125 -12.828125 L 6.734375 -9.453125 L 12.1875 -8.8125 L 11.828125 -5.65625 L 6.375 -6.296875 L 5.9375 -2.625 L 12.109375 -1.90625 L 11.734375 1.359375 L 1.46875 0.171875 L 3.40625 -16.5625 L 13.671875 -15.375 L 13.296875 -12.109375 Z M 7.125 -12.828125 "/></g></g></g><g fill="#11663a" fill-opacity="1"><g transform="translate(207.109217, 60.849862)"><g/></g></g><g fill="#11663a" fill-opacity="1"><g transform="translate(211.536709, 61.379722)"><g><path d="M 12.109375 -14.0625 C 13.816406 -13.570312 15.210938 -12.804688 16.296875 -11.765625 C 17.390625 -10.734375 18.109375 -9.503906 18.453125 -8.078125 C 18.804688 -6.648438 18.753906 -5.132812 18.296875 -3.53125 C 17.835938 -1.945312 17.085938 -0.644531 16.046875 0.375 C 15.003906 1.40625 13.738281 2.078125 12.25 2.390625 C 10.769531 2.703125 9.1875 2.617188 7.5 2.140625 L 1.421875 0.40625 L 6.03125 -15.796875 Z M 8.21875 -1.34375 C 9.707031 -0.914062 10.984375 -0.992188 12.046875 -1.578125 C 13.109375 -2.160156 13.851562 -3.195312 14.28125 -4.6875 C 14.707031 -6.1875 14.625 -7.46875 14.03125 -8.53125 C 13.4375 -9.59375 12.394531 -10.335938 10.90625 -10.765625 L 9.03125 -11.296875 L 6.34375 -1.875 Z M 8.21875 -1.34375 "/></g></g></g><g fill="#11663a" fill-opacity="1"><g transform="translate(227.448956, 65.99867)"><g><path d="M 10.421875 -10.328125 L 9.09375 -7.1875 L 14.15625 -5.046875 L 12.9375 -2.125 L 7.875 -4.265625 L 6.4375 -0.859375 L 12.171875 1.5625 L 10.890625 4.59375 L 1.375 0.578125 L 7.921875 -14.9375 L 17.4375 -10.921875 L 16.15625 -7.90625 Z M 10.421875 -10.328125 "/></g></g></g><g fill="#11663a" fill-opacity="1"><g transform="translate(238.690455, 70.520111)"><g><path d="M 11.859375 3.375 L 6.421875 0.25 L 4.0625 2.328125 L 0.34375 0.1875 L 14.015625 -11.375 L 18.140625 -9.015625 L 15.03125 8.625 L 11.265625 6.46875 Z M 12.53125 0.109375 L 13.78125 -6.28125 L 8.9375 -1.953125 Z M 12.53125 0.109375 "/></g></g></g><g fill="#11663a" fill-opacity="1"><g transform="translate(253.231337, 79.019866)"><g><path d="M 6.390625 0.78125 L 10.703125 3.984375 L 8.8125 6.53125 L 1.1875 0.890625 L 11.203125 -12.640625 L 14.515625 -10.203125 Z M 6.390625 0.78125 "/></g></g></g></svg>