<svg xmlns="http://www.w3.org/2000/svg" xmlns:xlink="http://www.w3.org/1999/xlink" width="500" zoomAndPan="magnify" viewBox="0 0 375 374.999991" height="500" preserveAspectRatio="xMidYMid meet" version="1.0"><defs><g/><clipPath id="298027a39a"><path d="M 82.617188 74.925781 L 292.382812 74.925781 L 292.382812 284.691406 L 82.617188 284.691406 Z M 82.617188 74.925781 " clip-rule="nonzero"/></clipPath><clipPath id="2d05825626"><path d="M 187.5 74.925781 C 129.574219 74.925781 82.617188 121.882812 82.617188 179.808594 C 82.617188 237.730469 129.574219 284.691406 187.5 284.691406 C 245.425781 284.691406 292.382812 237.730469 292.382812 179.808594 C 292.382812 121.882812 245.425781 74.925781 187.5 74.925781 Z M 187.5 74.925781 " clip-rule="nonzero"/></clipPath><clipPath id="bf72961901"><path d="M 119.320312 133 L 255.820312 133 L 255.820312 238.417969 L 119.320312 238.417969 Z M 119.320312 133 " clip-rule="nonzero"/></clipPath><clipPath id="5d6597675d"><path d="M 119.320312 133 L 255.820312 133 L 255.820312 163 L 119.320312 163 Z M 119.320312 133 " clip-rule="nonzero"/></clipPath><clipPath id="968958f9e9"><path d="M 141 121.417969 L 151 121.417969 L 151 153 L 141 153 Z M 141 121.417969 " clip-rule="nonzero"/></clipPath><clipPath id="6a02b73413"><path d="M 168 121.417969 L 178 121.417969 L 178 153 L 168 153 Z M 168 121.417969 " clip-rule="nonzero"/></clipPath><clipPath id="0f73743c6f"><path d="M 194 121.417969 L 205 121.417969 L 205 153 L 194 153 Z M 194 121.417969 " clip-rule="nonzero"/></clipPath><clipPath id="231d42104d"><path d="M 221 121.417969 L 232 121.417969 L 232 153 L 221 153 Z M 221 121.417969 " clip-rule="nonzero"/></clipPath><clipPath id="0c8aab55d9"><path d="M 11.085938 11.203125 L 63.914062 11.203125 L 63.914062 64.234375 L 11.085938 64.234375 Z M 11.085938 11.203125 " clip-rule="nonzero"/></clipPath><clipPath id="3416f53e33"><path d="M 37.5 11.203125 C 22.914062 11.203125 11.085938 23.03125 11.085938 37.621094 C 11.085938 52.210938 22.914062 64.035156 37.5 64.035156 C 52.085938 64.035156 63.914062 52.210938 63.914062 37.621094 C 63.914062 23.03125 52.085938 11.203125 37.5 11.203125 Z M 37.5 11.203125 " clip-rule="nonzero"/></clipPath></defs><rect x="-37.5" width="450" fill="#ffffff" y="-37.499999" height="449.999989" fill-opacity="1"/><rect x="-37.5" width="450" fill="#ffffff" y="-37.499999" height="449.999989" fill-opacity="1"/><g fill="#11663a" fill-opacity="1"><g transform="translate(52.441407, 318.816658)"><g><path d="M 4.859375 0.109375 C 4.117188 0.109375 3.445312 -0.0195312 2.84375 -0.28125 C 2.25 -0.539062 1.78125 -0.910156 1.4375 -1.390625 C 1.09375 -1.867188 0.921875 -2.429688 0.921875 -3.078125 L 2.875 -3.078125 C 2.914062 -2.597656 3.101562 -2.203125 3.4375 -1.890625 C 3.78125 -1.578125 4.253906 -1.421875 4.859375 -1.421875 C 5.492188 -1.421875 5.984375 -1.570312 6.328125 -1.875 C 6.679688 -2.1875 6.859375 -2.582031 6.859375 -3.0625 C 6.859375 -3.425781 6.75 -3.722656 6.53125 -3.953125 C 6.3125 -4.191406 6.039062 -4.375 5.71875 -4.5 C 5.394531 -4.632812 4.945312 -4.773438 4.375 -4.921875 C 3.644531 -5.117188 3.050781 -5.316406 2.59375 -5.515625 C 2.144531 -5.710938 1.757812 -6.019531 1.4375 -6.4375 C 1.113281 -6.851562 0.953125 -7.40625 0.953125 -8.09375 C 0.953125 -8.738281 1.113281 -9.300781 1.4375 -9.78125 C 1.757812 -10.257812 2.207031 -10.625 2.78125 -10.875 C 3.351562 -11.132812 4.019531 -11.265625 4.78125 -11.265625 C 5.863281 -11.265625 6.75 -10.992188 7.4375 -10.453125 C 8.125 -9.910156 8.503906 -9.171875 8.578125 -8.234375 L 6.5625 -8.234375 C 6.53125 -8.640625 6.335938 -8.988281 5.984375 -9.28125 C 5.628906 -9.570312 5.164062 -9.71875 4.59375 -9.71875 C 4.070312 -9.71875 3.644531 -9.582031 3.3125 -9.3125 C 2.976562 -9.039062 2.8125 -8.65625 2.8125 -8.15625 C 2.8125 -7.8125 2.914062 -7.53125 3.125 -7.3125 C 3.332031 -7.09375 3.597656 -6.921875 3.921875 -6.796875 C 4.242188 -6.671875 4.679688 -6.535156 5.234375 -6.390625 C 5.972656 -6.179688 6.570312 -5.972656 7.03125 -5.765625 C 7.5 -5.566406 7.894531 -5.253906 8.21875 -4.828125 C 8.539062 -4.410156 8.703125 -3.851562 8.703125 -3.15625 C 8.703125 -2.582031 8.550781 -2.046875 8.25 -1.546875 C 7.945312 -1.046875 7.503906 -0.644531 6.921875 -0.34375 C 6.335938 -0.0390625 5.648438 0.109375 4.859375 0.109375 Z M 4.859375 0.109375 "/></g></g></g><g fill="#11663a" fill-opacity="1"><g transform="translate(62.103081, 318.816658)"><g><path d="M 3.03125 -9.640625 L 3.03125 -6.390625 L 6.859375 -6.390625 L 6.859375 -4.890625 L 3.03125 -4.890625 L 3.03125 -1.484375 L 7.34375 -1.484375 L 7.34375 0 L 1.203125 0 L 1.203125 -11.140625 L 7.34375 -11.140625 L 7.34375 -9.640625 Z M 3.03125 -9.640625 "/></g></g></g><g fill="#11663a" fill-opacity="1"><g transform="translate(70.485065, 318.816658)"><g><path d="M 3.03125 -1.46875 L 6.78125 -1.46875 L 6.78125 0 L 1.203125 0 L 1.203125 -11.125 L 3.03125 -11.125 Z M 3.03125 -1.46875 "/></g></g></g><g fill="#11663a" fill-opacity="1"><g transform="translate(77.58736, 318.816658)"><g><path d="M 3.03125 -9.640625 L 3.03125 -6.390625 L 6.859375 -6.390625 L 6.859375 -4.890625 L 3.03125 -4.890625 L 3.03125 -1.484375 L 7.34375 -1.484375 L 7.34375 0 L 1.203125 0 L 1.203125 -11.140625 L 7.34375 -11.140625 L 7.34375 -9.640625 Z M 3.03125 -9.640625 "/></g></g></g><g fill="#11663a" fill-opacity="1"><g transform="translate(85.969344, 318.816658)"><g><path d="M 0.59375 -5.578125 C 0.59375 -6.671875 0.84375 -7.648438 1.34375 -8.515625 C 1.851562 -9.378906 2.539062 -10.050781 3.40625 -10.53125 C 4.28125 -11.019531 5.234375 -11.265625 6.265625 -11.265625 C 7.453125 -11.265625 8.503906 -10.972656 9.421875 -10.390625 C 10.347656 -9.804688 11.019531 -8.984375 11.4375 -7.921875 L 9.25 -7.921875 C 8.957031 -8.503906 8.554688 -8.9375 8.046875 -9.21875 C 7.535156 -9.507812 6.941406 -9.65625 6.265625 -9.65625 C 5.535156 -9.65625 4.878906 -9.488281 4.296875 -9.15625 C 3.722656 -8.832031 3.273438 -8.359375 2.953125 -7.734375 C 2.628906 -7.117188 2.46875 -6.398438 2.46875 -5.578125 C 2.46875 -4.765625 2.628906 -4.046875 2.953125 -3.421875 C 3.273438 -2.804688 3.722656 -2.328125 4.296875 -1.984375 C 4.878906 -1.648438 5.535156 -1.484375 6.265625 -1.484375 C 6.941406 -1.484375 7.535156 -1.628906 8.046875 -1.921875 C 8.554688 -2.210938 8.957031 -2.648438 9.25 -3.234375 L 11.4375 -3.234375 C 11.019531 -2.160156 10.347656 -1.335938 9.421875 -0.765625 C 8.503906 -0.191406 7.453125 0.09375 6.265625 0.09375 C 5.222656 0.09375 4.269531 -0.144531 3.40625 -0.625 C 2.539062 -1.113281 1.851562 -1.789062 1.34375 -2.65625 C 0.84375 -3.519531 0.59375 -4.492188 0.59375 -5.578125 Z M 0.59375 -5.578125 "/></g></g></g><g fill="#11663a" fill-opacity="1"><g transform="translate(98.334375, 318.816658)"><g><path d="M 8.390625 -11.125 L 8.390625 -9.625 L 5.421875 -9.625 L 5.421875 0 L 3.59375 0 L 3.59375 -9.625 L 0.625 -9.625 L 0.625 -11.125 Z M 8.390625 -11.125 "/></g></g></g><g fill="#11663a" fill-opacity="1"><g transform="translate(107.35621, 318.816658)"><g/></g></g><g fill="#11663a" fill-opacity="1"><g transform="translate(111.51521, 318.816658)"><g><path d="M 9.796875 0 L 8.421875 -1.375 C 7.878906 -0.84375 7.296875 -0.445312 6.671875 -0.1875 C 6.046875 0.0703125 5.34375 0.203125 4.5625 0.203125 C 3.769531 0.203125 3.066406 0.0664062 2.453125 -0.203125 C 1.847656 -0.484375 1.378906 -0.878906 1.046875 -1.390625 C 0.722656 -1.910156 0.5625 -2.515625 0.5625 -3.203125 C 0.5625 -3.972656 0.78125 -4.65625 1.21875 -5.25 C 1.65625 -5.851562 2.304688 -6.332031 3.171875 -6.6875 C 2.859375 -7.0625 2.632812 -7.410156 2.5 -7.734375 C 2.375 -8.054688 2.3125 -8.414062 2.3125 -8.8125 C 2.3125 -9.300781 2.4375 -9.738281 2.6875 -10.125 C 2.945312 -10.507812 3.3125 -10.8125 3.78125 -11.03125 C 4.25 -11.257812 4.789062 -11.375 5.40625 -11.375 C 6.039062 -11.375 6.578125 -11.253906 7.015625 -11.015625 C 7.460938 -10.773438 7.796875 -10.445312 8.015625 -10.03125 C 8.234375 -9.613281 8.316406 -9.148438 8.265625 -8.640625 L 6.453125 -8.640625 C 6.460938 -9.035156 6.363281 -9.34375 6.15625 -9.5625 C 5.957031 -9.78125 5.679688 -9.890625 5.328125 -9.890625 C 4.972656 -9.890625 4.6875 -9.785156 4.46875 -9.578125 C 4.25 -9.367188 4.140625 -9.113281 4.140625 -8.8125 C 4.140625 -8.53125 4.222656 -8.242188 4.390625 -7.953125 C 4.554688 -7.671875 4.847656 -7.304688 5.265625 -6.859375 L 8.203125 -3.9375 L 9.34375 -5.8125 L 11.3125 -5.8125 L 9.875 -3.34375 L 9.46875 -2.6875 L 12.171875 0 Z M 4.5625 -1.34375 C 5.5625 -1.34375 6.445312 -1.753906 7.21875 -2.578125 L 4.265625 -5.53125 C 3.015625 -5.03125 2.390625 -4.273438 2.390625 -3.265625 C 2.390625 -2.722656 2.585938 -2.265625 2.984375 -1.890625 C 3.390625 -1.523438 3.914062 -1.34375 4.5625 -1.34375 Z M 4.5625 -1.34375 "/></g></g></g><g fill="#11663a" fill-opacity="1"><g transform="translate(123.68829, 318.816658)"><g/></g></g><g fill="#11663a" fill-opacity="1"><g transform="translate(127.84729, 318.816658)"><g><path d="M 8.96875 -7.8125 C 8.96875 -7.238281 8.832031 -6.703125 8.5625 -6.203125 C 8.300781 -5.703125 7.878906 -5.296875 7.296875 -4.984375 C 6.710938 -4.671875 5.960938 -4.515625 5.046875 -4.515625 L 3.03125 -4.515625 L 3.03125 0 L 1.203125 0 L 1.203125 -11.125 L 5.046875 -11.125 C 5.890625 -11.125 6.609375 -10.972656 7.203125 -10.671875 C 7.796875 -10.378906 8.238281 -9.984375 8.53125 -9.484375 C 8.820312 -8.984375 8.96875 -8.425781 8.96875 -7.8125 Z M 5.046875 -6 C 5.734375 -6 6.25 -6.15625 6.59375 -6.46875 C 6.9375 -6.78125 7.109375 -7.226562 7.109375 -7.8125 C 7.109375 -9.019531 6.421875 -9.625 5.046875 -9.625 L 3.03125 -9.625 L 3.03125 -6 Z M 5.046875 -6 "/></g></g></g><g fill="#11663a" fill-opacity="1"><g transform="translate(137.365009, 318.816658)"><g><path d="M 3.03125 -9.640625 L 3.03125 -6.390625 L 6.859375 -6.390625 L 6.859375 -4.890625 L 3.03125 -4.890625 L 3.03125 -1.484375 L 7.34375 -1.484375 L 7.34375 0 L 1.203125 0 L 1.203125 -11.140625 L 7.34375 -11.140625 L 7.34375 -9.640625 Z M 3.03125 -9.640625 "/></g></g></g><g fill="#11663a" fill-opacity="1"><g transform="translate(145.746993, 318.816658)"><g><path d="M 6.96875 0 L 4.421875 -4.453125 L 3.03125 -4.453125 L 3.03125 0 L 1.203125 0 L 1.203125 -11.125 L 5.046875 -11.125 C 5.890625 -11.125 6.609375 -10.972656 7.203125 -10.671875 C 7.796875 -10.367188 8.238281 -9.96875 8.53125 -9.46875 C 8.820312 -8.96875 8.96875 -8.410156 8.96875 -7.796875 C 8.96875 -7.066406 8.757812 -6.40625 8.34375 -5.8125 C 7.925781 -5.21875 7.28125 -4.816406 6.40625 -4.609375 L 9.15625 0 Z M 3.03125 -5.90625 L 5.046875 -5.90625 C 5.722656 -5.90625 6.234375 -6.070312 6.578125 -6.40625 C 6.929688 -6.75 7.109375 -7.210938 7.109375 -7.796875 C 7.109375 -8.367188 6.9375 -8.816406 6.59375 -9.140625 C 6.25 -9.460938 5.734375 -9.625 5.046875 -9.625 L 3.03125 -9.625 Z M 3.03125 -5.90625 "/></g></g></g><g fill="#11663a" fill-opacity="1"><g transform="translate(155.856566, 318.816658)"><g><path d="M 4.859375 0.109375 C 4.117188 0.109375 3.445312 -0.0195312 2.84375 -0.28125 C 2.25 -0.539062 1.78125 -0.910156 1.4375 -1.390625 C 1.09375 -1.867188 0.921875 -2.429688 0.921875 -3.078125 L 2.875 -3.078125 C 2.914062 -2.597656 3.101562 -2.203125 3.4375 -1.890625 C 3.78125 -1.578125 4.253906 -1.421875 4.859375 -1.421875 C 5.492188 -1.421875 5.984375 -1.570312 6.328125 -1.875 C 6.679688 -2.1875 6.859375 -2.582031 6.859375 -3.0625 C 6.859375 -3.425781 6.75 -3.722656 6.53125 -3.953125 C 6.3125 -4.191406 6.039062 -4.375 5.71875 -4.5 C 5.394531 -4.632812 4.945312 -4.773438 4.375 -4.921875 C 3.644531 -5.117188 3.050781 -5.316406 2.59375 -5.515625 C 2.144531 -5.710938 1.757812 -6.019531 1.4375 -6.4375 C 1.113281 -6.851562 0.953125 -7.40625 0.953125 -8.09375 C 0.953125 -8.738281 1.113281 -9.300781 1.4375 -9.78125 C 1.757812 -10.257812 2.207031 -10.625 2.78125 -10.875 C 3.351562 -11.132812 4.019531 -11.265625 4.78125 -11.265625 C 5.863281 -11.265625 6.75 -10.992188 7.4375 -10.453125 C 8.125 -9.910156 8.503906 -9.171875 8.578125 -8.234375 L 6.5625 -8.234375 C 6.53125 -8.640625 6.335938 -8.988281 5.984375 -9.28125 C 5.628906 -9.570312 5.164062 -9.71875 4.59375 -9.71875 C 4.070312 -9.71875 3.644531 -9.582031 3.3125 -9.3125 C 2.976562 -9.039062 2.8125 -8.65625 2.8125 -8.15625 C 2.8125 -7.8125 2.914062 -7.53125 3.125 -7.3125 C 3.332031 -7.09375 3.597656 -6.921875 3.921875 -6.796875 C 4.242188 -6.671875 4.679688 -6.535156 5.234375 -6.390625 C 5.972656 -6.179688 6.570312 -5.972656 7.03125 -5.765625 C 7.5 -5.566406 7.894531 -5.253906 8.21875 -4.828125 C 8.539062 -4.410156 8.703125 -3.851562 8.703125 -3.15625 C 8.703125 -2.582031 8.550781 -2.046875 8.25 -1.546875 C 7.945312 -1.046875 7.503906 -0.644531 6.921875 -0.34375 C 6.335938 -0.0390625 5.648438 0.109375 4.859375 0.109375 Z M 4.859375 0.109375 "/></g></g></g><g fill="#11663a" fill-opacity="1"><g transform="translate(165.51824, 318.816658)"><g><path d="M 6.265625 0.109375 C 5.234375 0.109375 4.28125 -0.128906 3.40625 -0.609375 C 2.539062 -1.097656 1.851562 -1.773438 1.34375 -2.640625 C 0.84375 -3.515625 0.59375 -4.492188 0.59375 -5.578125 C 0.59375 -6.671875 0.84375 -7.648438 1.34375 -8.515625 C 1.851562 -9.378906 2.539062 -10.050781 3.40625 -10.53125 C 4.28125 -11.019531 5.234375 -11.265625 6.265625 -11.265625 C 7.316406 -11.265625 8.273438 -11.019531 9.140625 -10.53125 C 10.015625 -10.050781 10.703125 -9.378906 11.203125 -8.515625 C 11.703125 -7.648438 11.953125 -6.671875 11.953125 -5.578125 C 11.953125 -4.492188 11.703125 -3.515625 11.203125 -2.640625 C 10.703125 -1.773438 10.015625 -1.097656 9.140625 -0.609375 C 8.273438 -0.128906 7.316406 0.109375 6.265625 0.109375 Z M 6.265625 -1.46875 C 7.003906 -1.46875 7.660156 -1.632812 8.234375 -1.96875 C 8.816406 -2.3125 9.269531 -2.796875 9.59375 -3.421875 C 9.914062 -4.046875 10.078125 -4.765625 10.078125 -5.578125 C 10.078125 -6.398438 9.914062 -7.117188 9.59375 -7.734375 C 9.269531 -8.359375 8.816406 -8.832031 8.234375 -9.15625 C 7.660156 -9.488281 7.003906 -9.65625 6.265625 -9.65625 C 5.535156 -9.65625 4.878906 -9.488281 4.296875 -9.15625 C 3.722656 -8.832031 3.273438 -8.359375 2.953125 -7.734375 C 2.628906 -7.117188 2.46875 -6.398438 2.46875 -5.578125 C 2.46875 -4.765625 2.628906 -4.046875 2.953125 -3.421875 C 3.273438 -2.796875 3.722656 -2.3125 4.296875 -1.96875 C 4.878906 -1.632812 5.535156 -1.46875 6.265625 -1.46875 Z M 6.265625 -1.46875 "/></g></g></g><g fill="#11663a" fill-opacity="1"><g transform="translate(178.059224, 318.816658)"><g><path d="M 10.34375 0 L 8.515625 0 L 3.03125 -8.296875 L 3.03125 0 L 1.203125 0 L 1.203125 -11.140625 L 3.03125 -11.140625 L 8.515625 -2.84375 L 8.515625 -11.140625 L 10.34375 -11.140625 Z M 10.34375 0 "/></g></g></g><g fill="#11663a" fill-opacity="1"><g transform="translate(189.592453, 318.816658)"><g><path d="M 7.90625 -2.265625 L 3.25 -2.265625 L 2.453125 0 L 0.546875 0 L 4.53125 -11.140625 L 6.640625 -11.140625 L 10.625 0 L 8.703125 0 Z M 7.390625 -3.765625 L 5.578125 -8.921875 L 3.765625 -3.765625 Z M 7.390625 -3.765625 "/></g></g></g><g fill="#11663a" fill-opacity="1"><g transform="translate(200.741778, 318.816658)"><g><path d="M 3.03125 -1.46875 L 6.78125 -1.46875 L 6.78125 0 L 1.203125 0 L 1.203125 -11.125 L 3.03125 -11.125 Z M 3.03125 -1.46875 "/></g></g></g><g fill="#11663a" fill-opacity="1"><g transform="translate(207.844073, 318.816658)"><g><path d="M 3.03125 -11.125 L 3.03125 0 L 1.203125 0 L 1.203125 -11.125 Z M 3.03125 -11.125 "/></g></g></g><g fill="#11663a" fill-opacity="1"><g transform="translate(212.067057, 318.816658)"><g><path d="M 4.859375 0.109375 C 4.117188 0.109375 3.445312 -0.0195312 2.84375 -0.28125 C 2.25 -0.539062 1.78125 -0.910156 1.4375 -1.390625 C 1.09375 -1.867188 0.921875 -2.429688 0.921875 -3.078125 L 2.875 -3.078125 C 2.914062 -2.597656 3.101562 -2.203125 3.4375 -1.890625 C 3.78125 -1.578125 4.253906 -1.421875 4.859375 -1.421875 C 5.492188 -1.421875 5.984375 -1.570312 6.328125 -1.875 C 6.679688 -2.1875 6.859375 -2.582031 6.859375 -3.0625 C 6.859375 -3.425781 6.75 -3.722656 6.53125 -3.953125 C 6.3125 -4.191406 6.039062 -4.375 5.71875 -4.5 C 5.394531 -4.632812 4.945312 -4.773438 4.375 -4.921875 C 3.644531 -5.117188 3.050781 -5.316406 2.59375 -5.515625 C 2.144531 -5.710938 1.757812 -6.019531 1.4375 -6.4375 C 1.113281 -6.851562 0.953125 -7.40625 0.953125 -8.09375 C 0.953125 -8.738281 1.113281 -9.300781 1.4375 -9.78125 C 1.757812 -10.257812 2.207031 -10.625 2.78125 -10.875 C 3.351562 -11.132812 4.019531 -11.265625 4.78125 -11.265625 C 5.863281 -11.265625 6.75 -10.992188 7.4375 -10.453125 C 8.125 -9.910156 8.503906 -9.171875 8.578125 -8.234375 L 6.5625 -8.234375 C 6.53125 -8.640625 6.335938 -8.988281 5.984375 -9.28125 C 5.628906 -9.570312 5.164062 -9.71875 4.59375 -9.71875 C 4.070312 -9.71875 3.644531 -9.582031 3.3125 -9.3125 C 2.976562 -9.039062 2.8125 -8.65625 2.8125 -8.15625 C 2.8125 -7.8125 2.914062 -7.53125 3.125 -7.3125 C 3.332031 -7.09375 3.597656 -6.921875 3.921875 -6.796875 C 4.242188 -6.671875 4.679688 -6.535156 5.234375 -6.390625 C 5.972656 -6.179688 6.570312 -5.972656 7.03125 -5.765625 C 7.5 -5.566406 7.894531 -5.253906 8.21875 -4.828125 C 8.539062 -4.410156 8.703125 -3.851562 8.703125 -3.15625 C 8.703125 -2.582031 8.550781 -2.046875 8.25 -1.546875 C 7.945312 -1.046875 7.503906 -0.644531 6.921875 -0.34375 C 6.335938 -0.0390625 5.648438 0.109375 4.859375 0.109375 Z M 4.859375 0.109375 "/></g></g></g><g fill="#11663a" fill-opacity="1"><g transform="translate(221.728731, 318.816658)"><g><path d="M 3.03125 -9.640625 L 3.03125 -6.390625 L 6.859375 -6.390625 L 6.859375 -4.890625 L 3.03125 -4.890625 L 3.03125 -1.484375 L 7.34375 -1.484375 L 7.34375 0 L 1.203125 0 L 1.203125 -11.140625 L 7.34375 -11.140625 L 7.34375 -9.640625 Z M 3.03125 -9.640625 "/></g></g></g><g fill="#11663a" fill-opacity="1"><g transform="translate(230.110715, 318.816658)"><g/></g></g><g fill="#11663a" fill-opacity="1"><g transform="translate(234.269715, 318.816658)"><g><path d="M 9.4375 -11.125 L 5.765625 -4.03125 L 5.765625 0 L 3.9375 0 L 3.9375 -4.03125 L 0.234375 -11.125 L 2.265625 -11.125 L 4.84375 -5.65625 L 7.421875 -11.125 Z M 9.4375 -11.125 "/></g></g></g><g fill="#11663a" fill-opacity="1"><g transform="translate(243.947388, 318.816658)"><g><path d="M 6.265625 0.109375 C 5.234375 0.109375 4.28125 -0.128906 3.40625 -0.609375 C 2.539062 -1.097656 1.851562 -1.773438 1.34375 -2.640625 C 0.84375 -3.515625 0.59375 -4.492188 0.59375 -5.578125 C 0.59375 -6.671875 0.84375 -7.648438 1.34375 -8.515625 C 1.851562 -9.378906 2.539062 -10.050781 3.40625 -10.53125 C 4.28125 -11.019531 5.234375 -11.265625 6.265625 -11.265625 C 7.316406 -11.265625 8.273438 -11.019531 9.140625 -10.53125 C 10.015625 -10.050781 10.703125 -9.378906 11.203125 -8.515625 C 11.703125 -7.648438 11.953125 -6.671875 11.953125 -5.578125 C 11.953125 -4.492188 11.703125 -3.515625 11.203125 -2.640625 C 10.703125 -1.773438 10.015625 -1.097656 9.140625 -0.609375 C 8.273438 -0.128906 7.316406 0.109375 6.265625 0.109375 Z M 6.265625 -1.46875 C 7.003906 -1.46875 7.660156 -1.632812 8.234375 -1.96875 C 8.816406 -2.3125 9.269531 -2.796875 9.59375 -3.421875 C 9.914062 -4.046875 10.078125 -4.765625 10.078125 -5.578125 C 10.078125 -6.398438 9.914062 -7.117188 9.59375 -7.734375 C 9.269531 -8.359375 8.816406 -8.832031 8.234375 -9.15625 C 7.660156 -9.488281 7.003906 -9.65625 6.265625 -9.65625 C 5.535156 -9.65625 4.878906 -9.488281 4.296875 -9.15625 C 3.722656 -8.832031 3.273438 -8.359375 2.953125 -7.734375 C 2.628906 -7.117188 2.46875 -6.398438 2.46875 -5.578125 C 2.46875 -4.765625 2.628906 -4.046875 2.953125 -3.421875 C 3.273438 -2.796875 3.722656 -2.3125 4.296875 -1.96875 C 4.878906 -1.632812 5.535156 -1.46875 6.265625 -1.46875 Z M 6.265625 -1.46875 "/></g></g></g><g fill="#11663a" fill-opacity="1"><g transform="translate(256.488361, 318.816658)"><g><path d="M 3.015625 -11.125 L 3.015625 -4.03125 C 3.015625 -3.1875 3.234375 -2.550781 3.671875 -2.125 C 4.117188 -1.695312 4.734375 -1.484375 5.515625 -1.484375 C 6.316406 -1.484375 6.9375 -1.695312 7.375 -2.125 C 7.820312 -2.550781 8.046875 -3.1875 8.046875 -4.03125 L 8.046875 -11.125 L 9.875 -11.125 L 9.875 -4.0625 C 9.875 -3.15625 9.675781 -2.382812 9.28125 -1.75 C 8.882812 -1.125 8.351562 -0.65625 7.6875 -0.34375 C 7.03125 -0.0390625 6.300781 0.109375 5.5 0.109375 C 4.695312 0.109375 3.96875 -0.0390625 3.3125 -0.34375 C 2.664062 -0.65625 2.148438 -1.125 1.765625 -1.75 C 1.378906 -2.382812 1.1875 -3.15625 1.1875 -4.0625 L 1.1875 -11.125 Z M 3.015625 -11.125 "/></g></g></g><g fill="#11663a" fill-opacity="1"><g transform="translate(267.525706, 318.816658)"><g><path d="M 6.96875 0 L 4.421875 -4.453125 L 3.03125 -4.453125 L 3.03125 0 L 1.203125 0 L 1.203125 -11.125 L 5.046875 -11.125 C 5.890625 -11.125 6.609375 -10.972656 7.203125 -10.671875 C 7.796875 -10.367188 8.238281 -9.96875 8.53125 -9.46875 C 8.820312 -8.96875 8.96875 -8.410156 8.96875 -7.796875 C 8.96875 -7.066406 8.757812 -6.40625 8.34375 -5.8125 C 7.925781 -5.21875 7.28125 -4.816406 6.40625 -4.609375 L 9.15625 0 Z M 3.03125 -5.90625 L 5.046875 -5.90625 C 5.722656 -5.90625 6.234375 -6.070312 6.578125 -6.40625 C 6.929688 -6.75 7.109375 -7.210938 7.109375 -7.796875 C 7.109375 -8.367188 6.9375 -8.816406 6.59375 -9.140625 C 6.25 -9.460938 5.734375 -9.625 5.046875 -9.625 L 3.03125 -9.625 Z M 3.03125 -5.90625 "/></g></g></g><g fill="#11663a" fill-opacity="1"><g transform="translate(277.635279, 318.816658)"><g/></g></g><g fill="#11663a" fill-opacity="1"><g transform="translate(281.794267, 318.816658)"><g><path d="M 12.90625 -11.125 L 12.90625 0 L 11.09375 0 L 11.09375 -7.609375 L 7.703125 0 L 6.4375 0 L 3.03125 -7.609375 L 3.03125 0 L 1.203125 0 L 1.203125 -11.125 L 3.171875 -11.125 L 7.078125 -2.40625 L 10.953125 -11.125 Z M 12.90625 -11.125 "/></g></g></g><g fill="#11663a" fill-opacity="1"><g transform="translate(295.902863, 318.816658)"><g><path d="M 3.03125 -9.640625 L 3.03125 -6.390625 L 6.859375 -6.390625 L 6.859375 -4.890625 L 3.03125 -4.890625 L 3.03125 -1.484375 L 7.34375 -1.484375 L 7.34375 0 L 1.203125 0 L 1.203125 -11.140625 L 7.34375 -11.140625 L 7.34375 -9.640625 Z M 3.03125 -9.640625 "/></g></g></g><g fill="#11663a" fill-opacity="1"><g transform="translate(304.284836, 318.816658)"><g><path d="M 7.90625 -2.265625 L 3.25 -2.265625 L 2.453125 0 L 0.546875 0 L 4.53125 -11.140625 L 6.640625 -11.140625 L 10.625 0 L 8.703125 0 Z M 7.390625 -3.765625 L 5.578125 -8.921875 L 3.765625 -3.765625 Z M 7.390625 -3.765625 "/></g></g></g><g fill="#11663a" fill-opacity="1"><g transform="translate(315.434173, 318.816658)"><g><path d="M 3.03125 -1.46875 L 6.78125 -1.46875 L 6.78125 0 L 1.203125 0 L 1.203125 -11.125 L 3.03125 -11.125 Z M 3.03125 -1.46875 "/></g></g></g><g fill="#11663a" fill-opacity="1"><g transform="translate(48.85547, 340.566657)"><g><path d="M 7.75 -11.125 L 7.75 -9.625 L 3.03125 -9.625 L 3.03125 -6.359375 L 6.703125 -6.359375 L 6.703125 -4.859375 L 3.03125 -4.859375 L 3.03125 0 L 1.203125 0 L 1.203125 -11.125 Z M 7.75 -11.125 "/></g></g></g><g fill="#11663a" fill-opacity="1"><g transform="translate(57.093488, 340.566657)"><g><path d="M 6.96875 0 L 4.421875 -4.453125 L 3.03125 -4.453125 L 3.03125 0 L 1.203125 0 L 1.203125 -11.125 L 5.046875 -11.125 C 5.890625 -11.125 6.609375 -10.972656 7.203125 -10.671875 C 7.796875 -10.367188 8.238281 -9.96875 8.53125 -9.46875 C 8.820312 -8.96875 8.96875 -8.410156 8.96875 -7.796875 C 8.96875 -7.066406 8.757812 -6.40625 8.34375 -5.8125 C 7.925781 -5.21875 7.28125 -4.816406 6.40625 -4.609375 L 9.15625 0 Z M 3.03125 -5.90625 L 5.046875 -5.90625 C 5.722656 -5.90625 6.234375 -6.070312 6.578125 -6.40625 C 6.929688 -6.75 7.109375 -7.210938 7.109375 -7.796875 C 7.109375 -8.367188 6.9375 -8.816406 6.59375 -9.140625 C 6.25 -9.460938 5.734375 -9.625 5.046875 -9.625 L 3.03125 -9.625 Z M 3.03125 -5.90625 "/></g></g></g><g fill="#11663a" fill-opacity="1"><g transform="translate(67.20306, 340.566657)"><g><path d="M 6.265625 0.109375 C 5.234375 0.109375 4.28125 -0.128906 3.40625 -0.609375 C 2.539062 -1.097656 1.851562 -1.773438 1.34375 -2.640625 C 0.84375 -3.515625 0.59375 -4.492188 0.59375 -5.578125 C 0.59375 -6.671875 0.84375 -7.648438 1.34375 -8.515625 C 1.851562 -9.378906 2.539062 -10.050781 3.40625 -10.53125 C 4.28125 -11.019531 5.234375 -11.265625 6.265625 -11.265625 C 7.316406 -11.265625 8.273438 -11.019531 9.140625 -10.53125 C 10.015625 -10.050781 10.703125 -9.378906 11.203125 -8.515625 C 11.703125 -7.648438 11.953125 -6.671875 11.953125 -5.578125 C 11.953125 -4.492188 11.703125 -3.515625 11.203125 -2.640625 C 10.703125 -1.773438 10.015625 -1.097656 9.140625 -0.609375 C 8.273438 -0.128906 7.316406 0.109375 6.265625 0.109375 Z M 6.265625 -1.46875 C 7.003906 -1.46875 7.660156 -1.632812 8.234375 -1.96875 C 8.816406 -2.3125 9.269531 -2.796875 9.59375 -3.421875 C 9.914062 -4.046875 10.078125 -4.765625 10.078125 -5.578125 C 10.078125 -6.398438 9.914062 -7.117188 9.59375 -7.734375 C 9.269531 -8.359375 8.816406 -8.832031 8.234375 -9.15625 C 7.660156 -9.488281 7.003906 -9.65625 6.265625 -9.65625 C 5.535156 -9.65625 4.878906 -9.488281 4.296875 -9.15625 C 3.722656 -8.832031 3.273438 -8.359375 2.953125 -7.734375 C 2.628906 -7.117188 2.46875 -6.398438 2.46875 -5.578125 C 2.46875 -4.765625 2.628906 -4.046875 2.953125 -3.421875 C 3.273438 -2.796875 3.722656 -2.3125 4.296875 -1.96875 C 4.878906 -1.632812 5.535156 -1.46875 6.265625 -1.46875 Z M 6.265625 -1.46875 "/></g></g></g><g fill="#11663a" fill-opacity="1"><g transform="translate(79.744045, 340.566657)"><g><path d="M 12.90625 -11.125 L 12.90625 0 L 11.09375 0 L 11.09375 -7.609375 L 7.703125 0 L 6.4375 0 L 3.03125 -7.609375 L 3.03125 0 L 1.203125 0 L 1.203125 -11.125 L 3.171875 -11.125 L 7.078125 -2.40625 L 10.953125 -11.125 Z M 12.90625 -11.125 "/></g></g></g><g fill="#11663a" fill-opacity="1"><g transform="translate(93.852652, 340.566657)"><g/></g></g><g fill="#11663a" fill-opacity="1"><g transform="translate(98.011652, 340.566657)"><g><path d="M 8.390625 -11.125 L 8.390625 -9.625 L 5.421875 -9.625 L 5.421875 0 L 3.59375 0 L 3.59375 -9.625 L 0.625 -9.625 L 0.625 -11.125 Z M 8.390625 -11.125 "/></g></g></g><g fill="#11663a" fill-opacity="1"><g transform="translate(107.033487, 340.566657)"><g><path d="M 10.078125 -11.125 L 10.078125 0 L 8.25 0 L 8.25 -4.859375 L 3.03125 -4.859375 L 3.03125 0 L 1.203125 0 L 1.203125 -11.125 L 3.03125 -11.125 L 3.03125 -6.359375 L 8.25 -6.359375 L 8.25 -11.125 Z M 10.078125 -11.125 "/></g></g></g><g fill="#11663a" fill-opacity="1"><g transform="translate(118.31078, 340.566657)"><g><path d="M 3.03125 -9.640625 L 3.03125 -6.390625 L 6.859375 -6.390625 L 6.859375 -4.890625 L 3.03125 -4.890625 L 3.03125 -1.484375 L 7.34375 -1.484375 L 7.34375 0 L 1.203125 0 L 1.203125 -11.140625 L 7.34375 -11.140625 L 7.34375 -9.640625 Z M 3.03125 -9.640625 "/></g></g></g><g fill="#11663a" fill-opacity="1"><g transform="translate(126.692765, 340.566657)"><g/></g></g><g fill="#11663a" fill-opacity="1"><g transform="translate(130.851765, 340.566657)"><g><path d="M 6.96875 0 L 4.421875 -4.453125 L 3.03125 -4.453125 L 3.03125 0 L 1.203125 0 L 1.203125 -11.125 L 5.046875 -11.125 C 5.890625 -11.125 6.609375 -10.972656 7.203125 -10.671875 C 7.796875 -10.367188 8.238281 -9.96875 8.53125 -9.46875 C 8.820312 -8.96875 8.96875 -8.410156 8.96875 -7.796875 C 8.96875 -7.066406 8.757812 -6.40625 8.34375 -5.8125 C 7.925781 -5.21875 7.28125 -4.816406 6.40625 -4.609375 L 9.15625 0 Z M 3.03125 -5.90625 L 5.046875 -5.90625 C 5.722656 -5.90625 6.234375 -6.070312 6.578125 -6.40625 C 6.929688 -6.75 7.109375 -7.210938 7.109375 -7.796875 C 7.109375 -8.367188 6.9375 -8.816406 6.59375 -9.140625 C 6.25 -9.460938 5.734375 -9.625 5.046875 -9.625 L 3.03125 -9.625 Z M 3.03125 -5.90625 "/></g></g></g><g fill="#11663a" fill-opacity="1"><g transform="translate(140.961337, 340.566657)"><g><path d="M 3.03125 -9.640625 L 3.03125 -6.390625 L 6.859375 -6.390625 L 6.859375 -4.890625 L 3.03125 -4.890625 L 3.03125 -1.484375 L 7.34375 -1.484375 L 7.34375 0 L 1.203125 0 L 1.203125 -11.140625 L 7.34375 -11.140625 L 7.34375 -9.640625 Z M 3.03125 -9.640625 "/></g></g></g><g fill="#11663a" fill-opacity="1"><g transform="translate(149.343322, 340.566657)"><g><path d="M 4.859375 0.109375 C 4.117188 0.109375 3.445312 -0.0195312 2.84375 -0.28125 C 2.25 -0.539062 1.78125 -0.910156 1.4375 -1.390625 C 1.09375 -1.867188 0.921875 -2.429688 0.921875 -3.078125 L 2.875 -3.078125 C 2.914062 -2.597656 3.101562 -2.203125 3.4375 -1.890625 C 3.78125 -1.578125 4.253906 -1.421875 4.859375 -1.421875 C 5.492188 -1.421875 5.984375 -1.570312 6.328125 -1.875 C 6.679688 -2.1875 6.859375 -2.582031 6.859375 -3.0625 C 6.859375 -3.425781 6.75 -3.722656 6.53125 -3.953125 C 6.3125 -4.191406 6.039062 -4.375 5.71875 -4.5 C 5.394531 -4.632812 4.945312 -4.773438 4.375 -4.921875 C 3.644531 -5.117188 3.050781 -5.316406 2.59375 -5.515625 C 2.144531 -5.710938 1.757812 -6.019531 1.4375 -6.4375 C 1.113281 -6.851562 0.953125 -7.40625 0.953125 -8.09375 C 0.953125 -8.738281 1.113281 -9.300781 1.4375 -9.78125 C 1.757812 -10.257812 2.207031 -10.625 2.78125 -10.875 C 3.351562 -11.132812 4.019531 -11.265625 4.78125 -11.265625 C 5.863281 -11.265625 6.75 -10.992188 7.4375 -10.453125 C 8.125 -9.910156 8.503906 -9.171875 8.578125 -8.234375 L 6.5625 -8.234375 C 6.53125 -8.640625 6.335938 -8.988281 5.984375 -9.28125 C 5.628906 -9.570312 5.164062 -9.71875 4.59375 -9.71875 C 4.070312 -9.71875 3.644531 -9.582031 3.3125 -9.3125 C 2.976562 -9.039062 2.8125 -8.65625 2.8125 -8.15625 C 2.8125 -7.8125 2.914062 -7.53125 3.125 -7.3125 C 3.332031 -7.09375 3.597656 -6.921875 3.921875 -6.796875 C 4.242188 -6.671875 4.679688 -6.535156 5.234375 -6.390625 C 5.972656 -6.179688 6.570312 -5.972656 7.03125 -5.765625 C 7.5 -5.566406 7.894531 -5.253906 8.21875 -4.828125 C 8.539062 -4.410156 8.703125 -3.851562 8.703125 -3.15625 C 8.703125 -2.582031 8.550781 -2.046875 8.25 -1.546875 C 7.945312 -1.046875 7.503906 -0.644531 6.921875 -0.34375 C 6.335938 -0.0390625 5.648438 0.109375 4.859375 0.109375 Z M 4.859375 0.109375 "/></g></g></g><g fill="#11663a" fill-opacity="1"><g transform="translate(159.004996, 340.566657)"><g><path d="M 8.390625 -11.125 L 8.390625 -9.625 L 5.421875 -9.625 L 5.421875 0 L 3.59375 0 L 3.59375 -9.625 L 0.625 -9.625 L 0.625 -11.125 Z M 8.390625 -11.125 "/></g></g></g><g fill="#11663a" fill-opacity="1"><g transform="translate(168.02683, 340.566657)"><g><path d="M 7.90625 -2.265625 L 3.25 -2.265625 L 2.453125 0 L 0.546875 0 L 4.53125 -11.140625 L 6.640625 -11.140625 L 10.625 0 L 8.703125 0 Z M 7.390625 -3.765625 L 5.578125 -8.921875 L 3.765625 -3.765625 Z M 7.390625 -3.765625 "/></g></g></g><g fill="#11663a" fill-opacity="1"><g transform="translate(179.176156, 340.566657)"><g><path d="M 3.015625 -11.125 L 3.015625 -4.03125 C 3.015625 -3.1875 3.234375 -2.550781 3.671875 -2.125 C 4.117188 -1.695312 4.734375 -1.484375 5.515625 -1.484375 C 6.316406 -1.484375 6.9375 -1.695312 7.375 -2.125 C 7.820312 -2.550781 8.046875 -3.1875 8.046875 -4.03125 L 8.046875 -11.125 L 9.875 -11.125 L 9.875 -4.0625 C 9.875 -3.15625 9.675781 -2.382812 9.28125 -1.75 C 8.882812 -1.125 8.351562 -0.65625 7.6875 -0.34375 C 7.03125 -0.0390625 6.300781 0.109375 5.5 0.109375 C 4.695312 0.109375 3.96875 -0.0390625 3.3125 -0.34375 C 2.664062 -0.65625 2.148438 -1.125 1.765625 -1.75 C 1.378906 -2.382812 1.1875 -3.15625 1.1875 -4.0625 L 1.1875 -11.125 Z M 3.015625 -11.125 "/></g></g></g><g fill="#11663a" fill-opacity="1"><g transform="translate(190.213501, 340.566657)"><g><path d="M 6.96875 0 L 4.421875 -4.453125 L 3.03125 -4.453125 L 3.03125 0 L 1.203125 0 L 1.203125 -11.125 L 5.046875 -11.125 C 5.890625 -11.125 6.609375 -10.972656 7.203125 -10.671875 C 7.796875 -10.367188 8.238281 -9.96875 8.53125 -9.46875 C 8.820312 -8.96875 8.96875 -8.410156 8.96875 -7.796875 C 8.96875 -7.066406 8.757812 -6.40625 8.34375 -5.8125 C 7.925781 -5.21875 7.28125 -4.816406 6.40625 -4.609375 L 9.15625 0 Z M 3.03125 -5.90625 L 5.046875 -5.90625 C 5.722656 -5.90625 6.234375 -6.070312 6.578125 -6.40625 C 6.929688 -6.75 7.109375 -7.210938 7.109375 -7.796875 C 7.109375 -8.367188 6.9375 -8.816406 6.59375 -9.140625 C 6.25 -9.460938 5.734375 -9.625 5.046875 -9.625 L 3.03125 -9.625 Z M 3.03125 -5.90625 "/></g></g></g><g fill="#11663a" fill-opacity="1"><g transform="translate(200.323074, 340.566657)"><g><path d="M 7.90625 -2.265625 L 3.25 -2.265625 L 2.453125 0 L 0.546875 0 L 4.53125 -11.140625 L 6.640625 -11.140625 L 10.625 0 L 8.703125 0 Z M 7.390625 -3.765625 L 5.578125 -8.921875 L 3.765625 -3.765625 Z M 7.390625 -3.765625 "/></g></g></g><g fill="#11663a" fill-opacity="1"><g transform="translate(211.472399, 340.566657)"><g><path d="M 10.34375 0 L 8.515625 0 L 3.03125 -8.296875 L 3.03125 0 L 1.203125 0 L 1.203125 -11.140625 L 3.03125 -11.140625 L 8.515625 -2.84375 L 8.515625 -11.140625 L 10.34375 -11.140625 Z M 10.34375 0 "/></g></g></g><g fill="#11663a" fill-opacity="1"><g transform="translate(223.005628, 340.566657)"><g><path d="M 8.390625 -11.125 L 8.390625 -9.625 L 5.421875 -9.625 L 5.421875 0 L 3.59375 0 L 3.59375 -9.625 L 0.625 -9.625 L 0.625 -11.125 Z M 8.390625 -11.125 "/></g></g></g><g fill="#11663a" fill-opacity="1"><g transform="translate(232.027463, 340.566657)"><g/></g></g><g fill="#11663a" fill-opacity="1"><g transform="translate(236.186463, 340.566657)"><g><path d="M 6.265625 0.109375 C 5.234375 0.109375 4.28125 -0.128906 3.40625 -0.609375 C 2.539062 -1.097656 1.851562 -1.773438 1.34375 -2.640625 C 0.84375 -3.515625 0.59375 -4.492188 0.59375 -5.578125 C 0.59375 -6.671875 0.84375 -7.648438 1.34375 -8.515625 C 1.851562 -9.378906 2.539062 -10.050781 3.40625 -10.53125 C 4.28125 -11.019531 5.234375 -11.265625 6.265625 -11.265625 C 7.316406 -11.265625 8.273438 -11.019531 9.140625 -10.53125 C 10.015625 -10.050781 10.703125 -9.378906 11.203125 -8.515625 C 11.703125 -7.648438 11.953125 -6.671875 11.953125 -5.578125 C 11.953125 -4.492188 11.703125 -3.515625 11.203125 -2.640625 C 10.703125 -1.773438 10.015625 -1.097656 9.140625 -0.609375 C 8.273438 -0.128906 7.316406 0.109375 6.265625 0.109375 Z M 6.265625 -1.46875 C 7.003906 -1.46875 7.660156 -1.632812 8.234375 -1.96875 C 8.816406 -2.3125 9.269531 -2.796875 9.59375 -3.421875 C 9.914062 -4.046875 10.078125 -4.765625 10.078125 -5.578125 C 10.078125 -6.398438 9.914062 -7.117188 9.59375 -7.734375 C 9.269531 -8.359375 8.816406 -8.832031 8.234375 -9.15625 C 7.660156 -9.488281 7.003906 -9.65625 6.265625 -9.65625 C 5.535156 -9.65625 4.878906 -9.488281 4.296875 -9.15625 C 3.722656 -8.832031 3.273438 -8.359375 2.953125 -7.734375 C 2.628906 -7.117188 2.46875 -6.398438 2.46875 -5.578125 C 2.46875 -4.765625 2.628906 -4.046875 2.953125 -3.421875 C 3.273438 -2.796875 3.722656 -2.3125 4.296875 -1.96875 C 4.878906 -1.632812 5.535156 -1.46875 6.265625 -1.46875 Z M 6.265625 -1.46875 "/></g></g></g><g fill="#11663a" fill-opacity="1"><g transform="translate(248.727436, 340.566657)"><g><path d="M 7.75 -11.125 L 7.75 -9.625 L 3.03125 -9.625 L 3.03125 -6.359375 L 6.703125 -6.359375 L 6.703125 -4.859375 L 3.03125 -4.859375 L 3.03125 0 L 1.203125 0 L 1.203125 -11.125 Z M 7.75 -11.125 "/></g></g></g><g fill="#11663a" fill-opacity="1"><g transform="translate(256.965442, 340.566657)"><g/></g></g><g fill="#11663a" fill-opacity="1"><g transform="translate(261.124454, 340.566657)"><g><path d="M 8.390625 -11.125 L 8.390625 -9.625 L 5.421875 -9.625 L 5.421875 0 L 3.59375 0 L 3.59375 -9.625 L 0.625 -9.625 L 0.625 -11.125 Z M 8.390625 -11.125 "/></g></g></g><g fill="#11663a" fill-opacity="1"><g transform="translate(270.146289, 340.566657)"><g><path d="M 10.078125 -11.125 L 10.078125 0 L 8.25 0 L 8.25 -4.859375 L 3.03125 -4.859375 L 3.03125 0 L 1.203125 0 L 1.203125 -11.125 L 3.03125 -11.125 L 3.03125 -6.359375 L 8.25 -6.359375 L 8.25 -11.125 Z M 10.078125 -11.125 "/></g></g></g><g fill="#11663a" fill-opacity="1"><g transform="translate(281.423571, 340.566657)"><g><path d="M 3.03125 -9.640625 L 3.03125 -6.390625 L 6.859375 -6.390625 L 6.859375 -4.890625 L 3.03125 -4.890625 L 3.03125 -1.484375 L 7.34375 -1.484375 L 7.34375 0 L 1.203125 0 L 1.203125 -11.140625 L 7.34375 -11.140625 L 7.34375 -9.640625 Z M 3.03125 -9.640625 "/></g></g></g><g fill="#11663a" fill-opacity="1"><g transform="translate(289.805543, 340.566657)"><g/></g></g><g fill="#11663a" fill-opacity="1"><g transform="translate(293.964555, 340.566657)"><g><path d="M 4.828125 -11.125 C 6.015625 -11.125 7.050781 -10.894531 7.9375 -10.4375 C 8.832031 -9.988281 9.519531 -9.335938 10 -8.484375 C 10.488281 -7.640625 10.734375 -6.648438 10.734375 -5.515625 C 10.734375 -4.390625 10.488281 -3.410156 10 -2.578125 C 9.519531 -1.742188 8.832031 -1.101562 7.9375 -0.65625 C 7.050781 -0.21875 6.015625 0 4.828125 0 L 1.203125 0 L 1.203125 -11.125 Z M 4.828125 -1.484375 C 6.128906 -1.484375 7.125 -1.832031 7.8125 -2.53125 C 8.507812 -3.238281 8.859375 -4.234375 8.859375 -5.515625 C 8.859375 -6.804688 8.507812 -7.8125 7.8125 -8.53125 C 7.125 -9.257812 6.128906 -9.625 4.828125 -9.625 L 3.03125 -9.625 L 3.03125 -1.484375 Z M 4.828125 -1.484375 "/></g></g></g><g fill="#11663a" fill-opacity="1"><g transform="translate(305.305832, 340.566657)"><g><path d="M 7.90625 -2.265625 L 3.25 -2.265625 L 2.453125 0 L 0.546875 0 L 4.53125 -11.140625 L 6.640625 -11.140625 L 10.625 0 L 8.703125 0 Z M 7.390625 -3.765625 L 5.578125 -8.921875 L 3.765625 -3.765625 Z M 7.390625 -3.765625 "/></g></g></g><g fill="#11663a" fill-opacity="1"><g transform="translate(316.455169, 340.566657)"><g><path d="M 9.4375 -11.125 L 5.765625 -4.03125 L 5.765625 0 L 3.9375 0 L 3.9375 -4.03125 L 0.234375 -11.125 L 2.265625 -11.125 L 4.84375 -5.65625 L 7.421875 -11.125 Z M 9.4375 -11.125 "/></g></g></g><g clip-path="url(#298027a39a)"><g clip-path="url(#2d05825626)"><path fill="#f0eee6" d="M 82.617188 74.925781 L 292.382812 74.925781 L 292.382812 284.691406 L 82.617188 284.691406 Z M 82.617188 74.925781 " fill-opacity="1" fill-rule="nonzero"/></g></g><path fill="#f0eee6" d="M 140.34375 236.660156 C 129.550781 236.660156 120.765625 227.878906 120.765625 217.082031 L 120.765625 154.058594 C 120.765625 143.265625 129.550781 134.484375 140.34375 134.484375 L 234.652344 134.484375 C 245.449219 134.484375 254.230469 143.265625 254.230469 154.058594 L 254.230469 217.082031 C 254.230469 227.878906 245.449219 236.660156 234.652344 236.660156 Z M 140.34375 236.660156 " fill-opacity="1" fill-rule="nonzero"/><g clip-path="url(#bf72961901)"><path fill="#11663a" d="M 234.652344 135.921875 C 244.671875 135.921875 252.789062 144.042969 252.789062 154.058594 L 252.789062 217.082031 C 252.789062 227.101562 244.671875 235.222656 234.652344 235.222656 L 140.34375 235.222656 C 130.324219 235.222656 122.207031 227.101562 122.207031 217.082031 L 122.207031 154.058594 C 122.207031 144.042969 130.324219 135.921875 140.34375 135.921875 L 234.652344 135.921875 M 234.652344 133.042969 L 140.34375 133.042969 C 128.753906 133.042969 119.328125 142.46875 119.328125 154.058594 L 119.328125 217.082031 C 119.328125 228.671875 128.753906 238.101562 140.34375 238.101562 L 234.652344 238.101562 C 246.242188 238.101562 255.667969 228.671875 255.667969 217.082031 L 255.667969 154.058594 C 255.667969 142.46875 246.242188 133.042969 234.652344 133.042969 Z M 234.652344 133.042969 " fill-opacity="1" fill-rule="nonzero"/></g><path fill="#f0eee6" d="M 120.765625 160.9375 L 120.765625 154.058594 C 120.765625 143.265625 129.550781 134.484375 140.34375 134.484375 L 234.652344 134.484375 C 245.449219 134.484375 254.230469 143.265625 254.230469 154.058594 L 254.230469 160.9375 Z M 120.765625 160.9375 " fill-opacity="1" fill-rule="nonzero"/><g clip-path="url(#5d6597675d)"><path fill="#11663a" d="M 234.652344 135.921875 C 244.671875 135.921875 252.789062 144.042969 252.789062 154.058594 L 252.789062 159.5 L 122.207031 159.5 L 122.207031 154.058594 C 122.207031 144.042969 130.324219 135.921875 140.34375 135.921875 L 234.652344 135.921875 M 234.652344 133.042969 L 140.34375 133.042969 C 128.753906 133.042969 119.328125 142.46875 119.328125 154.058594 L 119.328125 162.378906 L 255.667969 162.378906 L 255.667969 154.058594 C 255.667969 142.46875 246.242188 133.042969 234.652344 133.042969 Z M 234.652344 133.042969 " fill-opacity="1" fill-rule="nonzero"/></g><path fill="#f0eee6" d="M 149.410156 147.371094 C 149.410156 149.1875 147.9375 150.65625 146.125 150.65625 C 144.308594 150.65625 142.835938 149.1875 142.835938 147.371094 L 142.835938 126.171875 C 142.835938 124.359375 144.308594 122.886719 146.125 122.886719 C 147.9375 122.886719 149.410156 124.359375 149.410156 126.171875 Z M 149.410156 147.371094 " fill-opacity="1" fill-rule="nonzero"/><g clip-path="url(#968958f9e9)"><path fill="#11663a" d="M 146.125 152.097656 C 143.519531 152.097656 141.398438 149.976562 141.398438 147.371094 L 141.398438 126.171875 C 141.398438 123.566406 143.519531 121.445312 146.125 121.445312 C 148.730469 121.445312 150.851562 123.566406 150.851562 126.171875 L 150.851562 147.371094 C 150.851562 149.976562 148.730469 152.097656 146.125 152.097656 Z M 146.125 124.324219 C 145.105469 124.324219 144.277344 125.15625 144.277344 126.171875 L 144.277344 147.371094 C 144.277344 148.390625 145.105469 149.21875 146.125 149.21875 C 147.144531 149.21875 147.972656 148.390625 147.972656 147.371094 L 147.972656 126.171875 C 147.972656 125.15625 147.144531 124.324219 146.125 124.324219 Z M 146.125 124.324219 " fill-opacity="1" fill-rule="nonzero"/></g><path fill="#f0eee6" d="M 176.164062 147.371094 C 176.164062 149.1875 174.691406 150.65625 172.875 150.65625 C 171.0625 150.65625 169.589844 149.1875 169.589844 147.371094 L 169.589844 126.171875 C 169.589844 124.359375 171.0625 122.886719 172.875 122.886719 C 174.691406 122.886719 176.164062 124.359375 176.164062 126.171875 Z M 176.164062 147.371094 " fill-opacity="1" fill-rule="nonzero"/><g clip-path="url(#6a02b73413)"><path fill="#11663a" d="M 172.875 152.097656 C 170.269531 152.097656 168.148438 149.976562 168.148438 147.371094 L 168.148438 126.171875 C 168.148438 123.566406 170.269531 121.445312 172.875 121.445312 C 175.480469 121.445312 177.601562 123.566406 177.601562 126.171875 L 177.601562 147.371094 C 177.601562 149.976562 175.480469 152.097656 172.875 152.097656 Z M 172.875 124.324219 C 171.855469 124.324219 171.027344 125.15625 171.027344 126.171875 L 171.027344 147.371094 C 171.027344 148.390625 171.855469 149.21875 172.875 149.21875 C 173.894531 149.21875 174.722656 148.390625 174.722656 147.371094 L 174.722656 126.171875 C 174.722656 125.15625 173.894531 124.324219 172.875 124.324219 Z M 172.875 124.324219 " fill-opacity="1" fill-rule="nonzero"/></g><path fill="#f0eee6" d="M 202.914062 147.371094 C 202.914062 149.1875 201.441406 150.65625 199.628906 150.65625 C 197.8125 150.65625 196.339844 149.1875 196.339844 147.371094 L 196.339844 126.171875 C 196.339844 124.359375 197.8125 122.886719 199.628906 122.886719 C 201.441406 122.886719 202.914062 124.359375 202.914062 126.171875 Z M 202.914062 147.371094 " fill-opacity="1" fill-rule="nonzero"/><g clip-path="url(#0f73743c6f)"><path fill="#11663a" d="M 199.628906 152.097656 C 197.023438 152.097656 194.902344 149.976562 194.902344 147.371094 L 194.902344 126.171875 C 194.902344 123.566406 197.023438 121.445312 199.628906 121.445312 C 202.234375 121.445312 204.355469 123.566406 204.355469 126.171875 L 204.355469 147.371094 C 204.355469 149.976562 202.234375 152.097656 199.628906 152.097656 Z M 199.628906 124.324219 C 198.609375 124.324219 197.78125 125.15625 197.78125 126.171875 L 197.78125 147.371094 C 197.78125 148.390625 198.609375 149.21875 199.628906 149.21875 C 200.648438 149.21875 201.476562 148.390625 201.476562 147.371094 L 201.476562 126.171875 C 201.476562 125.15625 200.648438 124.324219 199.628906 124.324219 Z M 199.628906 124.324219 " fill-opacity="1" fill-rule="nonzero"/></g><path fill="#f0eee6" d="M 229.667969 147.371094 C 229.667969 149.1875 228.195312 150.65625 226.378906 150.65625 C 224.5625 150.65625 223.09375 149.1875 223.09375 147.371094 L 223.09375 126.171875 C 223.09375 124.359375 224.5625 122.886719 226.378906 122.886719 C 228.195312 122.886719 229.667969 124.359375 229.667969 126.171875 Z M 229.667969 147.371094 " fill-opacity="1" fill-rule="nonzero"/><g clip-path="url(#231d42104d)"><path fill="#11663a" d="M 226.378906 152.097656 C 223.773438 152.097656 221.652344 149.976562 221.652344 147.371094 L 221.652344 126.171875 C 221.652344 123.566406 223.773438 121.445312 226.378906 121.445312 C 228.984375 121.445312 231.105469 123.566406 231.105469 126.171875 L 231.105469 147.371094 C 231.105469 149.976562 228.984375 152.097656 226.378906 152.097656 Z M 226.378906 124.324219 C 225.359375 124.324219 224.53125 125.15625 224.53125 126.171875 L 224.53125 147.371094 C 224.53125 148.390625 225.359375 149.21875 226.378906 149.21875 C 227.398438 149.21875 228.226562 148.390625 228.226562 147.371094 L 228.226562 126.171875 C 228.226562 125.15625 227.398438 124.324219 226.378906 124.324219 Z M 226.378906 124.324219 " fill-opacity="1" fill-rule="nonzero"/></g><path fill="#11663a" d="M 152.464844 189.480469 L 136.3125 189.480469 C 134.46875 189.480469 132.972656 187.984375 132.972656 186.140625 L 132.972656 171.414062 C 132.972656 169.574219 134.46875 168.074219 136.3125 168.074219 L 152.464844 168.074219 C 154.304688 168.074219 155.804688 169.574219 155.804688 171.414062 L 155.804688 186.140625 C 155.804688 187.984375 154.304688 189.480469 152.464844 189.480469 Z M 136.3125 170.957031 C 136.058594 170.957031 135.851562 171.160156 135.851562 171.414062 L 135.851562 186.140625 C 135.851562 186.394531 136.058594 186.601562 136.3125 186.601562 L 152.464844 186.601562 C 152.71875 186.601562 152.925781 186.394531 152.925781 186.140625 L 152.925781 171.414062 C 152.925781 171.160156 152.71875 170.957031 152.464844 170.957031 Z M 136.3125 170.957031 " fill-opacity="1" fill-rule="nonzero"/><path fill="#11663a" d="M 209.945312 189.480469 L 193.792969 189.480469 C 191.953125 189.480469 190.453125 187.984375 190.453125 186.140625 L 190.453125 171.414062 C 190.453125 169.574219 191.953125 168.074219 193.792969 168.074219 L 209.945312 168.074219 C 211.785156 168.074219 213.285156 169.574219 213.285156 171.414062 L 213.285156 186.140625 C 213.285156 187.984375 211.785156 189.480469 209.945312 189.480469 Z M 193.792969 170.957031 C 193.539062 170.957031 193.332031 171.160156 193.332031 171.414062 L 193.332031 186.140625 C 193.332031 186.394531 193.539062 186.601562 193.792969 186.601562 L 209.945312 186.601562 C 210.199219 186.601562 210.40625 186.394531 210.40625 186.140625 L 210.40625 171.414062 C 210.40625 171.160156 210.199219 170.957031 209.945312 170.957031 Z M 193.792969 170.957031 " fill-opacity="1" fill-rule="nonzero"/><path fill="#11663a" d="M 238.6875 189.480469 L 222.53125 189.480469 C 220.691406 189.480469 219.195312 187.984375 219.195312 186.140625 L 219.195312 171.414062 C 219.195312 169.574219 220.691406 168.074219 222.53125 168.074219 L 238.6875 168.074219 C 240.527344 168.074219 242.027344 169.574219 242.027344 171.414062 L 242.027344 186.140625 C 242.027344 187.984375 240.527344 189.480469 238.6875 189.480469 Z M 222.53125 170.957031 C 222.28125 170.957031 222.074219 171.160156 222.074219 171.414062 L 222.074219 186.140625 C 222.074219 186.394531 222.277344 186.601562 222.53125 186.601562 L 238.6875 186.601562 C 238.941406 186.601562 239.148438 186.394531 239.148438 186.140625 L 239.148438 171.414062 C 239.148438 171.160156 238.941406 170.957031 238.6875 170.957031 Z M 222.53125 170.957031 " fill-opacity="1" fill-rule="nonzero"/><path fill="#11663a" d="M 152.464844 218.9375 L 136.3125 218.9375 C 134.46875 218.9375 132.972656 217.4375 132.972656 215.597656 L 132.972656 200.871094 C 132.972656 199.027344 134.46875 197.53125 136.3125 197.53125 L 152.464844 197.53125 C 154.304688 197.53125 155.804688 199.027344 155.804688 200.871094 L 155.804688 215.597656 C 155.804688 217.4375 154.304688 218.9375 152.464844 218.9375 Z M 136.3125 200.410156 C 136.058594 200.410156 135.851562 200.617188 135.851562 200.871094 L 135.851562 215.597656 C 135.851562 215.851562 136.058594 216.058594 136.3125 216.058594 L 152.464844 216.058594 C 152.71875 216.058594 152.925781 215.851562 152.925781 215.597656 L 152.925781 200.871094 C 152.925781 200.617188 152.71875 200.410156 152.464844 200.410156 Z M 136.3125 200.410156 " fill-opacity="1" fill-rule="nonzero"/><path fill="#11663a" d="M 181.203125 218.9375 L 165.050781 218.9375 C 163.210938 218.9375 161.710938 217.4375 161.710938 215.597656 L 161.710938 200.871094 C 161.710938 199.027344 163.210938 197.53125 165.050781 197.53125 L 181.203125 197.53125 C 183.046875 197.53125 184.542969 199.027344 184.542969 200.871094 L 184.542969 215.597656 C 184.542969 217.4375 183.046875 218.9375 181.203125 218.9375 Z M 165.050781 200.410156 C 164.796875 200.410156 164.589844 200.617188 164.589844 200.871094 L 164.589844 215.597656 C 164.589844 215.851562 164.796875 216.058594 165.050781 216.058594 L 181.203125 216.058594 C 181.457031 216.058594 181.664062 215.851562 181.664062 215.597656 L 181.664062 200.871094 C 181.664062 200.617188 181.457031 200.410156 181.203125 200.410156 Z M 165.050781 200.410156 " fill-opacity="1" fill-rule="nonzero"/><path fill="#11663a" d="M 209.945312 218.9375 L 193.792969 218.9375 C 191.953125 218.9375 190.453125 217.4375 190.453125 215.597656 L 190.453125 200.871094 C 190.453125 199.027344 191.953125 197.53125 193.792969 197.53125 L 209.945312 197.53125 C 211.785156 197.53125 213.285156 199.027344 213.285156 200.871094 L 213.285156 215.597656 C 213.285156 217.4375 211.785156 218.9375 209.945312 218.9375 Z M 193.792969 200.410156 C 193.539062 200.410156 193.332031 200.617188 193.332031 200.871094 L 193.332031 215.597656 C 193.332031 215.851562 193.539062 216.058594 193.792969 216.058594 L 209.945312 216.058594 C 210.199219 216.058594 210.40625 215.851562 210.40625 215.597656 L 210.40625 200.871094 C 210.40625 200.617188 210.199219 200.410156 209.945312 200.410156 Z M 193.792969 200.410156 " fill-opacity="1" fill-rule="nonzero"/><path fill="#11663a" d="M 238.6875 218.9375 L 222.53125 218.9375 C 220.691406 218.9375 219.195312 217.4375 219.195312 215.597656 L 219.195312 200.871094 C 219.195312 199.027344 220.691406 197.53125 222.53125 197.53125 L 238.6875 197.53125 C 240.527344 197.53125 242.027344 199.027344 242.027344 200.871094 L 242.027344 215.597656 C 242.027344 217.4375 240.527344 218.9375 238.6875 218.9375 Z M 222.53125 200.410156 C 222.28125 200.410156 222.074219 200.617188 222.074219 200.871094 L 222.074219 215.597656 C 222.074219 215.851562 222.277344 216.058594 222.53125 216.058594 L 238.6875 216.058594 C 238.941406 216.058594 239.148438 215.851562 239.148438 215.597656 L 239.148438 200.871094 C 239.148438 200.617188 238.941406 200.410156 238.6875 200.410156 Z M 222.53125 200.410156 " fill-opacity="1" fill-rule="nonzero"/><path fill="#11663a" d="M 171.351562 188.152344 L 164.09375 177.542969 C 163.644531 176.886719 163.8125 175.992188 164.46875 175.542969 C 165.125 175.09375 166.019531 175.261719 166.46875 175.917969 L 171.304688 182.988281 L 180.703125 168.722656 C 181.140625 168.058594 182.035156 167.875 182.699219 168.3125 C 183.363281 168.75 183.546875 169.644531 183.109375 170.308594 Z M 171.351562 188.152344 " fill-opacity="1" fill-rule="nonzero"/><g clip-path="url(#0c8aab55d9)"><g clip-path="url(#3416f53e33)"><path fill="#a4c4a2" d="M 11.085938 11.203125 L 63.914062 11.203125 L 63.914062 64.027344 L 11.085938 64.027344 Z M 11.085938 11.203125 " fill-opacity="1" fill-rule="nonzero"/></g></g><g fill="#ffffff" fill-opacity="1"><g transform="translate(32.063227, 44.202126)"><g><path d="M 0.734375 -2.609375 C 1.171875 -2.941406 1.367188 -3.097656 1.328125 -3.078125 C 2.566406 -4.097656 3.546875 -4.9375 4.265625 -5.59375 C 4.984375 -6.257812 5.585938 -6.953125 6.078125 -7.671875 C 6.578125 -8.398438 6.828125 -9.101562 6.828125 -9.78125 C 6.828125 -10.300781 6.703125 -10.707031 6.453125 -11 C 6.210938 -11.289062 5.851562 -11.4375 5.375 -11.4375 C 4.894531 -11.4375 4.519531 -11.253906 4.25 -10.890625 C 3.976562 -10.535156 3.84375 -10.023438 3.84375 -9.359375 L 0.703125 -9.359375 C 0.722656 -10.441406 0.953125 -11.34375 1.390625 -12.0625 C 1.828125 -12.78125 2.40625 -13.3125 3.125 -13.65625 C 3.84375 -14 4.640625 -14.171875 5.515625 -14.171875 C 7.015625 -14.171875 8.144531 -13.785156 8.90625 -13.015625 C 9.675781 -12.242188 10.0625 -11.238281 10.0625 -10 C 10.0625 -8.644531 9.597656 -7.382812 8.671875 -6.21875 C 7.753906 -5.0625 6.582031 -3.929688 5.15625 -2.828125 L 10.28125 -2.828125 L 10.28125 -0.1875 L 0.734375 -0.1875 Z M 0.734375 -2.609375 "/></g></g></g><g fill="#11663a" fill-opacity="1"><g transform="translate(71.24202, 157.123301)"><g><path d="M 1.9375 -7.328125 C 1.644531 -6.128906 1.191406 -5.101562 0.578125 -4.25 C -0.0351562 -3.394531 -0.789062 -2.773438 -1.6875 -2.390625 C -2.59375 -2.003906 -3.585938 -1.925781 -4.671875 -2.15625 L -3.65625 -6.40625 C -3.039062 -6.3125 -2.53125 -6.40625 -2.125 -6.6875 C -1.71875 -6.96875 -1.445312 -7.398438 -1.3125 -7.984375 C -1.175781 -8.566406 -1.195312 -9.0625 -1.375 -9.46875 C -1.5625 -9.882812 -1.898438 -10.148438 -2.390625 -10.265625 C -2.796875 -10.359375 -3.160156 -10.300781 -3.484375 -10.09375 C -3.804688 -9.882812 -4.097656 -9.601562 -4.359375 -9.25 C -4.628906 -8.894531 -4.96875 -8.375 -5.375 -7.6875 C -5.957031 -6.71875 -6.488281 -5.9375 -6.96875 -5.34375 C -7.445312 -4.757812 -8.0625 -4.300781 -8.8125 -3.96875 C -9.570312 -3.632812 -10.46875 -3.585938 -11.5 -3.828125 C -13.019531 -4.191406 -14.082031 -5.03125 -14.6875 -6.34375 C -15.289062 -7.65625 -15.378906 -9.195312 -14.953125 -10.96875 C -14.523438 -12.78125 -13.742188 -14.132812 -12.609375 -15.03125 C -11.484375 -15.925781 -10.140625 -16.226562 -8.578125 -15.9375 L -9.609375 -11.625 C -10.148438 -11.71875 -10.613281 -11.617188 -11 -11.328125 C -11.382812 -11.046875 -11.644531 -10.628906 -11.78125 -10.078125 C -11.894531 -9.585938 -11.859375 -9.164062 -11.671875 -8.8125 C -11.492188 -8.457031 -11.164062 -8.222656 -10.6875 -8.109375 C -10.15625 -7.984375 -9.679688 -8.128906 -9.265625 -8.546875 C -8.847656 -8.972656 -8.34375 -9.675781 -7.75 -10.65625 C -7.125 -11.625 -6.570312 -12.398438 -6.09375 -12.984375 C -5.613281 -13.578125 -5.003906 -14.039062 -4.265625 -14.375 C -3.535156 -14.707031 -2.675781 -14.757812 -1.6875 -14.53125 C -0.757812 -14.300781 0.0234375 -13.859375 0.671875 -13.203125 C 1.328125 -12.546875 1.773438 -11.707031 2.015625 -10.6875 C 2.253906 -9.675781 2.226562 -8.554688 1.9375 -7.328125 Z M 1.9375 -7.328125 "/></g></g></g><g fill="#11663a" fill-opacity="1"><g transform="translate(74.486035, 143.543249)"><g><path d="M -10.875 -9.84375 L -7.671875 -8.703125 L -5.8125 -13.875 L -2.828125 -12.796875 L -4.6875 -7.625 L -1.203125 -6.375 L 0.90625 -12.21875 L 4 -11.109375 L 0.5 -1.390625 L -15.359375 -7.078125 L -11.859375 -16.796875 L -8.765625 -15.6875 Z M -10.875 -9.84375 "/></g></g></g><g fill="#11663a" fill-opacity="1"><g transform="translate(78.543821, 132.035359)"><g><path d="M -9.1875 -19.609375 L -6.234375 -18.171875 L -8.1875 -14.15625 L 4 -8.21875 L 2.203125 -4.53125 L -9.984375 -10.46875 L -11.9375 -6.453125 L -14.890625 -7.890625 Z M -9.1875 -19.609375 "/></g></g></g><g fill="#11663a" fill-opacity="1"><g transform="translate(84.643553, 119.859716)"><g/></g></g><g fill="#11663a" fill-opacity="1"><g transform="translate(86.616035, 115.86611)"><g><path d="M 4.546875 -11.46875 L 0.890625 -6.359375 L 2.71875 -3.8125 L 0.234375 -0.3125 L -9.9375 -15.078125 L -7.171875 -18.9375 L 10.078125 -14.09375 L 7.546875 -10.5625 Z M 1.359375 -12.46875 L -4.875 -14.34375 L -1.0625 -9.078125 Z M 1.359375 -12.46875 "/></g></g></g><g fill="#11663a" fill-opacity="1"><g transform="translate(96.721038, 102.173234)"><g/></g></g><g fill="#11663a" fill-opacity="1"><g transform="translate(99.392096, 98.600601)"><g><path d="M -6.125 -17.515625 C -4.84375 -18.753906 -3.476562 -19.582031 -2.03125 -20 C -0.59375 -20.425781 0.828125 -20.429688 2.234375 -20.015625 C 3.640625 -19.609375 4.921875 -18.804688 6.078125 -17.609375 C 7.222656 -16.429688 7.976562 -15.128906 8.34375 -13.703125 C 8.71875 -12.285156 8.671875 -10.859375 8.203125 -9.421875 C 7.734375 -7.984375 6.863281 -6.648438 5.59375 -5.421875 L 1.0625 -1.03125 L -10.65625 -13.125 Z M 2.9375 -7.78125 C 4.050781 -8.863281 4.625 -10.007812 4.65625 -11.21875 C 4.6875 -12.4375 4.160156 -13.601562 3.078125 -14.71875 C 1.992188 -15.832031 0.84375 -16.394531 -0.375 -16.40625 C -1.59375 -16.425781 -2.757812 -15.894531 -3.875 -14.8125 L -5.265625 -13.46875 L 1.546875 -6.4375 Z M 2.9375 -7.78125 "/></g></g></g><g fill="#11663a" fill-opacity="1"><g transform="translate(111.153983, 87.099613)"><g><path d="M 7.921875 -9.453125 L 2.84375 -5.75 L 3.78125 -2.765625 L 0.3125 -0.234375 L -4.6875 -17.421875 L -0.84375 -20.21875 L 14 -10.203125 L 10.5 -7.640625 Z M 5.21875 -11.40625 L -0.109375 -15.15625 L 1.859375 -8.953125 Z M 5.21875 -11.40625 "/></g></g></g><g fill="#11663a" fill-opacity="1"><g transform="translate(124.741254, 77.268457)"><g><path d="M 3.8125 -21.3125 L 5.390625 -18.4375 L 1.484375 -16.296875 L 8.015625 -4.40625 L 4.421875 -2.4375 L -2.109375 -14.328125 L -6.03125 -12.171875 L -7.609375 -15.046875 Z M 3.8125 -21.3125 "/></g></g></g><g fill="#11663a" fill-opacity="1"><g transform="translate(136.480423, 70.80398)"><g><path d="M -0.03125 -14.671875 L 1.265625 -11.53125 L 6.34375 -13.640625 L 7.5625 -10.71875 L 2.484375 -8.609375 L 3.90625 -5.1875 L 9.640625 -7.5625 L 10.90625 -4.53125 L 1.375 -0.5625 L -5.09375 -16.109375 L 4.4375 -20.078125 L 5.703125 -17.046875 Z M -0.03125 -14.671875 "/></g></g></g><g fill="#11663a" fill-opacity="1"><g transform="translate(147.969358, 66.130732)"><g><path d="M 4.4375 -5.4375 L 4.03125 1.9375 L 1.546875 2.75 L 0.75 -4.234375 Z M 4.4375 -5.4375 "/></g></g></g><g fill="#11663a" fill-opacity="1"><g transform="translate(154.189598, 64.118313)"><g/></g></g><g fill="#11663a" fill-opacity="1"><g transform="translate(158.484727, 62.711884)"><g><path d="M 11.953125 -13.890625 C 12.128906 -12.929688 12.070312 -12.015625 11.78125 -11.140625 C 11.488281 -10.265625 10.9375 -9.492188 10.125 -8.828125 C 9.3125 -8.171875 8.226562 -7.710938 6.875 -7.453125 L 4.375 -6.984375 L 5.5 -1.046875 L 1.453125 -0.28125 L -1.6875 -16.828125 L 4.859375 -18.0625 C 6.179688 -18.3125 7.34375 -18.296875 8.34375 -18.015625 C 9.34375 -17.734375 10.144531 -17.234375 10.75 -16.515625 C 11.351562 -15.804688 11.753906 -14.929688 11.953125 -13.890625 Z M 5.953125 -10.609375 C 6.722656 -10.753906 7.265625 -11.039062 7.578125 -11.46875 C 7.890625 -11.90625 7.984375 -12.453125 7.859375 -13.109375 C 7.734375 -13.773438 7.445312 -14.25 7 -14.53125 C 6.550781 -14.820312 5.941406 -14.894531 5.171875 -14.75 L 2.984375 -14.34375 L 3.765625 -10.203125 Z M 5.953125 -10.609375 "/></g></g></g><g fill="#11663a" fill-opacity="1"><g transform="translate(172.591035, 60.185814)"><g><path d="M 3.890625 -17.328125 L 5.5625 -0.5625 L 1.484375 -0.140625 L -0.1875 -16.90625 Z M 3.890625 -17.328125 "/></g></g></g><g fill="#11663a" fill-opacity="1"><g transform="translate(178.890799, 59.235261)"><g><path d="M 0.8125 -8.453125 C 0.8125 -10.109375 1.171875 -11.585938 1.890625 -12.890625 C 2.617188 -14.203125 3.625 -15.21875 4.90625 -15.9375 C 6.195312 -16.664062 7.660156 -17.03125 9.296875 -17.03125 C 11.296875 -17.03125 13.003906 -16.5 14.421875 -15.4375 C 15.835938 -14.375 16.785156 -12.929688 17.265625 -11.109375 L 12.765625 -11.125 C 12.421875 -11.820312 11.941406 -12.351562 11.328125 -12.71875 C 10.710938 -13.09375 10.015625 -13.28125 9.234375 -13.28125 C 7.960938 -13.28125 6.9375 -12.835938 6.15625 -11.953125 C 5.375 -11.078125 4.984375 -9.90625 4.984375 -8.4375 C 4.984375 -6.957031 5.367188 -5.773438 6.140625 -4.890625 C 6.921875 -4.015625 7.945312 -3.578125 9.21875 -3.578125 C 10 -3.578125 10.695312 -3.757812 11.3125 -4.125 C 11.925781 -4.5 12.410156 -5.039062 12.765625 -5.75 L 17.265625 -5.734375 C 16.773438 -3.910156 15.816406 -2.472656 14.390625 -1.421875 C 12.972656 -0.378906 11.265625 0.140625 9.265625 0.140625 C 7.628906 0.140625 6.164062 -0.222656 4.875 -0.953125 C 3.59375 -1.691406 2.59375 -2.707031 1.875 -4 C 1.164062 -5.300781 0.8125 -6.785156 0.8125 -8.453125 Z M 0.8125 -8.453125 "/></g></g></g><g fill="#11663a" fill-opacity="1"><g transform="translate(196.180646, 59.247688)"><g><path d="M 11.140625 1.578125 L 6.578125 -6.578125 L 5.53125 0.78125 L 1.46875 0.203125 L 3.84375 -16.46875 L 7.90625 -15.890625 L 6.859375 -8.578125 L 13.46875 -15.09375 L 18.25 -14.421875 L 10.609375 -7.171875 L 16.109375 2.28125 Z M 11.140625 1.578125 "/></g></g></g><g fill="#11663a" fill-opacity="1"><g transform="translate(212.074452, 61.733169)"><g/></g></g><g fill="#11663a" fill-opacity="1"><g transform="translate(216.500657, 62.49522)"><g><path d="M 20.34375 -11.125 L 11.328125 -2.1875 L 9.625 3.109375 L 5.703125 1.84375 L 7.40625 -3.453125 L 5.328125 -15.984375 L 9.765625 -14.546875 L 10.71875 -6.84375 L 15.953125 -12.546875 Z M 20.34375 -11.125 "/></g></g></g><g fill="#11663a" fill-opacity="1"><g transform="translate(230.936514, 66.987232)"><g><path d="M 8.421875 4.28125 C 7.003906 3.59375 5.863281 2.625 5 1.375 C 4.132812 0.132812 3.640625 -1.242188 3.515625 -2.765625 C 3.398438 -4.285156 3.703125 -5.789062 4.421875 -7.28125 C 5.140625 -8.757812 6.132812 -9.914062 7.40625 -10.75 C 8.675781 -11.59375 10.066406 -12.054688 11.578125 -12.140625 C 13.085938 -12.234375 14.550781 -11.9375 15.96875 -11.25 C 17.394531 -10.550781 18.539062 -9.582031 19.40625 -8.34375 C 20.28125 -7.101562 20.769531 -5.726562 20.875 -4.21875 C 20.988281 -2.707031 20.6875 -1.210938 19.96875 0.265625 C 19.25 1.753906 18.253906 2.921875 16.984375 3.765625 C 15.710938 4.617188 14.320312 5.09375 12.8125 5.1875 C 11.3125 5.28125 9.847656 4.976562 8.421875 4.28125 Z M 10.0625 0.90625 C 11.269531 1.5 12.429688 1.566406 13.546875 1.109375 C 14.671875 0.648438 15.554688 -0.238281 16.203125 -1.5625 C 16.847656 -2.894531 17 -4.132812 16.65625 -5.28125 C 16.320312 -6.4375 15.550781 -7.3125 14.34375 -7.90625 C 13.125 -8.5 11.957031 -8.578125 10.84375 -8.140625 C 9.726562 -7.703125 8.84375 -6.804688 8.1875 -5.453125 C 7.53125 -4.109375 7.375 -2.859375 7.71875 -1.703125 C 8.0625 -0.554688 8.84375 0.3125 10.0625 0.90625 Z M 10.0625 0.90625 "/></g></g></g><g fill="#11663a" fill-opacity="1"><g transform="translate(246.991047, 74.776499)"><g><path d="M 14 -10.859375 L 8.359375 -2.515625 C 7.785156 -1.671875 7.554688 -0.882812 7.671875 -0.15625 C 7.785156 0.5625 8.238281 1.191406 9.03125 1.734375 C 9.820312 2.273438 10.582031 2.460938 11.3125 2.296875 C 12.039062 2.128906 12.691406 1.625 13.265625 0.78125 L 18.90625 -7.5625 L 22.296875 -5.25 L 16.671875 3.078125 C 15.816406 4.328125 14.835938 5.203125 13.734375 5.703125 C 12.628906 6.203125 11.476562 6.367188 10.28125 6.203125 C 9.09375 6.035156 7.945312 5.578125 6.84375 4.828125 C 5.75 4.085938 4.910156 3.207031 4.328125 2.1875 C 3.742188 1.164062 3.492188 0.0546875 3.578125 -1.140625 C 3.660156 -2.347656 4.128906 -3.578125 4.984375 -4.828125 L 10.609375 -13.15625 Z M 14 -10.859375 "/></g></g></g><g fill="#11663a" fill-opacity="1"><g transform="translate(260.248017, 83.713404)"><g><path d="M 7.546875 6.671875 L 9.140625 -0.40625 L 8.40625 -1.0625 L 4.1875 3.703125 L 1.109375 0.984375 L 12.265625 -11.625 L 17.421875 -7.0625 C 18.421875 -6.175781 19.113281 -5.25 19.5 -4.28125 C 19.894531 -3.320312 20 -2.382812 19.8125 -1.46875 C 19.632812 -0.5625 19.21875 0.265625 18.5625 1.015625 C 17.8125 1.847656 16.90625 2.382812 15.84375 2.625 C 14.789062 2.863281 13.6875 2.710938 12.53125 2.171875 L 11.03125 9.75 Z M 10.328125 -3.234375 L 12.234375 -1.546875 C 12.796875 -1.046875 13.335938 -0.804688 13.859375 -0.828125 C 14.390625 -0.859375 14.875 -1.125 15.3125 -1.625 C 15.738281 -2.113281 15.929688 -2.617188 15.890625 -3.140625 C 15.859375 -3.660156 15.5625 -4.171875 15 -4.671875 L 13.09375 -6.359375 Z M 10.328125 -3.234375 "/></g></g></g><g fill="#11663a" fill-opacity="1"><g transform="translate(271.38363, 93.821346)"><g/></g></g><g fill="#11663a" fill-opacity="1"><g transform="translate(274.664043, 96.931704)"><g><path d="M 17.90625 3.890625 C 17.144531 4.515625 16.3125 4.90625 15.40625 5.0625 C 14.5 5.21875 13.5625 5.09375 12.59375 4.6875 C 11.625 4.28125 10.703125 3.546875 9.828125 2.484375 L 8.21875 0.5 L 3.53125 4.328125 L 0.9375 1.15625 L 14 -9.484375 L 18.203125 -4.328125 C 19.054688 -3.285156 19.59375 -2.257812 19.8125 -1.25 C 20.039062 -0.238281 19.984375 0.703125 19.640625 1.578125 C 19.304688 2.453125 18.726562 3.222656 17.90625 3.890625 Z M 12.171875 0.171875 C 12.660156 0.773438 13.171875 1.113281 13.703125 1.1875 C 14.234375 1.257812 14.757812 1.082031 15.28125 0.65625 C 15.800781 0.226562 16.078125 -0.25 16.109375 -0.78125 C 16.148438 -1.3125 15.925781 -1.878906 15.4375 -2.484375 L 14.015625 -4.21875 L 10.75 -1.5625 Z M 12.171875 0.171875 "/></g></g></g><g fill="#11663a" fill-opacity="1"><g transform="translate(283.602183, 107.979144)"><g><path d="M 5.71875 2.953125 L 8.65625 7.453125 L 6 9.1875 L 0.8125 1.25 L 14.921875 -7.96875 L 17.171875 -4.53125 Z M 5.71875 2.953125 "/></g></g></g><g fill="#11663a" fill-opacity="1"><g transform="translate(289.605352, 116.744695)"><g><path d="M 8 9.390625 L 5.1875 3.765625 L 2.09375 4.1875 L 0.171875 0.34375 L 17.96875 -1.71875 L 20.09375 2.53125 L 7.734375 15.5 L 5.796875 11.625 Z M 10.375 7.046875 L 14.953125 2.40625 L 8.515625 3.328125 Z M 10.375 7.046875 "/></g></g></g><g fill="#11663a" fill-opacity="1"><g transform="translate(297.041545, 131.776938)"><g><path d="M 20.390625 7.296875 L 17.296875 8.375 L 15.828125 4.15625 L 3.015625 8.625 L 1.65625 4.765625 L 14.46875 0.296875 L 13 -3.921875 L 16.09375 -5 Z M 20.390625 7.296875 "/></g></g></g><g fill="#11663a" fill-opacity="1"><g transform="translate(301.460866, 144.430757)"><g><path d="M 14.484375 2.390625 L 11.15625 3.171875 L 12.390625 8.53125 L 9.3125 9.234375 L 8.078125 3.875 L 4.46875 4.71875 L 5.859375 10.78125 L 2.65625 11.515625 L 0.328125 1.453125 L 16.734375 -2.34375 L 19.0625 7.71875 L 15.875 8.453125 Z M 14.484375 2.390625 "/></g></g></g></svg>