<svg width="20" height="16" viewBox="0 0 20 16" fill="none" xmlns="http://www.w3.org/2000/svg">
<path d="M19.5612 3.07178C19.3419 2.13428 18.6472 1.39209 17.8062 1.15771C16.234 0.688965 10.0183 0.688965 10.0183 0.688965C10.0183 0.688965 3.766 0.688965 2.19378 1.15771C1.35283 1.39209 0.658135 2.13428 0.438757 3.07178C0 4.7124 0 8.22803 0 8.22803C0 8.22803 0 11.7046 0.438757 13.3843C0.658135 14.3218 1.35283 15.0249 2.19378 15.2593C3.766 15.689 10.0183 15.689 10.0183 15.689C10.0183 15.689 16.234 15.689 17.8062 15.2593C18.6472 15.0249 19.3419 14.3218 19.5612 13.3843C20 11.7046 20 8.22803 20 8.22803C20 8.22803 20 4.7124 19.5612 3.07178ZM7.97075 11.3921V5.06396L13.1627 8.22803L7.97075 11.3921Z" fill="#006838"/>
</svg>
